<svg height="512" viewBox="0 0 64 64" width="512" xmlns="http://www.w3.org/2000/svg"><path d="m28 17a1 1 0 0 1 -.707-.293l-3-3a1 1 0 0 1 0-1.414l3-3a1 1 0 0 1 1.414 1.414l-2.293 2.293 2.293 2.293a1 1 0 0 1 -.707 1.707z"/><path d="m36 17a1 1 0 0 1 -.707-1.707l2.293-2.293-2.293-2.293a1 1 0 0 1 1.414-1.414l3 3a1 1 0 0 1 0 1.414l-3 3a1 1 0 0 1 -.707.293z"/><path d="m31 18a.976.976 0 0 1 -.244-.03 1 1 0 0 1 -.727-1.213l2-8a1 1 0 0 1 1.94.486l-2 8a1 1 0 0 1 -.969.757z"/><path d="m32 26.24a.993.993 0 0 1 -.707-.293l-2.393-2.394a11 11 0 1 1 6.2 0l-2.395 2.394a.993.993 0 0 1 -.705.293zm0-22.24a9 9 0 0 0 -2.324 17.693 1 1 0 0 1 .451.26l1.873 1.873 1.873-1.873a1 1 0 0 1 .451-.26 9 9 0 0 0 -2.324-17.693z"/><path d="m59 32h-3v-3a1 1 0 0 0 -1-1h-19a4.982 4.982 0 0 0 -4 2.031 4.982 4.982 0 0 0 -4-2.031h-19a1 1 0 0 0 -1 1v3h-3a1 1 0 0 0 -1 1v28a1 1 0 0 0 1 1h54a1 1 0 0 0 1-1v-28a1 1 0 0 0 -1-1zm-23-2h18v23a3 3 0 0 1 -3 3h-14a5.025 5.025 0 0 0 -4 2v-25a3 3 0 0 1 3-3zm-26 0h18a3 3 0 0 1 3 3v25a5.025 5.025 0 0 0 -4-2h-14a3 3 0 0 1 -3-3zm-4 4h2v19a5.006 5.006 0 0 0 5 5h14a3.015 3.015 0 0 1 2.4 1.2l.6.8h-24zm52 26h-24l.6-.8a3.015 3.015 0 0 1 2.4-1.2h14a5.006 5.006 0 0 0 5-5v-19h2z"/><path d="m20 48h2v2h-2z"/><path d="m16 36h4v2h-4z"/><path d="m12 44h2v2h-2z"/><path d="m12 32h2v2h-2z"/><path d="m12 36h2v2h-2z"/><path d="m12 40h13v2h-13z"/><path d="m16 44h9v2h-9z"/><path d="m29 34v-2h-5-8v2h8z"/><path d="m22 36h7v2h-7z"/><path d="m27 40h2v2h-2z"/><path d="m20 52h4v2h-4z"/><path d="m12 48h6v2h-6z"/><path d="m24 48h5v2h-5z"/><path d="m12 52h6v2h-6z"/><path d="m39 32h6v2h-6z"/><path d="m43 48v2h2 7v-2h-7z"/><path d="m39 36h4v2h-4z"/><path d="m35 44h2v2h-2z"/><path d="m35 32h2v2h-2z"/><path d="m35 36h2v2h-2z"/><path d="m35 40h13v2h-13z"/><path d="m39 44h9v2h-9z"/><path d="m47 32h5v2h-5z"/><path d="m45 36h7v2h-7z"/><path d="m50 40h2v2h-2z"/><path d="m43 52h4v2h-4z"/><path d="m35 48h6v2h-6z"/><path d="m35 52h6v2h-6z"/></svg>