<svg height="512" viewBox="0 0 64 64" width="512" xmlns="http://www.w3.org/2000/svg"><path d="m61 25h-7.087a22.619 22.619 0 0 0 -1.469-3.541l5.013-5.012a1 1 0 0 0 0-1.414l-8.49-8.49a1 1 0 0 0 -1.414 0l-5.013 5.013a22.473 22.473 0 0 0 -3.54-1.469v-7.087a1 1 0 0 0 -1-1h-6a1 1 0 0 0 -1 1v3.726a7.979 7.979 0 0 0 -13.54 2.626 8.892 8.892 0 0 0 -2.46-.352 8.987 8.987 0 0 0 -7.437 14.052 10 10 0 0 0 -5.563 8.948 9.876 9.876 0 0 0 3.24 7.337 5.985 5.985 0 0 0 5.76 7.663h.077a6.97 6.97 0 0 0 6 5.937 8.232 8.232 0 0 0 -.077 1.063 7.989 7.989 0 0 0 14 5.274v1.726a1 1 0 0 0 1 1h6a1 1 0 0 0 1-1v-7.087a22.473 22.473 0 0 0 3.54-1.469l5.013 5.013a1 1 0 0 0 1.414 0l8.49-8.49a1 1 0 0 0 0-1.414l-5.013-5.013a22.568 22.568 0 0 0 1.469-3.54h7.087a1 1 0 0 0 1-1v-12a1 1 0 0 0 -1-1zm-36 35a6.006 6.006 0 0 1 -6-6 6.091 6.091 0 0 1 .111-1.1 7.005 7.005 0 0 0 5.889-6.9 1 1 0 0 1 2 0v1h2v-1a3 3 0 0 0 -6 0 5 5 0 1 1 -10-.155 5.171 5.171 0 0 1 5.251-4.845h1.749a5.006 5.006 0 0 0 5-5v-1h-2v1a3 3 0 0 1 -3 3h-1.749a7.227 7.227 0 0 0 -7.171 5.992c-.029 0-.051.008-.08.008a4 4 0 0 1 0-8v-2a5.991 5.991 0 0 0 -4.831 2.456 7.9 7.9 0 0 1 -2.169-5.456 8 8 0 0 1 13.452-5.854l1.363-1.463a9.917 9.917 0 0 0 -9.315-2.355 6.994 6.994 0 0 1 7.533-11.023c-.02.23-.035.46-.035.7a8.009 8.009 0 0 0 8 8h1a1 1 0 0 1 1 1v3h2v-3.005a3 3 0 0 0 -3-3h-.998a6 6 0 1 1 6-6v7a1 1 0 0 0 1 1 12 12 0 0 1 0 24 1 1 0 0 0 -1 1v9a6.006 6.006 0 0 1 -6 6zm35-23h-6.83a1 1 0 0 0 -.962.728 20.525 20.525 0 0 1 -1.869 4.5 1 1 0 0 0 .164 1.2l4.833 4.833-7.076 7.075-4.833-4.836a1 1 0 0 0 -1.2-.164 20.525 20.525 0 0 1 -4.5 1.869 1 1 0 0 0 -.727.965v6.83h-4v-14.035a14 14 0 0 0 0-27.93v-14.035h4v6.83a1 1 0 0 0 .728.962 20.525 20.525 0 0 1 4.5 1.869 1 1 0 0 0 1.2-.164l4.832-4.833 7.076 7.076-4.836 4.833a1 1 0 0 0 -.164 1.2 20.5 20.5 0 0 1 1.869 4.5 1 1 0 0 0 .965.727h6.83z"/><path d="m31 22h2v20h-2z"/><path d="m23 31h2v2h-2z"/><path d="m27 26h2v2h-2z"/><path d="m13 29a4 4 0 0 0 -4 4h2a2 2 0 1 1 2 2v2a4 4 0 0 0 0-8z"/><path d="m10 18h2a3 3 0 0 1 3-3v-2a5.006 5.006 0 0 0 -5 5z"/><path d="m25 8v2a2 2 0 0 1 2 2h2a4 4 0 0 0 -4-4z"/><path d="m26 55a1 1 0 0 1 -1 1h-1v2h1a3 3 0 0 0 3-3v-1h-2z"/><path d="m48.678 48.678h2v2h-2z" transform="matrix(.707 -.707 .707 .707 -20.577 49.678)"/><path d="m56 31h2v2h-2z"/><path d="m48.678 13.322h2v2h-2z" transform="matrix(.707 -.707 .707 .707 4.423 39.322)"/></svg>