<?xml version="1.0"?>
<svg xmlns="http://www.w3.org/2000/svg" viewBox="0 0 64 64" width="512" height="512"><g id="Calculator_and_compass" data-name="Calculator and compass"><path d="M60.142,57.665a3.011,3.011,0,0,0,1.2-3.234L54.78,29.942A6.982,6.982,0,0,0,53,20.264V17a4,4,0,0,0-8,0v3.264a6.982,6.982,0,0,0-1.78,9.678L36.653,54.435a3,3,0,0,0,1.206,3.228l-.825,3.078a1,1,0,0,0,.707,1.225A1.015,1.015,0,0,0,38,62a1,1,0,0,0,.965-.741l.826-3.083a2.928,2.928,0,0,0,2.654-2.2L45.738,43.7A17.927,17.927,0,0,0,48,43.971V45a1,1,0,0,0,2,0V43.971a17.927,17.927,0,0,0,2.262-.269l3.29,12.272a2.923,2.923,0,0,0,2.656,2.2l.826,3.084A1,1,0,0,0,60,62a1.015,1.015,0,0,0,.26-.034,1,1,0,0,0,.707-1.225ZM47,17a2,2,0,0,1,4,0v2.3a6.927,6.927,0,0,0-4,0Zm2,4a5,5,0,1,1-5,5A5.006,5.006,0,0,1,49,21ZM40.513,55.467a.982.982,0,0,1-.458.6,1,1,0,0,1-.752.106l-.009,0h0a1.009,1.009,0,0,1-.707-1.221l6.255-23.331a7,7,0,0,0,1.808.967ZM50,41.94V41a1,1,0,0,0-2,0v.94a15.911,15.911,0,0,1-1.735-.2l2.348-8.758c.129.007.256.02.387.02s.258-.013.387-.02l2.348,8.758A15.911,15.911,0,0,1,50,41.94Zm7.485,13.521L51.351,32.585a7,7,0,0,0,1.808-.967l6.254,23.327a1.01,1.01,0,0,1-.7,1.225h-.006l-.007,0a1,1,0,0,1-1.214-.713Z"/><path d="M49,29a3,3,0,1,0-3-3A3,3,0,0,0,49,29Zm0-4a1,1,0,1,1-1,1A1,1,0,0,1,49,25Z"/><path d="M38,7a5.006,5.006,0,0,0-5-5H7A5.006,5.006,0,0,0,2,7V45a5.006,5.006,0,0,0,5,5H33a5.006,5.006,0,0,0,5-5ZM36,45a3,3,0,0,1-3,3H7a3,3,0,0,1-3-3V7A3,3,0,0,1,7,4H33a3,3,0,0,1,3,3Z"/><path d="M7,16H33a1,1,0,0,0,1-1V7a1,1,0,0,0-1-1H7A1,1,0,0,0,6,7v8A1,1,0,0,0,7,16ZM8,8H32v6H8Z"/><path d="M14,24H13V23a1,1,0,0,0-2,0v1H10a1,1,0,0,0,0,2h1v1a1,1,0,0,0,2,0V26h1a1,1,0,0,0,0-2Z"/><path d="M30,24H26a1,1,0,0,0,0,2h4a1,1,0,0,0,0-2Z"/><path d="M14.121,37.879a1,1,0,0,0-1.414,0L12,38.586l-.707-.707a1,1,0,1,0-1.414,1.414l.707.707-.707.707a1,1,0,1,0,1.414,1.414L12,41.414l.707.707a1,1,0,1,0,1.414-1.414L13.414,40l.707-.707A1,1,0,0,0,14.121,37.879Z"/><path d="M30,37H26a1,1,0,0,0,0,2h4a1,1,0,0,0,0-2Z"/><path d="M30,41H26a1,1,0,0,0,0,2h4a1,1,0,0,0,0-2Z"/><path d="M12,18a7,7,0,1,0,7,7A7.008,7.008,0,0,0,12,18Zm0,12a5,5,0,1,1,5-5A5.006,5.006,0,0,1,12,30Z"/><path d="M28,18a7,7,0,1,0,7,7A7.008,7.008,0,0,0,28,18Zm0,12a5,5,0,1,1,5-5A5.006,5.006,0,0,1,28,30Z"/><path d="M12,33a7,7,0,1,0,7,7A7.008,7.008,0,0,0,12,33Zm0,12a5,5,0,1,1,5-5A5.006,5.006,0,0,1,12,45Z"/><path d="M28,33a7,7,0,1,0,7,7A7.008,7.008,0,0,0,28,33Zm0,12a5,5,0,1,1,5-5A5.006,5.006,0,0,1,28,45Z"/></g></svg>
