<?xml version="1.0"?>
<svg xmlns="http://www.w3.org/2000/svg" viewBox="0 0 64 64" width="512" height="512"><g id="Computer"><path d="M61,28a1,1,0,0,1-1-1V13a3,3,0,0,0-3-3H40a1,1,0,0,1,0-2H57a5.006,5.006,0,0,1,5,5V27A1,1,0,0,1,61,28Z"/><path d="M57,25a1,1,0,0,1-1-1V14H40a1,1,0,0,1,0-2H57a1,1,0,0,1,1,1V24A1,1,0,0,1,57,25Z"/><path d="M34,40H7a1,1,0,0,1-1-1V13a1,1,0,0,1,1-1h3a1,1,0,0,1,0,2H8V38H34a1,1,0,0,1,0,2Z"/><path d="M46,54H38V45a1,1,0,0,0-1-1H7a3,3,0,0,1-3-3V13a3,3,0,0,1,3-3h3a1,1,0,0,0,0-2H7a5.006,5.006,0,0,0-5,5V41a5.006,5.006,0,0,0,5,5H26v8H18a4,4,0,0,0,0,8H46a4,4,0,0,0,0-8ZM28,46h8v8H28ZM46,60H18a2,2,0,0,1,0-4H46a2,2,0,0,1,0,4Z"/><path d="M49,42a5,5,0,1,1,5-5A5.006,5.006,0,0,1,49,42Zm0-8a3,3,0,1,0,3,3A3,3,0,0,0,49,34Z"/><path d="M61,34H57.488a8.5,8.5,0,0,0-.365-.879l2.484-2.484a1,1,0,0,0,0-1.414l-2.83-2.83a1,1,0,0,0-1.414,0l-2.484,2.483A8.97,8.97,0,0,0,52,28.511V25a1,1,0,0,0-1-1H47a1,1,0,0,0-1,1v3.511a8.97,8.97,0,0,0-.879.365l-2.484-2.483a1,1,0,0,0-1.414,0l-2.83,2.83a1,1,0,0,0,0,1.414l2.484,2.484a8.5,8.5,0,0,0-.365.879H38V3a1,1,0,0,0-1-1H21a1,1,0,0,0-.707.293l-8,8A1,1,0,0,0,12,11V35a1,1,0,0,0,1,1H36v3a1,1,0,0,0,1,1h3.512a8.5,8.5,0,0,0,.365.879l-2.484,2.484a1,1,0,0,0,0,1.414l2.83,2.83a1,1,0,0,0,1.414,0l2.484-2.483a8.97,8.97,0,0,0,.879.365V49a1,1,0,0,0,1,1h4a1,1,0,0,0,1-1V45.489a8.97,8.97,0,0,0,.879-.365l2.484,2.483a1,1,0,0,0,1.414,0l2.83-2.83a1,1,0,0,0,0-1.414l-2.484-2.484A8.5,8.5,0,0,0,57.488,40H61a1,1,0,0,0,1-1V35A1,1,0,0,0,61,34ZM20,5.414V10H15.414ZM14,12h7a1,1,0,0,0,1-1V4H36V34H14ZM60,38H56.75a1,1,0,0,0-.968.748,6.771,6.771,0,0,1-.749,1.8,1,1,0,0,0,.15,1.224l2.3,2.3L56.07,45.486l-2.3-2.3a1,1,0,0,0-1.224-.149,6.777,6.777,0,0,1-1.8.748A1,1,0,0,0,50,44.75V48H48V44.75a1,1,0,0,0-.748-.968,6.777,6.777,0,0,1-1.8-.748,1,1,0,0,0-1.224.149l-2.3,2.3L40.514,44.07l2.3-2.3a1,1,0,0,0,.15-1.224,6.771,6.771,0,0,1-.749-1.8A1,1,0,0,0,41.25,38H38V36h3.25a1,1,0,0,0,.968-.748,6.771,6.771,0,0,1,.749-1.8,1,1,0,0,0-.15-1.224l-2.3-2.3,1.416-1.416,2.3,2.3a1,1,0,0,0,1.224.149,6.777,6.777,0,0,1,1.8-.748A1,1,0,0,0,48,29.25V26h2v3.25a1,1,0,0,0,.748.968,6.777,6.777,0,0,1,1.8.748,1,1,0,0,0,1.224-.149l2.3-2.3,1.416,1.416-2.3,2.3a1,1,0,0,0-.15,1.224,6.771,6.771,0,0,1,.749,1.8A1,1,0,0,0,56.75,36H60Z"/><path d="M19,17H17a1,1,0,0,1,0-2h2a1,1,0,0,1,0,2Z"/><path d="M33,17H23a1,1,0,0,1,0-2H33a1,1,0,0,1,0,2Z"/><path d="M19,21H17a1,1,0,0,1,0-2h2a1,1,0,0,1,0,2Z"/><path d="M33,21H23a1,1,0,0,1,0-2H33a1,1,0,0,1,0,2Z"/><path d="M19,25H17a1,1,0,0,1,0-2h2a1,1,0,0,1,0,2Z"/><path d="M33,25H23a1,1,0,0,1,0-2H33a1,1,0,0,1,0,2Z"/><path d="M19,29H17a1,1,0,0,1,0-2h2a1,1,0,0,1,0,2Z"/><path d="M33,29H23a1,1,0,0,1,0-2H33a1,1,0,0,1,0,2Z"/></g></svg>
