<svg height="512" viewBox="0 0 64 64" width="512" xmlns="http://www.w3.org/2000/svg"><g id="Config-2" data-name="Config"><path d="m10 5h2v2h-2z"/><path d="m14 5h2v2h-2z"/><path d="m18 5h2v2h-2z"/><path d="m55 2h-46a3 3 0 0 0 -3 3v40a3 3 0 0 0 3 3h6.926l4 4h-5.926a1 1 0 0 0 -1 1v8a1 1 0 0 0 1 1h12c.03 0 .055-.015.085-.017a1 1 0 0 0 .991-1.561 5.883 5.883 0 0 1 -1.076-3.422 6 6 0 0 1 12 0 5.883 5.883 0 0 1 -1.076 3.422 1 1 0 0 0 .815 1.578.839.839 0 0 0 .12-.029.84.84 0 0 0 .141.029h12a1 1 0 0 0 1-1v-8a1 1 0 0 0 -1-1h-5.926l4-4h6.926a3 3 0 0 0 3-3v-40a3 3 0 0 0 -3-3zm-46 2h46a1 1 0 0 1 1 1v3h-48v-3a1 1 0 0 1 1-1zm33.133 47.113a1 1 0 0 0 -.2 1.135 8.944 8.944 0 0 1 .423 1.061 1 1 0 0 0 .954.691h5.69v6h-9.6a8 8 0 1 0 -14.79 0h-9.61v-6h5.69a1 1 0 0 0 .951-.691 8.944 8.944 0 0 1 .423-1.061 1 1 0 0 0 -.2-1.135l-4.01-4.013 4.246-4.246 4.013 4.013a1 1 0 0 0 1.135.2 8.944 8.944 0 0 1 1.061-.423 1 1 0 0 0 .691-.954v-5.69h6v5.69a1 1 0 0 0 .691.951 8.944 8.944 0 0 1 1.061.423 1 1 0 0 0 1.135-.2l4.013-4.01 4.246 4.246zm-21.633-23.061a7 7 0 0 1 -.5-11.8v5.748a1 1 0 0 0 .445.832l3 2a1 1 0 0 0 1.11 0l3-2a1 1 0 0 0 .445-.832v-5.749a7 7 0 0 1 -.5 11.8 1 1 0 0 0 -.5.868v16.007l-4.193-4.193a1 1 0 0 0 -1.414 0l-.393.393v-12.206a1 1 0 0 0 -.5-.868zm18.209-3.759-1.6-1.6 1.672-6.693h2.438l1.674 6.693-1.6 1.6a1 1 0 0 0 -.293.707v10h-2v-10a1 1 0 0 0 -.293-.707zm4.291 12.707v4.126l-.393-.393a1.029 1.029 0 0 0 -1.414 0l-4.193 4.193v-7.926zm12 9h-7.126l-2.874-2.874v-7.126a1 1 0 0 0 -1-1h-1v-9.586l1.707-1.707a1 1 0 0 0 .263-.95l-2-8a1 1 0 0 0 -.97-.757h-4a1 1 0 0 0 -.97.757l-2 8a1 1 0 0 0 .263.95l1.707 1.707v9.586h-1a1 1 0 0 0 -1 1v2h-6v-8.523a9 9 0 0 0 -1.624-15.824 1 1 0 0 0 -1.376.927v6.885l-2 1.335-2-1.333v-6.887a1 1 0 0 0 -1.376-.927 9 9 0 0 0 -1.624 15.824v13.523a.929.929 0 0 0 .021.1l-2.895 2.9h-7.126a1 1 0 0 1 -1-1v-35h48v35a1 1 0 0 1 -1 1z"/><path d="m32 53a4 4 0 1 0 4 4 4 4 0 0 0 -4-4zm0 6a2 2 0 1 1 2-2 2 2 0 0 1 -2 2z"/><path d="m49 14h3v3h2v-5h-5z"/><path d="m10 17h2v-3h3v-2h-5z"/><path d="m52 42h-3v2h5v-5h-2z"/><path d="m12 39h-2v5h5v-2h-3z"/></g></svg>