<?xml version="1.0"?>
<svg xmlns="http://www.w3.org/2000/svg" viewBox="0 0 64 64" width="512" height="512"><g id="Config"><path d="M60,52V17a3,3,0,0,0-3-3H7a3,3,0,0,0-3,3V52H2v5a5.006,5.006,0,0,0,5,5H57a5.006,5.006,0,0,0,5-5V52ZM6,17a1,1,0,0,1,1-1H57a1,1,0,0,1,1,1V52H6ZM37,54v1a1,1,0,0,1-1,1H28a1,1,0,0,1-1-1V54Zm23,3a3,3,0,0,1-3,3H7a3,3,0,0,1-3-3V54H25v1a3,3,0,0,0,3,3h8a3,3,0,0,0,3-3V54H60Z"/><path d="M55,48a1,1,0,0,0,1-1V19a1,1,0,0,0-1-1H9a1,1,0,0,0-1,1V47a1,1,0,0,0,1,1ZM31,46H30V36.414l1,1Zm-.741-12.155L32,30.944l1.741,2.9L32,35.586ZM34,46H33V37.414l1-1Zm4.305,0H36V37.274A6.962,6.962,0,0,1,39,43,6.88,6.88,0,0,1,38.305,46ZM10,20H54V46H52V39a1,1,0,0,0-1-1H46.144a15.307,15.307,0,0,0-.606-1.465l3.43-3.439a1,1,0,0,0,0-1.413l-5.65-5.65a1,1,0,0,0-1.413,0l-3.438,3.43A15.587,15.587,0,0,0,37,28.856V24a1,1,0,0,0-1-1H28a1,1,0,0,0-1,1v4.856a15.587,15.587,0,0,0-1.466.606L22.1,26.032a1,1,0,0,0-1.413,0l-5.65,5.65a1,1,0,0,0,0,1.413l3.43,3.439A15.307,15.307,0,0,0,17.856,38H13a1,1,0,0,0-1,1v7H10ZM28,46H25.7a6.88,6.88,0,0,1-.7-3,6.962,6.962,0,0,1,3-5.726Zm0-12v.963A8.9,8.9,0,0,0,23.535,46H14V40h4.58a1,1,0,0,0,.957-.711,13.613,13.613,0,0,1,1.025-2.477,1,1,0,0,0-.174-1.178l-3.235-3.243,4.238-4.238,3.243,3.235a1,1,0,0,0,1.178.174,13.414,13.414,0,0,1,2.476-1.024A1,1,0,0,0,29,29.58V25h6v4.58a1,1,0,0,0,.712.958,13.376,13.376,0,0,1,2.475,1.024,1,1,0,0,0,1.179-.174l3.243-3.235,4.238,4.238-3.235,3.243a1,1,0,0,0-.174,1.178,13.613,13.613,0,0,1,1.025,2.477A1,1,0,0,0,45.42,40H50v6H40.465A8.9,8.9,0,0,0,36,34.963V34a1,1,0,0,0-.143-.515l-3-5a1.039,1.039,0,0,0-1.714,0l-3,5A1,1,0,0,0,28,34Z"/></g></svg>
