<?xml version="1.0"?>
<svg xmlns="http://www.w3.org/2000/svg" viewBox="0 0 64 64" width="512" height="512"><g id="Contact"><path d="M38.95,15.322a1.029,1.029,0,0,0-1.414,0l-4.328,4.332-.381-.381a1,1,0,0,0-.39-.241l-4.025-1.348-2.655-2.655a1,1,0,0,0-1.414,0L13.029,26.343a1,1,0,0,0,0,1.414l6.02,6.026-1.316,1.34A2.987,2.987,0,0,0,19.7,40.23a2.95,2.95,0,0,0,2.827,2.824,2.955,2.955,0,0,0,2.826,2.83,3,3,0,0,0,5.111,1.963l1.326-1.326,1.035,1.035a3,3,0,0,0,4.243,0h0a2.977,2.977,0,0,0,.864-1.966,2.977,2.977,0,0,0,1.964-.861h0a2.975,2.975,0,0,0,.863-1.966,2.973,2.973,0,0,0,1.966-.863h0a2.977,2.977,0,0,0,.861-1.964,2.977,2.977,0,0,0,1.966-.864h0a3,3,0,0,0,0-4.242l-1.035-1.036,5.742-5.743a1,1,0,0,0,0-1.414ZM25.05,17.15l1.415,1.415-9.9,9.9L15.15,27.05ZM17.976,29.882,28.152,19.706l3.428,1.148,5.493,5.494a.99.99,0,0,1-.01,1.414.991.991,0,0,1-1.406-.009l-3.68-3.68a1,1,0,0,0-1.414,1.414l.656.656a1.992,1.992,0,0,1-1.922-.51l-.42-.42a1,1,0,0,0-.707-.293h0a1,1,0,0,0-.709.3L20.45,32.356ZM29.053,46.433a1.029,1.029,0,0,1-1.416,0,1,1,0,0,1-.3-.713.991.991,0,0,1,.294-.7h0l1.414-1.415a1,1,0,0,0-1.417-1.413l-1.41,1.41,0,0a1.022,1.022,0,0,1-1.411,0,1,1,0,0,1,0-1.414l1.414-1.414a1,1,0,0,0-1.414-1.414l-1.414,1.414a1,1,0,0,1-1.418-1.41h0l1.42-1.42a1,1,0,0,0-1.414-1.414h0l0,0L20.564,37.95l0,0a1,1,0,0,1-1.413,0,1.017,1.017,0,0,1,.006-1.422l9.038-9.206a4,4,0,0,0,4.539.329l1.5,1.5a2.991,2.991,0,0,0,4.253.009,2.991,2.991,0,0,0,0-4.234l-3.865-3.865.79-.793,9.9,9.9L42.826,32.66a2.966,2.966,0,0,0-3.791,2.747,2.9,2.9,0,0,0-2.826,2.8,2.957,2.957,0,0,0-2.83,2.829,2.964,2.964,0,0,0-2.719,3.789Zm6.6-.291h0a1.022,1.022,0,0,1-1.413,0l-1.414-1.414a1,1,0,0,1,1.414-1.415l1.414,1.416a1,1,0,0,1,0,1.413Zm2.828-2.829a1,1,0,0,1-1.414,0L35.657,41.9a1,1,0,0,1,1.414-1.414L38.485,41.9A1,1,0,0,1,38.485,43.313Zm2.828-2.828a1,1,0,0,1-1.414,0l-1.414-1.414a1,1,0,0,1,0-1.414,1,1,0,0,1,1.413,0l1.414,1.414A1,1,0,0,1,41.313,40.485Zm2.829-2.829h0a1.023,1.023,0,0,1-1.414,0l-1.414-1.414a1,1,0,0,1,1.414-1.415l1.414,1.415a1,1,0,0,1,0,1.413Zm2.588-8.9-9.9-9.9,1.415-1.415,9.9,9.9Z"/><path d="M61,26H55.23a23.685,23.685,0,0,0-2.556-6.19l4.073-4.073a1,1,0,0,0,0-1.414l-7.07-7.07a1,1,0,0,0-1.414,0L44.19,11.326A23.685,23.685,0,0,0,38,8.77V3a1,1,0,0,0-1-1H27a1,1,0,0,0-1,1V8.77a23.685,23.685,0,0,0-6.19,2.556L15.737,7.253a1,1,0,0,0-1.414,0l-7.07,7.07a1,1,0,0,0,0,1.414l4.073,4.073A23.685,23.685,0,0,0,8.77,26H3a1,1,0,0,0-1,1V37a1,1,0,0,0,1,1H8.77a23.685,23.685,0,0,0,2.556,6.19L7.253,48.263a1,1,0,0,0,0,1.414l7.07,7.07a1,1,0,0,0,1.414,0l4.073-4.073A23.685,23.685,0,0,0,26,55.23V61a1,1,0,0,0,1,1H37a1,1,0,0,0,1-1V55.23a23.685,23.685,0,0,0,6.19-2.556l4.073,4.073a1,1,0,0,0,1.414,0l7.07-7.07a1,1,0,0,0,0-1.414L52.674,44.19A23.685,23.685,0,0,0,55.23,38H61a1,1,0,0,0,1-1V27A1,1,0,0,0,61,26ZM60,36H54.44a1,1,0,0,0-.977.786,21.712,21.712,0,0,1-2.9,7.018,1,1,0,0,0,.137,1.243l3.923,3.923L48.97,54.626,45.047,50.7a1,1,0,0,0-1.243-.137,21.712,21.712,0,0,1-7.018,2.9A1,1,0,0,0,36,54.44V60H28V54.44a1,1,0,0,0-.786-.977,21.712,21.712,0,0,1-7.018-2.9,1,1,0,0,0-1.243.137L15.03,54.626,9.374,48.97,13.3,45.047a1,1,0,0,0,.137-1.243,21.712,21.712,0,0,1-2.9-7.018A1,1,0,0,0,9.56,36H4V28H9.56a1,1,0,0,0,.977-.786,21.712,21.712,0,0,1,2.9-7.018,1,1,0,0,0-.137-1.243L9.374,15.03,15.03,9.374,18.953,13.3a1,1,0,0,0,1.243.137,21.712,21.712,0,0,1,7.018-2.9A1,1,0,0,0,28,9.56V4h8V9.56a1,1,0,0,0,.786.977,21.712,21.712,0,0,1,7.018,2.9,1,1,0,0,0,1.243-.137L48.97,9.374l5.656,5.656L50.7,18.953a1,1,0,0,0-.137,1.243,21.712,21.712,0,0,1,2.9,7.018A1,1,0,0,0,54.44,28H60Z"/></g></svg>
