<svg height="512" viewBox="0 0 64 64" width="512" xmlns="http://www.w3.org/2000/svg"><g id="Data_code" data-name="Data code"><path d="m12 17h2v2h-2z"/><path d="m16 17h2v2h-2z"/><path d="m20 17h2v2h-2z"/><path d="m15 26a1 1 0 0 0 -1 1v16a1 1 0 0 0 2 0v-16a1 1 0 0 0 -1-1z"/><path d="m22 31a1 1 0 0 0 .556-1.832l-1.756-1.168 1.752-1.168a1 1 0 1 0 -1.11-1.664l-3 2a1 1 0 0 0 0 1.664l3 2a1 1 0 0 0 .558.168z"/><path d="m29.168 30.555a1 1 0 0 0 1.387.277l3-2a1 1 0 0 0 0-1.664l-3-2a1 1 0 1 0 -1.11 1.664l1.755 1.168-1.752 1.168a1 1 0 0 0 -.28 1.387z"/><path d="m24.684 31.949a1 1 0 0 0 1.265-.633l2-6a1 1 0 0 0 -1.9-.632l-2 6a1 1 0 0 0 .635 1.265z"/><path d="m19 33h6v2h-6z"/><path d="m27 33h2v2h-2z"/><path d="m23 36h12v2h-12z"/><path d="m41 36h9v2h-9z"/><path d="m23 39h2v2h-2z"/><path d="m27 39h12v2h-12z"/><path d="m41 39h4v2h-4z"/><path d="m19 42h6v2h-6z"/><path d="m27 42h2v2h-2z"/><path d="m37 36h2v2h-2z"/><path d="m55 10h6a1 1 0 0 0 1-1v-6a1 1 0 0 0 -1-1h-6a1 1 0 0 0 -1 1v2h-5a3 3 0 0 0 -3 3v6h-13v-4h2a1 1 0 0 0 1-1v-6a1 1 0 0 0 -1-1h-6a1 1 0 0 0 -1 1v6a1 1 0 0 0 1 1h2v4h-13v-6a3 3 0 0 0 -3-3h-5v-2a1 1 0 0 0 -1-1h-6a1 1 0 0 0 -1 1v6a1 1 0 0 0 1 1h6a1 1 0 0 0 1-1v-2h5a1 1 0 0 1 1 1v6h-5a3 3 0 0 0 -3 3v30a3 3 0 0 0 3 3h5v6a1 1 0 0 1 -1 1h-5v-2a1 1 0 0 0 -1-1h-6a1 1 0 0 0 -1 1v6a1 1 0 0 0 1 1h6a1 1 0 0 0 1-1v-2h5a3 3 0 0 0 3-3v-6h13v4h-2a1 1 0 0 0 -1 1v6a1 1 0 0 0 1 1h6a1 1 0 0 0 1-1v-6a1 1 0 0 0 -1-1h-2v-4h13v6a3 3 0 0 0 3 3h5v2a1 1 0 0 0 1 1h6a1 1 0 0 0 1-1v-6a1 1 0 0 0 -1-1h-6a1 1 0 0 0 -1 1v2h-5a1 1 0 0 1 -1-1v-6h5a3 3 0 0 0 3-3v-30a3 3 0 0 0 -3-3h-5v-6a1 1 0 0 1 1-1h5v2a1 1 0 0 0 1 1zm-25-6h4v4h-4zm-22 4h-4v-4h4zm0 52h-4v-4h4zm26 0h-4v-4h4zm22-4h4v4h-4zm-3-8h-42a1 1 0 0 1 -1-1v-25h44v25a1 1 0 0 1 -1 1zm1-31v3h-44v-3a1 1 0 0 1 1-1h42a1 1 0 0 1 1 1zm2-13h4v4h-4z"/><path d="m31 5h2v2h-2z"/><path d="m57 5h2v2h-2z"/><path d="m5 5h2v2h-2z"/><path d="m31 57h2v2h-2z"/><path d="m57 57h2v2h-2z"/><path d="m5 57h2v2h-2z"/></g></svg>