<?xml version="1.0"?>
<svg xmlns="http://www.w3.org/2000/svg" viewBox="0 0 64 64" width="512" height="512"><g id="Data_setting" data-name="Data setting"><path d="M17,38a6,6,0,1,1,6-6A6.006,6.006,0,0,1,17,38Zm0-10a4,4,0,1,0,4,4A4,4,0,0,0,17,28Z"/><path d="M20,47H14a1,1,0,0,1-1-1V42.247c-.144-.057-.283-.115-.419-.174L9.927,44.727a1,1,0,0,1-.707.293h0a1,1,0,0,1-.707-.293l-4.24-4.24a1,1,0,0,1,0-1.414l2.654-2.655c-.06-.135-.117-.274-.174-.418H3a1,1,0,0,1-1-1V29a1,1,0,0,1,1-1H6.753c.057-.144.114-.283.174-.419L4.273,24.927a1,1,0,0,1,0-1.414l4.24-4.24a1.029,1.029,0,0,1,1.414,0l2.654,2.654c.136-.059.275-.117.419-.174V18a1,1,0,0,1,1-1h6a1,1,0,0,1,1,1v3.753c.144.057.283.115.419.174l2.654-2.654a1,1,0,0,1,.707-.293h0a1,1,0,0,1,.707.293l4.24,4.24a1,1,0,0,1,0,1.414l-2.654,2.654c.06.136.117.275.174.419H31a1,1,0,0,1,1,1v6a1,1,0,0,1-1,1H27.247c-.057.144-.114.283-.174.418l2.654,2.655a1,1,0,0,1,0,1.414l-4.24,4.24a1.029,1.029,0,0,1-1.414,0l-2.654-2.654c-.136.059-.275.117-.419.174V46A1,1,0,0,1,20,47Zm-5-2h4V41.54a1,1,0,0,1,.693-.952,8.112,8.112,0,0,0,1.446-.605,1,1,0,0,1,1.188.17l2.453,2.453,2.825-2.826-2.452-2.453a1,1,0,0,1-.17-1.187,8.225,8.225,0,0,0,.605-1.446A1,1,0,0,1,26.54,34H30V30H26.54a1,1,0,0,1-.952-.694,8.225,8.225,0,0,0-.605-1.446,1,1,0,0,1,.17-1.187l2.452-2.453L24.78,21.394l-2.453,2.453a1,1,0,0,1-1.188.17,8.112,8.112,0,0,0-1.446-.605A1,1,0,0,1,19,22.46V19H15v3.46a1,1,0,0,1-.693.952,8.112,8.112,0,0,0-1.446.605,1,1,0,0,1-1.188-.17L9.22,21.394,6.4,24.22l2.452,2.453a1,1,0,0,1,.17,1.187,8.225,8.225,0,0,0-.6,1.446A1,1,0,0,1,7.46,30H4v4H7.46a1,1,0,0,1,.952.694,8.225,8.225,0,0,0,.6,1.446,1,1,0,0,1-.17,1.187L6.4,39.78,9.22,42.606l2.453-2.453a1,1,0,0,1,1.188-.17,8.112,8.112,0,0,0,1.446.605A1,1,0,0,1,15,41.54Z"/><path d="M33,15a1,1,0,0,0-1,1v1.306A21,21,0,0,0,2.3,17a1,1,0,0,0,1.4,1.428A19,19,0,0,1,30.855,19H29a1,1,0,0,0,0,2h4a1,1,0,0,0,1-1V16A1,1,0,0,0,33,15Z"/><path d="M32.662,44.479a1,1,0,0,0-1.412.088A18.978,18.978,0,0,1,5.355,47H7a1,1,0,0,0,0-2H3a1,1,0,0,0-1,1v4a1,1,0,0,0,2,0V48.484a20.988,20.988,0,0,0,28.75-2.593A1,1,0,0,0,32.662,44.479Z"/><path d="M61.707,14.293l-12-12A1,1,0,0,0,49,2H20a1,1,0,0,0-1,1V9a1,1,0,0,0,2,0V4H48V15a1,1,0,0,0,1,1H60V60H21V55a1,1,0,0,0-2,0v6a1,1,0,0,0,1,1H61a1,1,0,0,0,1-1V15A1,1,0,0,0,61.707,14.293ZM50,5.414,58.586,14H50Z"/><path d="M55,33H37a1,1,0,0,1,0-2H55a1,1,0,0,1,0,2Z"/><path d="M55,27H37a1,1,0,0,1,0-2H55a1,1,0,0,1,0,2Z"/><path d="M55,39H37a1,1,0,0,1,0-2H55a1,1,0,0,1,0,2Z"/><path d="M55,21H37a1,1,0,0,1,0-2H55a1,1,0,0,1,0,2Z"/><path d="M55,45H37a1,1,0,0,1,0-2H55a1,1,0,0,1,0,2Z"/><path d="M55,51H34a1,1,0,0,1,0-2H55a1,1,0,0,1,0,2Z"/></g></svg>
