<svg height="512" viewBox="0 0 64 64" width="512" xmlns="http://www.w3.org/2000/svg"><g id="Design_code" data-name="Design code"><path d="m12 20h2v2h-2z"/><path d="m16 20h2v2h-2z"/><path d="m20 20h2v2h-2z"/><path d="m23 34h-10a1 1 0 0 1 -1-1v-8a1 1 0 0 1 1-1h10a1 1 0 0 1 1 1v8a1 1 0 0 1 -1 1zm-9-2h8v-6h-8z"/><path d="m14 36h8v2h-8z"/><path d="m14 40h8v2h-8z"/><path d="m14 44h8v2h-8z"/><path d="m32 36h4v2h-4z"/><path d="m32 40h4v2h-4z"/><path d="m32 44h4v2h-4z"/><path d="m42 36h8v2h-8z"/><path d="m42 40h8v2h-8z"/><path d="m42 44h8v2h-8z"/><path d="m28 36h2v2h-2z"/><path d="m28 40h2v2h-2z"/><path d="m28 44h2v2h-2z"/><path d="m61 52h-1v-31a.99.99 0 0 0 -.058-.288 11.993 11.993 0 1 0 -21.761-8.712h-29.181a5.006 5.006 0 0 0 -5 5v35h-1a1 1 0 0 0 -1 1v4a5.006 5.006 0 0 0 5 5h50a5.006 5.006 0 0 0 5-5v-4a1 1 0 0 0 -1-1zm-11-48a10 10 0 1 1 -10 10 10.011 10.011 0 0 1 10-10zm-6.619 20h-2.381a1 1 0 0 0 -1 1v8a1 1 0 0 0 1 1h10a1 1 0 0 0 1-1v-7.181a11.815 11.815 0 0 0 2-.519v22.7h-44v-30h28.7a12.047 12.047 0 0 0 4.681 6zm6.619 2v6h-8v-6zm-44-9a3 3 0 0 1 3-3h29a11.986 11.986 0 0 0 .181 2h-29.181a1 1 0 0 0 -1 1v32a1 1 0 0 0 1 1h46a1 1 0 0 0 1-1v-24.624a12.013 12.013 0 0 0 2-1.457v29.081h-52zm31 37v1a1 1 0 0 1 -1 1h-8a1 1 0 0 1 -1-1v-1zm23 3a3 3 0 0 1 -3 3h-50a3 3 0 0 1 -3-3v-3h21v1a3 3 0 0 0 3 3h8a3 3 0 0 0 3-3v-1h21z"/><path d="m24 20h14v2h-14z"/><path d="m37 24h-10a1 1 0 0 0 -1 1v8a1 1 0 0 0 1 1h10a1 1 0 0 0 1-1v-8a1 1 0 0 0 -1-1zm-1 8h-8v-6h8z"/><path d="m42.293 14.707 3 3a1 1 0 0 0 1.414-1.414l-2.293-2.293 2.293-2.293a1 1 0 0 0 -1.414-1.414l-3 3a1 1 0 0 0 0 1.414z"/><path d="m53.293 17.707a1 1 0 0 0 1.414 0l3-3a1 1 0 0 0 0-1.414l-3-3a1 1 0 0 0 -1.414 1.414l2.293 2.293-2.293 2.293a1 1 0 0 0 0 1.414z"/><path d="m48.8 19.98a.948.948 0 0 0 .2.02 1 1 0 0 0 .979-.8l2-10a1 1 0 1 0 -1.959-.4l-2 10a1 1 0 0 0 .78 1.18z"/></g></svg>