<?xml version="1.0"?>
<svg xmlns="http://www.w3.org/2000/svg" viewBox="0 0 64 64" width="512" height="512"><g id="Design"><path d="M62,45V7a5.006,5.006,0,0,0-5-5H33a5.006,5.006,0,0,0-5,5V26.586l-4-4V6a4,4,0,0,0-8,0v8.586L3.707,2.293A1,1,0,0,0,2,3V61a1,1,0,0,0,1,1H61a1,1,0,0,0,.707-1.707L51.414,50H57A5.006,5.006,0,0,0,62,45ZM30,7a3,3,0,0,1,3-3H57a3,3,0,0,1,3,3V45a3,3,0,0,1-3,3H33a3,3,0,0,1-3-3Zm9.276,45H12V24.724l4,4V41a1,1,0,0,0,.105.447l3,6a1,1,0,0,0,1.79,0l3-6A1,1,0,0,0,24,41V36.724l4,4V45a5.006,5.006,0,0,0,5,5h4.276ZM22,14V39.132l-1-.667V14ZM20,40.2l1.711,1.14L20,44.764l-1.711-3.422ZM22,12H18V10h4Zm-4,2h1V38.465l-1,.667ZM28,29.414V37.9l-4-4V25.414ZM18,6a2,2,0,0,1,4,0V8H18ZM58.586,60H46V57H44v3H40V57H38v3H34V57H32v3H28V57H26v3H22V57H20v3H16V57H14v3H10V57H8v3H4V56H7V54H4V50H7V48H4V44H7V42H4V38H7V36H4V32H7V30H4V26H7V24H4V20H7V18H4V5.414l12,12V25.9L11.707,21.6A1,1,0,0,0,10,22.31V53a1,1,0,0,0,1,1H41.69a1,1,0,0,0,.707-1.707L40.1,50h8.482Z"/><path d="M33,16H57a1,1,0,0,0,1-1V7a1,1,0,0,0-1-1H33a1,1,0,0,0-1,1v8A1,1,0,0,0,33,16Zm1-8H56v6H34Z"/><path d="M33,46H57a1,1,0,0,0,1-1V21a1,1,0,0,0-1-1H33a1,1,0,0,0-1,1V45A1,1,0,0,0,33,46ZM48,36H42V30h6Zm-8,0H34V30h6Zm-6,2h6v6H34Zm8,0h6v6H42Zm14,6H50V30h6Zm0-16H50V22h6Zm-8,0H42V22h6ZM34,22h6v6H34Z"/></g></svg>
