<?xml version="1.0"?>
<svg xmlns="http://www.w3.org/2000/svg" viewBox="0 0 64 64" width="512" height="512"><g id="Edit"><path d="M47,10H36V7a1,1,0,0,0-1-1H29.9a5,5,0,0,0-9.8,0H15a1,1,0,0,0-1,1v3H3a1,1,0,0,0-1,1V61a1,1,0,0,0,1,1H47a1,1,0,0,0,1-1V11A1,1,0,0,0,47,10ZM16,8h5a1,1,0,0,0,1-1,3,3,0,0,1,6,0,1,1,0,0,0,1,1h5v6H16Zm6,8h6v1a1,1,0,0,1-1,1H23a1,1,0,0,1-1-1Zm-7,0h5v1a3,3,0,0,0,3,3h4a3,3,0,0,0,3-3V16h5a1,1,0,0,0,1-1V12h6V56H8V12h6v3A1,1,0,0,0,15,16ZM46,60H4V12H6V57a1,1,0,0,0,1,1H43a1,1,0,0,0,1-1V12h2Z"/><path d="M25,13a3,3,0,1,0-3-3A3,3,0,0,0,25,13Zm0-4a1,1,0,1,1-1,1A1,1,0,0,1,25,9Z"/><path d="M61,14V11a3,3,0,0,0-6,0v3a1,1,0,0,0-1,1v1.1A5.009,5.009,0,0,0,50,21v8a1,1,0,0,0,2,0V21a3,3,0,0,1,2-2.816V54a.989.989,0,0,0,.081.394l3,7a1,1,0,0,0,1.838,0l3-7A.989.989,0,0,0,62,54V15A1,1,0,0,0,61,14Zm-4-3a1,1,0,0,1,2,0v3H57Zm-1,5h4V28H56Zm4,14V53H56V30ZM58,58.461,56.516,55h2.968Z"/><path d="M27,54H23a1,1,0,0,1-1-1V51.244l-1.243,1.243a1,1,0,0,1-1.414,0l-2.83-2.83a1,1,0,0,1,0-1.414L17.756,47H16a1,1,0,0,1-1-1V42a1,1,0,0,1,1-1h1.756l-1.243-1.243a1,1,0,0,1,0-1.414l2.83-2.83a1,1,0,0,1,1.414,0L22,36.756V35a1,1,0,0,1,1-1h4a1,1,0,0,1,1,1v1.756l1.243-1.243a1,1,0,0,1,1.414,0l2.83,2.83a1,1,0,0,1,0,1.414L32.244,41H34a1,1,0,0,1,1,1v4a1,1,0,0,1-1,1H32.244l1.243,1.243a1,1,0,0,1,0,1.414l-2.83,2.83a1,1,0,0,1-1.414,0L28,51.244V53A1,1,0,0,1,27,54Zm-3-2h2V49.65a1,1,0,0,1,.713-.958,2.262,2.262,0,0,0,.4-.168,1,1,0,0,1,1.171.179l1.663,1.663,1.416-1.416L29.7,47.287a1,1,0,0,1-.179-1.171,2.262,2.262,0,0,0,.168-.4A1,1,0,0,1,30.65,45H33V43H30.65a1,1,0,0,1-.958-.713,2.262,2.262,0,0,0-.168-.4,1,1,0,0,1,.179-1.171l1.663-1.663L29.95,37.634,28.287,39.3a1,1,0,0,1-1.171.179,2.262,2.262,0,0,0-.4-.168A1,1,0,0,1,26,38.35V36H24v2.35a1,1,0,0,1-.713.958,2.262,2.262,0,0,0-.4.168,1,1,0,0,1-1.171-.179L20.05,37.634,18.634,39.05,20.3,40.713a1,1,0,0,1,.179,1.171,2.262,2.262,0,0,0-.168.4A1,1,0,0,1,19.35,43H17v2h2.35a1,1,0,0,1,.958.713,2.262,2.262,0,0,0,.168.4,1,1,0,0,1-.179,1.171L18.634,48.95l1.416,1.416L21.713,48.7a1,1,0,0,1,1.171-.179,2.262,2.262,0,0,0,.4.168A1,1,0,0,1,24,49.65Z"/><path d="M25,48a4,4,0,1,1,4-4A4,4,0,0,1,25,48Zm0-6a2,2,0,1,0,2,2A2,2,0,0,0,25,42Z"/><path d="M37,24H13a1,1,0,0,1,0-2H37a1,1,0,0,1,0,2Z"/><path d="M37,28H13a1,1,0,0,1,0-2H37a1,1,0,0,1,0,2Z"/><path d="M37,32H13a1,1,0,0,1,0-2H37a1,1,0,0,1,0,2Z"/></g></svg>
