<?xml version="1.0"?>
<svg xmlns="http://www.w3.org/2000/svg" viewBox="0 0 64 64" width="512" height="512"><g id="Design-2" data-name="Design"><path d="M57,40.2a1,1,0,0,1-1-1V9a1,1,0,0,0-1-1,1,1,0,0,1,0-2,3,3,0,0,1,3,3V39.2A1,1,0,0,1,57,40.2Z"/><path d="M9,58a3,3,0,0,1-3-3V24.8a1,1,0,0,1,2,0V55a1,1,0,0,0,1,1,1,1,0,0,1,0,2Z"/><path d="M43,35H40.488a8.5,8.5,0,0,0-.365-.879L41.9,32.347a1,1,0,0,0,0-1.414l-2.83-2.83a1,1,0,0,0-1.414,0L36,29.755V6a4,4,0,0,0-8,0V29.755L26.347,28.1a1,1,0,0,0-1.414,0l-2.83,2.83a1,1,0,0,0,0,1.414l1.774,1.774a8.5,8.5,0,0,0-.365.879H21a1,1,0,0,0-1,1v4a1,1,0,0,0,1,1h2.512a8.5,8.5,0,0,0,.365.879L22.1,43.653a1,1,0,0,0,0,1.414l2.83,2.83a1,1,0,0,0,1.414,0l1.774-1.773a8.97,8.97,0,0,0,.879.365V49a1,1,0,0,0,1,1h4a1,1,0,0,0,1-1V46.489a8.97,8.97,0,0,0,.879-.365L37.653,47.9a1,1,0,0,0,1.414,0l2.83-2.83a1,1,0,0,0,0-1.414l-1.774-1.774A8.5,8.5,0,0,0,40.488,41H43a1,1,0,0,0,1-1V36A1,1,0,0,0,43,35Zm-9-3.868-1-.667V14h1ZM32,32.2l1.711,1.14L32,36.764l-1.711-3.422Zm-2.958,3.119,2.063,4.126a1,1,0,0,0,1.79,0l2.063-4.126a4,4,0,1,1-5.916,0ZM30,6a2,2,0,0,1,4,0V8H30Zm0,4h4v2H30Zm0,4h1V30.465l-1,.667ZM42,39H39.75a1,1,0,0,0-.968.748,6.771,6.771,0,0,1-.749,1.8,1,1,0,0,0,.15,1.224l1.593,1.593L38.36,45.776l-1.593-1.593a1,1,0,0,0-1.224-.149,6.777,6.777,0,0,1-1.8.748A1,1,0,0,0,33,45.75V48H31V45.75a1,1,0,0,0-.748-.968,6.777,6.777,0,0,1-1.795-.748,1,1,0,0,0-1.224.149L25.64,45.776,24.224,44.36l1.593-1.593a1,1,0,0,0,.15-1.224,6.771,6.771,0,0,1-.749-1.8A1,1,0,0,0,24.25,39H22V37h2.25a1,1,0,0,0,.968-.748,6.771,6.771,0,0,1,.749-1.8,1,1,0,0,0-.15-1.224L24.224,31.64l1.416-1.416,1.593,1.593A.989.989,0,0,0,28,32.1V33a1,1,0,0,0,.105.447,6,6,0,1,0,7.79,0A1,1,0,0,0,36,33V32.1a.984.984,0,0,0,.767-.278l1.593-1.593,1.416,1.416-1.593,1.593a1,1,0,0,0-.15,1.224,6.771,6.771,0,0,1,.749,1.8A1,1,0,0,0,39.75,37H42Z"/><path d="M55,2a7,7,0,0,0-6.92,6H38v2H48V49a1,1,0,0,0,2,0,5,5,0,0,1,10,0v.21A4.8,4.8,0,0,1,55.21,54H16V15a1,1,0,0,0-2,0,5,5,0,1,1-5-5H26V8H9a7.008,7.008,0,0,0-7,7V55a7,7,0,0,0,13.92,1H55.21A6.8,6.8,0,0,0,62,49.21V9A7.008,7.008,0,0,0,55,2ZM14,55A5,5,0,0,1,4,55V19.9a6.991,6.991,0,0,0,10,0Zm46-10.9a6.991,6.991,0,0,0-10,0V9A5,5,0,0,1,60,9Z"/></g></svg>
