<svg height="512" viewBox="0 0 64 64" width="512" xmlns="http://www.w3.org/2000/svg"><path d="m61 6h-18a1 1 0 0 1 0-2h18a1 1 0 0 1 0 2z"/><path d="m61 10h-18a1 1 0 0 1 0-2h18a1 1 0 0 1 0 2z"/><path d="m21 6h-18a1 1 0 0 1 0-2h18a1 1 0 0 1 0 2z"/><path d="m21 10h-18a1 1 0 0 1 0-2h18a1 1 0 0 1 0 2z"/><circle cx="56" cy="57" r="2"/><path d="m12 56h4v2h-4z"/><path d="m24 56h4v2h-4z"/><path d="m48 56h4v2h-4z"/><path d="m36 56h4v2h-4z"/><path d="m57 52v-9a1 1 0 0 0 -1-1h-12a1 1 0 0 0 -1 1v9h-4v-4.7l3.832-5.748a1 1 0 0 0 -.051-1.18l-4-5a1 1 0 0 0 -.781-.372h-2.147a4.036 4.036 0 0 0 -.853-1.618v-8.408a4.972 4.972 0 0 0 1.98-3.774l1.84-9.2h1.18a1 1 0 0 0 1-1v-8a1 1 0 0 0 -1-1h-16a1 1 0 0 0 -1 1v8a1 1 0 0 0 1 1h1.18l1.84 9.2a4.972 4.972 0 0 0 1.98 3.774v8.408a4.036 4.036 0 0 0 -.853 1.618h-2.147a1 1 0 0 0 -.781.375l-4 5a1 1 0 0 0 -.051 1.18l3.832 5.745v4.7h-4v-9a1 1 0 0 0 -1-1h-12a1 1 0 0 0 -1 1v9a5 5 0 0 0 0 10h50a5 5 0 0 0 0-10zm-8-8h2v3.382l-.553-.277a1 1 0 0 0 -.894 0l-.553.277zm-4 0h2v5a1 1 0 0 0 1.447.9l1.553-.782 1.553.777a1 1 0 0 0 1.447-.895v-5h2v8h-10zm-13-20a3 3 0 1 1 3-3 3 3 0 0 1 -3 3zm0 10a2 2 0 1 1 -2 2 2 2 0 0 1 2-2zm-1-1.858v-6.242a5 5 0 0 0 2 0v6.243a3.592 3.592 0 0 0 -2 0zm-6-22.142v-6h14v6zm3.343 7.616-1.123-5.616h9.56l-1.123 5.616a4.946 4.946 0 0 0 -7.314 0zm-5.105 23.438 3.242-4.054h1.662a3.981 3.981 0 0 0 7.716 0h1.662l3.243 4.054-1.763 2.646v-.7a1 1 0 0 0 -1-1h-12a1 1 0 0 0 -1 1v.7zm6.236 8.8a1.009 1.009 0 0 0 .973.044l1.553-.78 1.553.777a1 1 0 0 0 1.447-.895v-5h2v8h-10v-8h2v5a1 1 0 0 0 .474.851zm1.526-2.472v-3.382h2v3.382l-.553-.277a1 1 0 0 0 -.894 0zm-18-3.382h2v3.382l-.553-.277a1 1 0 0 0 -.894 0l-.553.277zm-4 0h2v5a1 1 0 0 0 1.447.9l1.553-.782 1.553.777a1 1 0 0 0 1.447-.895v-5h2v8h-10zm48 16h-50a3 3 0 0 1 0-6h50a3 3 0 0 1 0 6z"/><circle cx="32" cy="57" r="2"/><circle cx="44" cy="57" r="2"/><circle cx="8" cy="57" r="2"/><circle cx="20" cy="57" r="2"/></svg>