<svg height="512" viewBox="0 0 64 64" width="512" xmlns="http://www.w3.org/2000/svg"><g id="Engine-2" data-name="Engine"><path d="m13 55h3v2h-3z"/><path d="m24 55h4v2h-4z"/><path d="m48 55h3v2h-3z"/><path d="m36 55h4v2h-4z"/><path d="m32 59a3 3 0 1 1 3-3 3 3 0 0 1 -3 3zm0-4a1 1 0 1 0 1 1 1 1 0 0 0 -1-1z"/><path d="m44 59a3 3 0 1 1 3-3 3 3 0 0 1 -3 3zm0-4a1 1 0 1 0 1 1 1 1 0 0 0 -1-1z"/><path d="m55 59a3 3 0 1 1 3-3 3 3 0 0 1 -3 3zm0-4a1 1 0 1 0 1 1 1 1 0 0 0 -1-1z"/><path d="m20 59a3 3 0 1 1 3-3 3 3 0 0 1 -3 3zm0-4a1 1 0 1 0 1 1 1 1 0 0 0 -1-1z"/><path d="m9 59a3 3 0 1 1 3-3 3 3 0 0 1 -3 3zm0-4a1 1 0 1 0 1 1 1 1 0 0 0 -1-1z"/><path d="m55 22a3 3 0 1 0 3 3 3 3 0 0 0 -3-3zm0 4a1 1 0 1 1 1-1 1 1 0 0 1 -1 1z"/><path d="m56 50h-8v-7a3 3 0 0 0 -1.826-2.76l8.268-8.268c.185.014.37.028.558.028a7 7 0 1 0 -1.707-13.781l-10.378-10.378a4.963 4.963 0 0 0 .085-.841 4.983 4.983 0 0 0 -8.974-3h-13.052a4.983 4.983 0 1 0 -6.974 6.974v8.408a3.977 3.977 0 0 0 -.858 1.618h-2.142a1 1 0 0 0 -.781.375l-4 5a1 1 0 0 0 -.051 1.18l4 6a1 1 0 0 0 1.664-1.11l-3.6-5.391 3.248-4.054h1.662a3.981 3.981 0 0 0 7.716 0h1.662l3.243 4.054-3.6 5.391a1 1 0 0 0 1.664 1.11l4-6a1 1 0 0 0 -.051-1.18l-4-5a1 1 0 0 0 -.776-.375h-2.142a3.977 3.977 0 0 0 -.858-1.618v-8.408a4.993 4.993 0 0 0 .974-.974h13.052a4.568 4.568 0 0 0 4.507 1.946l10.12 10.121a6.872 6.872 0 0 0 -.4 4.782l-13.153 13.151h-.1a3 3 0 0 0 -3 3v7h-6v-13a1 1 0 0 0 -1-1h-16a1 1 0 0 0 -1 1v13a6 6 0 0 0 0 12h48a6 6 0 0 0 0-12zm-39-26a2 2 0 1 1 2-2 2 2 0 0 1 -2 2zm-1-5.858v-6.242a5 5 0 0 0 2 0v6.243a3.592 3.592 0 0 0 -2 0zm1-8.142a3 3 0 1 1 3-3 3 3 0 0 1 -3 3zm16.1-2h-11.2a5 5 0 0 0 0-2h11.2a5 5 0 0 0 0 2zm21.9 12a5 5 0 1 1 -5 5 5.006 5.006 0 0 1 5-5zm-17-10a3 3 0 1 1 3-3 3 3 0 0 1 -3 3zm2.642 1.227a5.024 5.024 0 0 0 1.458-1.376l9.212 9.212a7.044 7.044 0 0 0 -1.535 1.3zm8.489 17.573a7.035 7.035 0 0 0 3.052 2.6l-8.6 8.6h-5.649zm-15.131 14.2a1 1 0 0 1 1-1h10a1 1 0 0 1 1 1v7h-12zm-18-5h2v4.382l-.553-.277a1 1 0 0 0 -.894 0l-.553.277zm-6 0h4v6a1 1 0 0 0 1.447.9l1.553-.782 1.553.777a1 1 0 0 0 1.447-.895v-6h4v12h-14zm46 22h-48a4 4 0 0 1 0-8h48a4 4 0 0 1 0 8z"/><path d="m40 43a3 3 0 1 0 3 3 3 3 0 0 0 -3-3zm0 4a1 1 0 1 1 1-1 1 1 0 0 1 -1 1z"/></g></svg>