<svg height="512" viewBox="0 0 64 64" width="512" xmlns="http://www.w3.org/2000/svg"><g id="Engine-3" data-name="Engine"><path d="m55 2h-46a3 3 0 0 0 -3 3v56a1 1 0 0 0 1 1h50a1 1 0 0 0 1-1v-56a3 3 0 0 0 -3-3zm-7 42h-4v-4h4zm2 2v6h-8v-6zm1-2h-1v-5a1 1 0 0 0 -1-1h-6a1 1 0 0 0 -1 1v5h-1a1 1 0 0 0 -1 1v7h-2v-7a1 1 0 0 0 -1-1h-1v-5a1 1 0 0 0 -1-1h-6a1 1 0 0 0 -1 1v5h-1a1 1 0 0 0 -1 1v7h-2v-7a1 1 0 0 0 -1-1h-1v-5a1 1 0 0 0 -1-1h-6a1 1 0 0 0 -1 1v5h-1a1 1 0 0 0 -1 1v7h-4v-40h5v3a5.009 5.009 0 0 0 4 4.9v7.2a5.009 5.009 0 0 0 -4 4.9 1 1 0 0 0 2 0 3 3 0 0 1 6 0 1 1 0 0 0 2 0 5.009 5.009 0 0 0 -4-4.9v-7.2a5.009 5.009 0 0 0 4-4.9v-3h4v3a5.009 5.009 0 0 0 4 4.9v7.2a5.009 5.009 0 0 0 -4 4.9 1 1 0 0 0 2 0 3 3 0 0 1 6 0 1 1 0 0 0 2 0 5.009 5.009 0 0 0 -4-4.9v-7.2a5.009 5.009 0 0 0 4-4.9v-3h4v3a5.009 5.009 0 0 0 4 4.9v7.2a5.009 5.009 0 0 0 -4 4.9 1 1 0 0 0 2 0 3 3 0 0 1 6 0 1 1 0 0 0 2 0 5.009 5.009 0 0 0 -4-4.9v-7.2a5.009 5.009 0 0 0 4-4.9v-3h5v40h-4v-7a1 1 0 0 0 -1-1zm-17 0h-4v-4h4zm2 2v6h-8v-6zm-16-2h-4v-4h4zm2 2v6h-8v-6zm-4-28a3 3 0 0 1 -3-3v-3h6v3a3 3 0 0 1 -3 3zm14 0a3 3 0 0 1 -3-3v-3h6v3a3 3 0 0 1 -3 3zm14 0a3 3 0 0 1 -3-3v-3h6v3a3 3 0 0 1 -3 3zm-38-13a1 1 0 0 1 1-1h46a1 1 0 0 1 1 1v5h-48zm48 55h-48v-6h48z"/><path d="m49 7a1 1 0 0 0 -1-1h-37a1 1 0 0 0 0 2h37a1 1 0 0 0 1-1z"/><path d="m52 8h1a1 1 0 0 0 0-2h-1a1 1 0 0 0 0 2z"/><path d="m48 56h-32a1 1 0 0 0 0 2h32a1 1 0 0 0 0-2z"/><path d="m52 58h1a1 1 0 0 0 0-2h-1a1 1 0 0 0 0 2z"/><path d="m12 56h-1a1 1 0 0 0 0 2h1a1 1 0 0 0 0-2z"/><path d="m31 14h2v2h-2z"/><path d="m17 14h2v2h-2z"/><path d="m45 14h2v2h-2z"/></g></svg>