<?xml version="1.0"?>
<svg xmlns="http://www.w3.org/2000/svg" viewBox="0 0 64 64" width="512" height="512"><g id="Engineer-3" data-name="Engineer"><path d="M13,19h6v1a1,1,0,0,0,1,1h4a1,1,0,0,0,1-1V19h7a1,1,0,0,0,0-2H24a1,1,0,0,0-1,1v1H21V18a1,1,0,0,0-1-1H13a1,1,0,0,0,0,2Z"/><path d="M47,41a6,6,0,1,0,6,6A6.006,6.006,0,0,0,47,41Zm0,10a4,4,0,1,1,4-4A4,4,0,0,1,47,51Z"/><path d="M61,43H57.247c-.057-.144-.114-.283-.174-.419l2.654-2.654a1,1,0,0,0,0-1.414l-4.24-4.24a1,1,0,0,0-1.414,0l-2.654,2.654c-.136-.06-.275-.117-.419-.174V33a1,1,0,0,0-1-1H44a1,1,0,0,0-1,1v3.753c-.144.057-.283.114-.419.174l-2.654-2.654a1,1,0,0,0-1.414,0L34.786,38H27V36.786a11.007,11.007,0,0,0,5.956-8.914A4,4,0,0,0,36,24a3,3,0,0,0,0-6A14,14,0,0,0,25.957,4.575,3,3,0,0,0,23,2H21a3,3,0,0,0-2.958,2.581A13.927,13.927,0,0,0,8,18a3,3,0,0,0,0,6,4,4,0,0,0,3.044,3.872A11.007,11.007,0,0,0,17,36.786V38H9a7.008,7.008,0,0,0-7,7V61a1,1,0,0,0,1,1H36a1,1,0,0,0,0-2H30V49a1,1,0,0,0-1-1H15a1,1,0,0,0-1,1V60H12V40h5.1a5,5,0,0,0,9.8,0h7.447l2.581,2.581c-.06.136-.117.275-.174.419H33a1,1,0,0,0-1,1v6a1,1,0,0,0,1,1h3.753c.057.144.114.283.174.419l-2.654,2.654a1,1,0,0,0,0,1.414l4.24,4.24a1,1,0,0,0,1.414,0l2.654-2.654c.136.06.275.117.419.174V61a1,1,0,0,0,1,1h6a1,1,0,0,0,1-1V57.247c.144-.057.283-.114.419-.174l2.654,2.654a1.029,1.029,0,0,0,1.414,0l4.24-4.24a1,1,0,0,0,0-1.414l-2.654-2.654c.06-.136.117-.275.174-.419H61a1,1,0,0,0,1-1V44A1,1,0,0,0,61,43ZM16,50H28V60H16ZM33,25.731V24h1A2,2,0,0,1,33,25.731ZM7,21a1,1,0,0,1,1-1,1,1,0,0,0,2,0V18A11.937,11.937,0,0,1,18,6.69V13a1,1,0,0,0,2,0V5a1,1,0,0,1,1-1h2a1,1,0,0,1,1,1v8a1,1,0,0,0,2,0V6.7A11.955,11.955,0,0,1,34,18v2a1,1,0,0,0,2,0,1,1,0,0,1,0,2H8A1,1,0,0,1,7,21Zm3,3h1v1.731A2,2,0,0,1,10,24Zm3,3V24H31v3a9,9,0,0,1-18,0ZM4,45a5.006,5.006,0,0,1,5-5h1V60H4Zm18-3a3,3,0,0,1-3-3V37.574a10.776,10.776,0,0,0,6,0V39A3,3,0,0,1,22,42Zm38,7H56.54a1,1,0,0,0-.952.694,8.259,8.259,0,0,1-.605,1.445,1,1,0,0,0,.17,1.188l2.453,2.453L54.78,57.606l-2.453-2.453a1,1,0,0,0-1.188-.17,8.259,8.259,0,0,1-1.445.605A1,1,0,0,0,49,56.54V60H45V56.54a1,1,0,0,0-.694-.952,8.259,8.259,0,0,1-1.445-.605,1,1,0,0,0-1.188.17L39.22,57.606,36.394,54.78l2.453-2.453a1,1,0,0,0,.17-1.188,8.259,8.259,0,0,1-.605-1.445A1,1,0,0,0,37.46,49H34V45h3.46a1,1,0,0,0,.952-.694,8.259,8.259,0,0,1,.605-1.445,1,1,0,0,0-.17-1.188L36.394,39.22l2.826-2.826,2.453,2.453a1,1,0,0,0,1.188.17,8.259,8.259,0,0,1,1.445-.605A1,1,0,0,0,45,37.46V34h4v3.46a1,1,0,0,0,.694.952,8.259,8.259,0,0,1,1.445.605,1,1,0,0,0,1.188-.17l2.453-2.453,2.826,2.826-2.453,2.453a1,1,0,0,0-.17,1.188,8.259,8.259,0,0,1,.605,1.445A1,1,0,0,0,56.54,45H60Z"/><rect x="46" y="35" width="2" height="2"/><rect x="38.222" y="38.222" width="2" height="2" transform="translate(-16.246 39.222) rotate(-45)"/><rect x="35" y="46" width="2" height="2"/><rect x="38.222" y="53.778" width="2" height="2" transform="translate(-27.246 43.778) rotate(-45)"/><rect x="46" y="57" width="2" height="2"/><rect x="53.778" y="53.778" width="2" height="2" transform="translate(-22.69 54.778) rotate(-45)"/><rect x="53.778" y="38.222" width="2" height="2" transform="translate(-11.69 50.222) rotate(-45)"/><rect x="57" y="46" width="2" height="2"/><path d="M61,17H59.244l1.243-1.243a1,1,0,0,0,0-1.414l-2.83-2.83a1,1,0,0,0-1.414,0L55,12.756V11a1,1,0,0,0-1-1H50a1,1,0,0,0-1,1v1.756l-1.243-1.243a1,1,0,0,0-1.414,0l-2.83,2.83a1,1,0,0,0,0,1.414L44.756,17H43a1,1,0,0,0-1,1v4a1,1,0,0,0,1,1h1.756l-1.243,1.243a1,1,0,0,0,0,1.414l2.83,2.83a1,1,0,0,0,1.414,0L49,27.244V29a1,1,0,0,0,1,1h4a1,1,0,0,0,1-1V27.244l1.243,1.243a1,1,0,0,0,1.414,0l2.83-2.83a1,1,0,0,0,0-1.414L59.244,23H61a1,1,0,0,0,1-1V18A1,1,0,0,0,61,17Zm-1,4H57.65a1,1,0,0,0-.958.713,2.262,2.262,0,0,1-.168.4,1,1,0,0,0,.179,1.171l1.663,1.663L56.95,26.366,55.287,24.7a1,1,0,0,0-1.171-.179,2.262,2.262,0,0,1-.4.168A1,1,0,0,0,53,25.65V28H51V25.65a1,1,0,0,0-.713-.958,2.262,2.262,0,0,1-.4-.168,1,1,0,0,0-1.171.179L47.05,26.366,45.634,24.95,47.3,23.287a1,1,0,0,0,.179-1.171,2.262,2.262,0,0,1-.168-.4A1,1,0,0,0,46.35,21H44V19h2.35a1,1,0,0,0,.958-.713,2.262,2.262,0,0,1,.168-.4,1,1,0,0,0-.179-1.171L45.634,15.05l1.416-1.416L48.713,15.3a1,1,0,0,0,1.171.179,2.262,2.262,0,0,1,.4-.168A1,1,0,0,0,51,14.35V12h2v2.35a1,1,0,0,0,.713.958,2.262,2.262,0,0,1,.4.168,1,1,0,0,0,1.171-.179l1.663-1.663,1.416,1.416L56.7,16.713a1,1,0,0,0-.179,1.171,2.262,2.262,0,0,1,.168.4A1,1,0,0,0,57.65,19H60Z"/><path d="M52,16a4,4,0,1,0,4,4A4,4,0,0,0,52,16Zm0,6a2,2,0,1,1,2-2A2,2,0,0,1,52,22Z"/></g></svg>
