<?xml version="1.0"?>
<svg xmlns="http://www.w3.org/2000/svg" viewBox="0 0 64 64" width="512" height="512"><g id="Engineer"><path d="M45,27H37a1,1,0,0,0-1,1v1a1,1,0,0,1-1,1H29a1,1,0,0,1-1-1V28a1,1,0,0,0-1-1H19a1,1,0,0,0,0,2h7a3,3,0,0,0,3,3h6a3,3,0,0,0,3-3h7a1,1,0,0,0,0-2Z"/><path d="M54.956,26.1A22.873,22.873,0,0,0,37.98,4.807,2.994,2.994,0,0,0,35,2H29a2.994,2.994,0,0,0-2.981,2.815A22.822,22.822,0,0,0,9.038,26.1,5.005,5.005,0,0,0,5,31v2a3,3,0,0,0,2,2.816V37a5.006,5.006,0,0,0,4.046,4.9,20.972,20.972,0,0,0,41.908,0A5.006,5.006,0,0,0,57,37V35.816A3,3,0,0,0,59,33V31A5.005,5.005,0,0,0,54.956,26.1ZM9,37V36h2v3.829A3.006,3.006,0,0,1,9,37ZM32,60A19.021,19.021,0,0,1,13,41V36H28v6a3.948,3.948,0,0,0,.108.889,9.077,9.077,0,0,0-2.478,1.746A8.982,8.982,0,0,0,23,51a1,1,0,0,0,1,1H40a1,1,0,0,0,1-1,8.949,8.949,0,0,0-5.108-8.111A3.948,3.948,0,0,0,36,42V36H51v5A19.021,19.021,0,0,1,32,60Zm0-14a3.974,3.974,0,0,0,2.961-1.335A6.919,6.919,0,0,1,38.929,50H25.071a7,7,0,0,1,1.971-3.949,7.08,7.08,0,0,1,2-1.386A3.971,3.971,0,0,0,32,46Zm2-4a2,2,0,0,1-4,0V36h4Zm21-5a3.006,3.006,0,0,1-2,2.829V36h2Zm2-4a1,1,0,0,1-1,1H8a1,1,0,0,1-1-1V31a3,3,0,0,1,2-2.816V31a1,1,0,0,0,2,0V27A20.855,20.855,0,0,1,26,6.893V20a1,1,0,0,0,2,0V5a1,1,0,0,1,1-1h6a1,1,0,0,1,1,1V20a1,1,0,0,0,2,0V6.88A20.963,20.963,0,0,1,53,27v4a1,1,0,0,0,2,0V28.184A3,3,0,0,1,57,31Z"/><path d="M41,18a1,1,0,0,0,1-1V11a1,1,0,0,0-2,0v6A1,1,0,0,0,41,18Z"/><path d="M23,18a1,1,0,0,0,1-1V11a1,1,0,0,0-2,0v6A1,1,0,0,0,23,18Z"/><path d="M50,27H49a1,1,0,0,0,0,2h1a1,1,0,0,0,0-2Z"/><path d="M15,27H14a1,1,0,0,0,0,2h1a1,1,0,0,0,0-2Z"/><circle cx="41" cy="38" r="2"/><circle cx="23" cy="38" r="2"/></g></svg>
