<svg height="512" viewBox="0 0 64 64" width="512" xmlns="http://www.w3.org/2000/svg"><path d="m33 2h-28a3 3 0 0 0 -3 3v26a3 3 0 0 0 3 3h28a3 3 0 0 0 3-3v-26a3 3 0 0 0 -3-3zm-28 2h28a1 1 0 0 1 1 1v2.919h-30v-2.919a1 1 0 0 1 1-1zm28 28h-28a1 1 0 0 1 -1-1v-21.081h30v21.081a1 1 0 0 1 -1 1z"/><path d="m6 5h2v2h-2z"/><path d="m10 5h2v2h-2z"/><path d="m14 5h2v2h-2z"/><path d="m12 26h2v2h-2z"/><path d="m16 26h12v2h-12z"/><path d="m12 22h2v2h-2z"/><path d="m16 22h12v2h-12z"/><path d="m55.535 31.464a1 1 0 0 0 -1.414 0l-1.121 1.121v-9.585a3 3 0 0 0 -3-3h-8.586l1.121-1.122a1 1 0 1 0 -1.414-1.414l-2.828 2.829a1 1 0 0 0 0 1.414l2.828 2.829a1 1 0 1 0 1.414-1.414l-1.121-1.122h8.586a1 1 0 0 1 1 1v9.585l-1.121-1.121a1 1 0 1 0 -1.414 1.414l2.828 2.829a1 1 0 0 0 1.414 0l2.828-2.829a1 1 0 0 0 0-1.414z"/><path d="m25.707 49.293-2.829-2.829a1 1 0 0 0 -1.414 1.414l1.122 1.122h-8.586a1 1 0 0 1 -1-1v-8.586l1.122 1.122a1 1 0 1 0 1.414-1.414l-2.829-2.829a1 1 0 0 0 -1.414 0l-2.829 2.829a1 1 0 1 0 1.414 1.414l1.122-1.122v8.586a3 3 0 0 0 3 3h8.586l-1.122 1.122a1 1 0 1 0 1.414 1.414l2.829-2.829a1 1 0 0 0 0-1.414z"/><path d="m16 19a1 1 0 0 1 -.554-.168l-3-2a1 1 0 0 1 0-1.664l3-2a1 1 0 1 1 1.11 1.664l-1.756 1.168 1.752 1.168a1 1 0 0 1 -.552 1.832z"/><path d="m24 19a1 1 0 0 1 -.556-1.832l1.756-1.168-1.752-1.168a1 1 0 0 1 1.11-1.664l3 2a1 1 0 0 1 0 1.664l-3 2a1 1 0 0 1 -.558.168z"/><path d="m19 20a1 1 0 0 1 -.949-1.316l2-6a1 1 0 0 1 1.9.632l-2 6a1 1 0 0 1 -.951.684z"/><path d="m48 48h2a1 1 0 0 0 0-2h-2a1 1 0 0 0 0 2z"/><path d="m34 48h2a1 1 0 0 0 0-2h-2a1 1 0 0 0 0 2z"/><path d="m61 44h-2v-2a1 1 0 0 0 -1-1h-2v-2a1 1 0 0 0 -1-1h-26a1 1 0 0 0 -1 1v16a1 1 0 0 0 1 1h2v2a1 1 0 0 0 1 1h2v2a1 1 0 0 0 1 1h26a1 1 0 0 0 1-1v-16a1 1 0 0 0 -1-1zm-31-4h24v14h-24zm3 16h22a1 1 0 0 0 1-1v-12h1v14h-24zm27 4h-24v-1h22a1 1 0 0 0 1-1v-12h1z"/><path d="m40 49a1 1 0 0 0 0 2h1v1a1 1 0 0 0 2 0v-1a2 2 0 0 0 2-2v-1a2 2 0 0 0 -2-2h-2v-1h3a1 1 0 0 0 0-2h-1v-1a1 1 0 0 0 -2 0v1a2 2 0 0 0 -2 2v1a2 2 0 0 0 2 2h2v1z"/><path d="m9 28a1 1 0 0 1 -1-1v-12a1 1 0 0 1 2 0v12a1 1 0 0 1 -1 1z"/></svg>