<svg height="512" viewBox="0 0 64 64" width="512" xmlns="http://www.w3.org/2000/svg"><path d="m14 10h4v2h-4z"/><path d="m19 10h2v2h-2z"/><path d="m16 13h2v2h-2z"/><path d="m19 13h4v2h-4z"/><path d="m24 13h3v2h-3z"/><path d="m18 16h3v2h-3z"/><path d="m22 16h6v2h-6z"/><path d="m14 20h2v2h-2z"/><path d="m18 20h5v2h-5z"/><path d="m25 20h2v2h-2z"/><path d="m31 2h-26a1 1 0 0 0 -1 1v3h-1a1 1 0 0 0 0 2h1v2h-1a1 1 0 0 0 0 2h1v2h-1a1 1 0 0 0 0 2h1v2h-1a1 1 0 0 0 0 2h1v2h-1a1 1 0 0 0 0 2h1v2h-1a1 1 0 0 0 0 2h1v2h-1a1 1 0 0 0 0 2h1v2h-1a1 1 0 0 0 0 2h1v3a1 1 0 0 0 1 1h26a1 1 0 0 0 1-1v-36a1 1 0 0 0 -1-1zm-25 34h1a1 1 0 0 0 0-2h-1v-2h1a1 1 0 0 0 0-2h-1v-2h1a1 1 0 0 0 0-2h-1v-2h1a1 1 0 0 0 0-2h-1v-2h1a1 1 0 0 0 0-2h-1v-2h1a1 1 0 0 0 0-2h-1v-2h1a1 1 0 0 0 0-2h-1v-2h1a1 1 0 0 0 0-2h-1v-2h4v34h-4zm24 2h-18v-34h18z"/><path d="m14 34h2v2h-2z"/><path d="m18 34h5v2h-5z"/><path d="m25 34h2v2h-2z"/><path d="m14 6h2v2h-2z"/><path d="m18 6h5v2h-5z"/><path d="m25 6h2v2h-2z"/><path d="m14 24h4v2h-4z"/><path d="m19 24h2v2h-2z"/><path d="m16 27h2v2h-2z"/><path d="m19 27h4v2h-4z"/><path d="m24 27h3v2h-3z"/><path d="m18 30h3v2h-3z"/><path d="m22 30h6v2h-6z"/><path d="m59 31h-22a3 3 0 0 0 -3 3v25a3 3 0 0 0 3 3h22a3 3 0 0 0 3-3v-25a3 3 0 0 0 -3-3zm-22 2h22a1 1 0 0 1 1 1v3h-24v-3a1 1 0 0 1 1-1zm22 27h-22a1 1 0 0 1 -1-1v-20h24v20a1 1 0 0 1 -1 1z"/><path d="m38 34h2v2h-2z"/><path d="m42 34h2v2h-2z"/><path d="m46 34h2v2h-2z"/><path d="m58 50h-20v-9h20zm-18-2h16v-5h-16z"/><path d="m40 56h2v2h-2z"/><path d="m44 56h12v2h-12z"/><path d="m40 52h2v2h-2z"/><path d="m44 52h12v2h-12z"/><path d="m51.535 24.464a1 1 0 0 0 -1.414 0l-1.121 1.121v-13.585a1 1 0 0 0 -1-1h-10.586l1.121-1.122a1 1 0 1 0 -1.414-1.414l-2.828 2.829a1 1 0 0 0 0 1.414l2.828 2.829a1 1 0 1 0 1.414-1.414l-1.121-1.122h9.586v12.585l-1.121-1.121a1 1 0 1 0 -1.414 1.414l2.828 2.829a1 1 0 0 0 1.414 0l2.828-2.829a1 1 0 0 0 0-1.414z"/><path d="m31.707 55.293-2.829-2.829a1 1 0 0 0 -1.414 1.414l1.122 1.122h-10.586v-9.586l1.122 1.122a1 1 0 0 0 1.414-1.414l-2.829-2.829a1 1 0 0 0 -1.414 0l-2.829 2.829a1 1 0 1 0 1.414 1.414l1.122-1.122v10.586a1 1 0 0 0 1 1h11.586l-1.122 1.122a1 1 0 1 0 1.414 1.414l2.829-2.829a1 1 0 0 0 0-1.414z"/></svg>