<svg height="512" viewBox="0 0 64 64" width="512" xmlns="http://www.w3.org/2000/svg"><g id="Engineering-3" data-name="Engineering"><path d="m48.267 41.193-3.482-3.482c.107-.239.2-.476.294-.711h4.921a1 1 0 0 0 1-1v-8a1 1 0 0 0 -1-1h-4.921c-.09-.235-.187-.472-.294-.711l3.482-3.482a1 1 0 0 0 0-1.414l-5.66-5.66a1 1 0 0 0 -1.414 0l-3.482 3.482c-.239-.107-.476-.2-.711-.294v-4.921a1 1 0 0 0 -1-1h-8a1 1 0 0 0 -1 1v4.921c-.235.09-.472.187-.711.294l-3.482-3.482a1 1 0 0 0 -1.414 0l-5.66 5.66a1 1 0 0 0 0 1.414l3.482 3.482c-.107.239-.2.476-.294.711h-4.921a1 1 0 0 0 -1 1v8a1 1 0 0 0 1 1h4.921c.09.235.187.472.294.711l-3.482 3.482a1 1 0 0 0 0 1.414l5.66 5.66a1 1 0 0 0 1.414 0l3.482-3.482c.239.107.476.2.711.294v4.921a1 1 0 0 0 1 1h8a1 1 0 0 0 1-1v-4.921c.235-.09.472-.187.711-.294l3.482 3.482a1 1 0 0 0 1.414 0l5.66-5.66a1 1 0 0 0 0-1.414zm-6.367 4.953-3.273-3.273a1 1 0 0 0 -1.154-.187 12.323 12.323 0 0 1 -1.776.731 1 1 0 0 0 -.7.953v4.63h-5.997v-4.63a1 1 0 0 0 -.7-.953 12.323 12.323 0 0 1 -1.776-.731 1 1 0 0 0 -1.154.187l-3.27 3.273-4.246-4.246 3.273-3.273a1 1 0 0 0 .187-1.154 12.323 12.323 0 0 1 -.731-1.776 1 1 0 0 0 -.953-.7h-4.63v-5.997h4.63a1 1 0 0 0 .953-.7 12.323 12.323 0 0 1 .731-1.776 1 1 0 0 0 -.187-1.154l-3.273-3.27 4.246-4.246 3.273 3.273a1 1 0 0 0 1.154.187 12.323 12.323 0 0 1 1.776-.731 1 1 0 0 0 .7-.953v-4.63h6v4.63a1 1 0 0 0 .7.953 12.323 12.323 0 0 1 1.776.731 1 1 0 0 0 1.154-.187l3.267-3.273 4.246 4.246-3.273 3.273a1 1 0 0 0 -.187 1.154 12.323 12.323 0 0 1 .731 1.776 1 1 0 0 0 .953.7h4.63v6h-4.63a1 1 0 0 0 -.953.7 12.323 12.323 0 0 1 -.731 1.776 1 1 0 0 0 .187 1.154l3.273 3.267z"/><path d="m32 24a8 8 0 1 0 8 8 8.009 8.009 0 0 0 -8-8zm0 14a6 6 0 1 1 6-6 6.006 6.006 0 0 1 -6 6z"/><path d="m57 52a4.969 4.969 0 0 0 -2.753.833l-3.887-3.887a24.944 24.944 0 0 0 0-33.892l3.887-3.887a5.015 5.015 0 1 0 -1.414-1.414l-3.887 3.887a24.944 24.944 0 0 0 -33.892 0l-3.887-3.887a5.015 5.015 0 1 0 -1.414 1.414l3.887 3.887a24.944 24.944 0 0 0 0 33.892l-3.887 3.887a5.015 5.015 0 1 0 1.414 1.414l3.887-3.887a24.944 24.944 0 0 0 33.892 0l3.887 3.887a5 5 0 1 0 4.167-2.247zm0-48a3 3 0 1 1 -3 3 3 3 0 0 1 3-3zm-53 3a3 3 0 1 1 3 3 3 3 0 0 1 -3-3zm3 53a3 3 0 1 1 3-3 3 3 0 0 1 -3 3zm2-28a23 23 0 1 1 23 23 23.026 23.026 0 0 1 -23-23zm48 28a3 3 0 1 1 3-3 3 3 0 0 1 -3 3z"/><path d="m31 17h2v2h-2z"/><path d="m21.101 21.101h2v2h-2z" transform="matrix(.707 -.707 .707 .707 -9.154 22.101)"/><path d="m17 31h2v2h-2z"/><path d="m21.101 40.9h2v2h-2z" transform="matrix(.707 -.707 .707 .707 -23.154 27.9)"/><path d="m31 45h2v2h-2z"/><path d="m40.9 40.9h2v2h-2z" transform="matrix(.707 -.707 .707 .707 -17.355 41.899)"/><path d="m45 31h2v2h-2z"/><path d="m40.9 21.101h2v2h-2z" transform="matrix(.707 -.707 .707 .707 -3.355 36.1)"/></g></svg>