<svg height="512" viewBox="0 0 64 64" width="512" xmlns="http://www.w3.org/2000/svg"><g id="Engineering-2" data-name="Engineering"><path d="m12 28a1 1 0 0 1 -1-1 20.023 20.023 0 0 1 20-20 1 1 0 0 1 0 2 18.021 18.021 0 0 0 -18 18 1 1 0 0 1 -1 1z"/><path d="m47 23a6 6 0 1 1 6-6 6.006 6.006 0 0 1 -6 6zm0-10a4 4 0 1 0 4 4 4 4 0 0 0 -4-4z"/><path d="m40 62h-20a1 1 0 0 1 -1-1v-7a1 1 0 0 0 -1-1h-7a3 3 0 0 1 -3-3v-7h-5a1 1 0 0 1 -.97-1.243l3.893-15.569a2.927 2.927 0 0 0 .077-.65 24.01 24.01 0 0 1 26.733-23.387 23.756 23.756 0 0 1 3.527.666 1 1 0 0 1 -.52 1.932 21.444 21.444 0 0 0 -3.227-.609 22.008 22.008 0 0 0 -24.513 21.434 4.934 4.934 0 0 1 -.141 1.1l-3.578 14.326h4.719a1 1 0 0 1 1 1v8a1 1 0 0 0 1 1h7a3 3 0 0 1 3 3v6h18v-8.772a9 9 0 0 1 3.766-7.313 21.942 21.942 0 0 0 7.867-10.263 1 1 0 1 1 1.875.7 23.933 23.933 0 0 1 -8.581 11.2 7 7 0 0 0 -2.927 5.676v9.772a1 1 0 0 1 -1 1z"/><path d="m31 32h-6a1 1 0 0 0 -1 1v6a1 1 0 0 0 1 1h6a1 1 0 0 0 1-1v-6a1 1 0 0 0 -1-1zm-1 6h-4v-4h4z"/><path d="m39 33a1 1 0 0 0 0-2h-3a3 3 0 0 0 -3-3v-3a1 1 0 0 0 -2 0v3h-2v-3a1 1 0 0 0 -2 0v3h-2v-3a1 1 0 0 0 -2 0v3a3 3 0 0 0 -3 3h-3a1 1 0 0 0 0 2h3v2h-3a1 1 0 0 0 0 2h3v2h-3a1 1 0 0 0 0 2h3a3 3 0 0 0 3 3v3a1 1 0 0 0 2 0v-3h2v3a1 1 0 0 0 2 0v-3h2v3a1 1 0 0 0 2 0v-3a3 3 0 0 0 3-3h3a1 1 0 0 0 0-2h-3v-2h3a1 1 0 0 0 0-2h-3v-2zm-5 8a1 1 0 0 1 -1 1h-10a1 1 0 0 1 -1-1v-10a1 1 0 0 1 1-1h10a1 1 0 0 1 1 1z"/><path d="m61 13h-3.753c-.057-.144-.114-.283-.174-.419l2.654-2.654a1 1 0 0 0 0-1.414l-4.24-4.24a1 1 0 0 0 -1.414 0l-2.654 2.654c-.136-.059-.275-.117-.419-.174v-3.753a1 1 0 0 0 -1-1h-6a1 1 0 0 0 -1 1v3.753c-.144.057-.283.115-.419.174l-2.654-2.654a1.029 1.029 0 0 0 -1.414 0l-4.24 4.24a1 1 0 0 0 0 1.414l2.654 2.654c-.06.136-.117.275-.174.419h-3.753a1 1 0 0 0 -1 1v6a1 1 0 0 0 1 1h3.753c.057.144.114.283.174.418l-2.654 2.655a1 1 0 0 0 0 1.414l4.24 4.24a1 1 0 0 0 1.414 0l2.654-2.654c.136.059.275.117.419.174v3.753a1 1 0 0 0 1 1h6a1 1 0 0 0 1-1v-3.753c.144-.057.283-.115.419-.174l2.654 2.654a1.029 1.029 0 0 0 1.414 0l4.24-4.24a1 1 0 0 0 0-1.414l-2.654-2.655c.06-.135.117-.274.174-.418h3.753a1 1 0 0 0 1-1v-6a1 1 0 0 0 -1-1zm-1 6h-3.46a1 1 0 0 0 -.952.694 8.225 8.225 0 0 1 -.605 1.446 1 1 0 0 0 .17 1.187l2.452 2.453-2.825 2.826-2.453-2.453a1 1 0 0 0 -1.188-.17 8.112 8.112 0 0 1 -1.446.605 1 1 0 0 0 -.693.952v3.46h-4v-3.46a1 1 0 0 0 -.693-.952 8.112 8.112 0 0 1 -1.446-.605 1 1 0 0 0 -1.188.17l-2.453 2.453-2.82-2.826 2.452-2.453a1 1 0 0 0 .17-1.187 8.225 8.225 0 0 1 -.605-1.446 1 1 0 0 0 -.957-.694h-3.46v-4h3.46a1 1 0 0 0 .952-.694 8.225 8.225 0 0 1 .605-1.446 1 1 0 0 0 -.17-1.187l-2.447-2.453 2.82-2.826 2.453 2.453a1 1 0 0 0 1.188.17 8.112 8.112 0 0 1 1.446-.6 1 1 0 0 0 .693-.957v-3.46h4v3.46a1 1 0 0 0 .693.952 8.112 8.112 0 0 1 1.446.6 1 1 0 0 0 1.188-.17l2.453-2.448 2.825 2.826-2.452 2.453a1 1 0 0 0 -.17 1.187 8.225 8.225 0 0 1 .605 1.446 1 1 0 0 0 .952.694h3.46z"/><path d="m46 5h2v2h-2z"/><path d="m38.222 8.222h2v2h-2z" transform="matrix(.707 -.707 .707 .707 4.967 30.435)"/><path d="m35 16h2v2h-2z"/><path d="m38.222 23.778h2v2h-2z" transform="matrix(.707 -.707 .707 .707 -6.033 34.991)"/><path d="m46 27h2v2h-2z"/><path d="m53.778 23.778h2v2h-2z" transform="matrix(.707 -.707 .707 .707 -1.477 45.992)"/><path d="m57 16h2v2h-2z"/><path d="m53.778 8.222h2v2h-2z" transform="matrix(.707 -.707 .707 .707 9.523 41.435)"/></g></svg>