<?xml version="1.0"?>
<svg xmlns="http://www.w3.org/2000/svg" viewBox="0 0 64 64" width="512" height="512"><g id="Engineering-4" data-name="Engineering"><path d="M54.351,12H58a1,1,0,0,0,0-2H52a1,1,0,0,0-1,1v6a1,1,0,0,0,2,0V13.487A27.711,27.711,0,0,1,60,32,28,28,0,0,1,15.6,54.7a1,1,0,0,0-1.172,1.62A30,30,0,0,0,62,32,29.687,29.687,0,0,0,54.351,12Z"/><path d="M49.585,7.691A30,30,0,0,0,2,32,29.7,29.7,0,0,0,9.648,52H6a1,1,0,0,0,0,2h6a1,1,0,0,0,1-1V47a1,1,0,0,0-2,0v3.513A27.712,27.712,0,0,1,4,32,28,28,0,0,1,48.411,9.311a1,1,0,1,0,1.174-1.62Z"/><path d="M53,27H47.2a16.049,16.049,0,0,0-.92-2.208l4.105-4.105a1,1,0,0,0,0-1.414l-5.66-5.66a1.031,1.031,0,0,0-1.415,0l-4.1,4.105A15.843,15.843,0,0,0,37,16.8V11a1,1,0,0,0-1-1H28a1,1,0,0,0-1,1v5.8a15.977,15.977,0,0,0-2.208.92l-4.105-4.105a1,1,0,0,0-1.414,0l-5.66,5.66a1,1,0,0,0,0,1.414l4.105,4.105A15.977,15.977,0,0,0,16.8,27H11a1,1,0,0,0-1,1v8a1,1,0,0,0,1,1h5.8a15.977,15.977,0,0,0,.92,2.208l-4.105,4.105a1,1,0,0,0,0,1.414l5.66,5.66a1.029,1.029,0,0,0,1.414,0l4.105-4.105a15.9,15.9,0,0,0,2.208.9V53a5,5,0,0,0,10,0V47.181a15.84,15.84,0,0,0,2.207-.9l4.1,4.105a1,1,0,0,0,1.415,0l5.66-5.66a1,1,0,0,0,0-1.414l-4.105-4.105A16.049,16.049,0,0,0,47.2,37H53a1,1,0,0,0,1-1V28A1,1,0,0,0,53,27ZM31,28h2V40H31Zm5.046,12.009c-.016,0-.03-.009-.046-.009H35V28a1,1,0,0,0,.992-1.124l-.39-3.124a8.976,8.976,0,0,1,.444,16.257ZM33.867,26H30.133l.75-6h2.234ZM28.25,27.662A1,1,0,0,0,29,28V40H28c-.016,0-.029.008-.045.009A8.976,8.976,0,0,1,28.4,23.752l-.39,3.124A1,1,0,0,0,28.25,27.662ZM35,53a3,3,0,0,1-6,0V42h6ZM52,35H46.46a1,1,0,0,0-.964.735A13.961,13.961,0,0,1,44.18,38.9a1,1,0,0,0,.163,1.2l3.923,3.923L44.02,48.266,40.1,44.343a1,1,0,0,0-1.2-.163,14.04,14.04,0,0,1-1.9.879V41.788a10.984,10.984,0,0,0-1.677-20.263l-.331-2.649A1,1,0,0,0,34,18H30a1,1,0,0,0-.992.876l-.331,2.649A10.984,10.984,0,0,0,27,41.788v3.271a14.109,14.109,0,0,1-1.9-.879,1,1,0,0,0-1.2.163L19.98,48.266,15.734,44.02,19.657,40.1a1,1,0,0,0,.163-1.2A13.954,13.954,0,0,1,18.5,35.735,1,1,0,0,0,17.54,35H12V29h5.54a1,1,0,0,0,.964-.735A13.954,13.954,0,0,1,19.82,25.1a1,1,0,0,0-.163-1.2L15.734,19.98l4.246-4.246L23.9,19.657a1,1,0,0,0,1.2.163A13.954,13.954,0,0,1,28.265,18.5,1,1,0,0,0,29,17.54V12h6v5.54a1,1,0,0,0,.734.964A13.961,13.961,0,0,1,38.9,19.82a1,1,0,0,0,1.2-.163l3.923-3.923,4.246,4.246L44.343,23.9a1,1,0,0,0-.163,1.2A13.961,13.961,0,0,1,45.5,28.265,1,1,0,0,0,46.46,29H52Z"/></g></svg>
