<?xml version="1.0"?>
<svg xmlns="http://www.w3.org/2000/svg" viewBox="0 0 64 64" width="512" height="512"><g id="Programmer"><path d="M28,22a1,1,0,0,1-.707-.293l-2-2a1,1,0,0,1,0-1.414l2-2a1,1,0,0,1,1.414,1.414L27.414,19l1.293,1.293A1,1,0,0,1,28,22Z"/><path d="M36,22a1,1,0,0,1-.707-1.707L36.586,19l-1.293-1.293a1,1,0,0,1,1.414-1.414l2,2a1,1,0,0,1,0,1.414l-2,2A1,1,0,0,1,36,22Z"/><path d="M31,23a1,1,0,0,1-.949-1.316l2-6a1,1,0,1,1,1.9.632l-2,6A1,1,0,0,1,31,23Z"/><path d="M44,36H38V31.521A13,13,0,0,0,45,20V12.816A3,3,0,0,0,47,10V7a5.006,5.006,0,0,0-5-5H14a1,1,0,0,0-1,1V6a7,7,0,0,0,6,6.92V20a13,13,0,0,0,7,11.521V36H20A13.015,13.015,0,0,0,7,49V61a1,1,0,0,0,1,1H56a1,1,0,0,0,1-1V49A13.015,13.015,0,0,0,44,36Zm-5.281,2L37.39,43.319,33.7,40.636,37.325,38ZM34.84,43.938,33.465,46h-2.93l-1.374-2.062L32,41.873ZM28,36.491V32.364a12.9,12.9,0,0,0,8,0v4.127L32,39.4ZM15,6V4H42a3,3,0,0,1,3,3v3a1,1,0,0,1-1,1H37.974a9.924,9.924,0,0,0-11.949,0H20A5.006,5.006,0,0,1,15,6ZM40,19a8,8,0,1,1-8-8A8.009,8.009,0,0,1,40,19ZM21,20V13h3.019a10,10,0,1,0,15.962,0H43v7a11,11,0,0,1-22,0Zm5.675,18L30.3,40.636l-3.689,2.683L25.281,38ZM19,60V48a1,1,0,0,0-2,0V60H9V49A11.013,11.013,0,0,1,20,38h.187L24.77,60Zm8.133,0h-.32L22.23,38h.989l1.811,7.243a1,1,0,0,0,1.558.566l.954-.694,1.414,2.122Zm2.02,0,1.714-12h2.266l1.714,12Zm5.891-12.763,1.414-2.122.954.694a1,1,0,0,0,1.558-.566L40.781,38h.99L37.187,60h-.319ZM55,60H47V49a1,1,0,0,0-2,0V60H39.229l4.584-22H44A11.013,11.013,0,0,1,55,49Z"/></g></svg>
