<?xml version="1.0"?>
<svg xmlns="http://www.w3.org/2000/svg" viewBox="0 0 64 64" width="512" height="512"><g id="Factory"><path d="M55,50H49a1,1,0,0,1-1-1V43a1,1,0,0,1,1-1h6a1,1,0,0,1,1,1v6A1,1,0,0,1,55,50Zm-5-2h4V44H50Z"/><path d="M45,50H39a1,1,0,0,1-1-1V43a1,1,0,0,1,1-1h6a1,1,0,0,1,1,1v6A1,1,0,0,1,45,50Zm-5-2h4V44H40Z"/><path d="M13,16a1,1,0,0,1-1-1V12a5.006,5.006,0,0,1,5-5h6a3,3,0,0,0,3-3V3a1,1,0,0,1,2,0V4a5.006,5.006,0,0,1-5,5H17a3,3,0,0,0-3,3v3A1,1,0,0,1,13,16Z"/><path d="M17,16a1,1,0,0,1-1-1V14a3,3,0,0,1,3-3h6a5.006,5.006,0,0,0,5-5,1,1,0,0,1,2,0,7.008,7.008,0,0,1-7,7H19a1,1,0,0,0-1,1v1A1,1,0,0,1,17,16Z"/><path d="M52,24H48a1,1,0,0,1-1-1V21.244l-1.243,1.243a1,1,0,0,1-1.414,0l-2.83-2.83a1,1,0,0,1,0-1.414L42.756,17H41a1,1,0,0,1-1-1V12a1,1,0,0,1,1-1h1.756L41.513,9.757a1,1,0,0,1,0-1.414l2.83-2.83a1,1,0,0,1,1.414,0L47,6.756V5a1,1,0,0,1,1-1h4a1,1,0,0,1,1,1V6.756l1.243-1.243a1,1,0,0,1,1.414,0l2.83,2.83a1,1,0,0,1,0,1.414L57.244,11H59a1,1,0,0,1,1,1v4a1,1,0,0,1-1,1H57.244l1.243,1.243a1,1,0,0,1,0,1.414l-2.83,2.83a1,1,0,0,1-1.414,0L53,21.244V23A1,1,0,0,1,52,24Zm-3-2h2V19.65a1,1,0,0,1,.713-.958,2.306,2.306,0,0,0,.4-.168,1,1,0,0,1,1.171.179l1.663,1.663,1.416-1.416L54.7,17.287a1,1,0,0,1-.179-1.171,2.234,2.234,0,0,0,.169-.406A1,1,0,0,1,55.65,15H58V13H55.65a1,1,0,0,1-.957-.71,2.234,2.234,0,0,0-.169-.406,1,1,0,0,1,.179-1.171L56.366,9.05,54.95,7.634,53.287,9.3a1,1,0,0,1-1.171.179,2.306,2.306,0,0,0-.4-.168A1,1,0,0,1,51,8.35V6H49V8.35a1,1,0,0,1-.713.958,2.306,2.306,0,0,0-.4.168A1,1,0,0,1,46.713,9.3L45.05,7.634,43.634,9.05,45.3,10.713a1,1,0,0,1,.179,1.171,2.234,2.234,0,0,0-.169.406,1,1,0,0,1-.957.71H42v2h2.35a1,1,0,0,1,.957.71,2.234,2.234,0,0,0,.169.406,1,1,0,0,1-.179,1.171L43.634,18.95l1.416,1.416L46.713,18.7a1,1,0,0,1,1.171-.179,2.306,2.306,0,0,0,.4.168A1,1,0,0,1,49,19.65Z"/><path d="M50,18a4,4,0,1,1,4-4A4,4,0,0,1,50,18Zm0-6a2,2,0,1,0,2,2A2,2,0,0,0,50,12Z"/><path d="M61.464,26.114a1,1,0,0,0-1.033.064L49,34.091V27a1,1,0,0,0-1.569-.822L36,34.091V27a1,1,0,0,0-1.57-.821L23.155,34.011,20.99,18.859A1,1,0,0,0,20,18H10a1,1,0,0,0-.986.835l-7,42A1,1,0,0,0,3,62H61a1,1,0,0,0,1-1V27A1,1,0,0,0,61.464,26.114ZM9.847,26H19.99L23.7,52H5.514Zm9.286-6,.571,4H10.18l.667-4ZM5.181,54H23.988l.858,6H4.181ZM60,60H26.868l-3.4-23.774L34,28.912V36a1,1,0,0,0,1.569.822L47,28.909V36a1,1,0,0,0,1.569.822L60,28.909Z"/><path d="M35,42H29a1,1,0,0,0-1,1v6a1,1,0,0,0,1,1h6a1,1,0,0,0,1-1V43A1,1,0,0,0,35,42Zm-1,6H30V44h4Z"/></g></svg>
