<?xml version="1.0"?>
<svg xmlns="http://www.w3.org/2000/svg" viewBox="0 0 64 64" width="512" height="512"><g id="File"><path d="M49,20a5,5,0,1,1,5-5A5.006,5.006,0,0,1,49,20Zm0-8a3,3,0,1,0,3,3A3,3,0,0,0,49,12Z"/><path d="M19,39a1,1,0,0,1-1-1V33a1,1,0,0,1,2,0v5A1,1,0,0,1,19,39Z"/><path d="M33,23H22V22a1,1,0,0,0-1-1H17a1,1,0,0,0-1,1v4a1,1,0,0,0,1,1h1v2a1,1,0,0,0,2,0V27h1a1,1,0,0,0,1-1V25H33a1,1,0,0,0,0-2ZM20,25H18V23h2Z"/><path d="M39,25H37V22a1,1,0,0,0-2,0v4a1,1,0,0,0,1,1h2v9a1,1,0,0,0,2,0V26A1,1,0,0,0,39,25Z"/><path d="M29,55H21a1,1,0,0,0-1,1v1H18V56a1,1,0,0,0-1-1H10a1,1,0,0,0,0,2h6v1a1,1,0,0,0,1,1h4a1,1,0,0,0,1-1V57h7a1,1,0,0,0,0-2Z"/><path d="M61,12H57.489a8.97,8.97,0,0,0-.365-.879l2.483-2.484a1,1,0,0,0,0-1.414l-2.83-2.83a1,1,0,0,0-1.414,0L52.879,6.876A8.97,8.97,0,0,0,52,6.511V3a1,1,0,0,0-1-1H47a1,1,0,0,0-1,1V6.511a8.97,8.97,0,0,0-.879.365L42.637,4.393a1,1,0,0,0-1.414,0L38.616,7H19a1,1,0,0,0-.707.293l-10,10A1,1,0,0,0,8,18V47.311A13.986,13.986,0,0,0,5,56a3,3,0,0,0,0,6H33a3,3,0,0,0,2.816-2H49a1,1,0,0,0,1-1V28h1a1,1,0,0,0,1-1V23.489a8.97,8.97,0,0,0,.879-.365l2.484,2.483a1,1,0,0,0,1.414,0l2.83-2.83a1,1,0,0,0,0-1.414l-2.483-2.484A8.97,8.97,0,0,0,57.489,18H61a1,1,0,0,0,1-1V13A1,1,0,0,0,61,12ZM18,10.414V17H11.414ZM33,60H5a1,1,0,0,1,0-2,1,1,0,0,0,2,0V56a11.937,11.937,0,0,1,8-11.31V51a1,1,0,0,0,2,0V43a1,1,0,0,1,1-1h2a1,1,0,0,1,1,1v8a1,1,0,0,0,2,0V44.7A11.955,11.955,0,0,1,31,56v2a1,1,0,0,0,2,0,1,1,0,0,1,0,2Zm15-2H35.816A3,3,0,0,0,33,56,14,14,0,0,0,22.957,42.575,3,3,0,0,0,20,40H18A3,3,0,0,0,15.041,42.6,13.966,13.966,0,0,0,10,45.27V19h9a1,1,0,0,0,1-1V9H38.756l2.12,2.121a8.97,8.97,0,0,0-.365.879H37a1,1,0,0,0-1,1v4a1,1,0,0,0,1,1h3.511a8.97,8.97,0,0,0,.365.879l-2.483,2.484a1,1,0,0,0,0,1.414l2.83,2.83a1,1,0,0,0,1.414,0l2.484-2.483a8.97,8.97,0,0,0,.879.365V27a1,1,0,0,0,1,1h1ZM60,16H56.75a1,1,0,0,0-.968.748,6.736,6.736,0,0,1-.748,1.795,1,1,0,0,0,.149,1.224l2.3,2.3L56.07,23.486l-2.3-2.3a1,1,0,0,0-1.224-.149,6.736,6.736,0,0,1-1.8.748A1,1,0,0,0,50,22.75V26H48V22.75a1,1,0,0,0-.748-.968,6.736,6.736,0,0,1-1.8-.748,1,1,0,0,0-1.224.149l-2.3,2.3L40.514,22.07l2.3-2.3a1,1,0,0,0,.149-1.224,6.736,6.736,0,0,1-.748-1.795A1,1,0,0,0,41.25,16H38V14h3.25a1,1,0,0,0,.968-.748,6.736,6.736,0,0,1,.748-1.795,1,1,0,0,0-.149-1.224l-2.3-2.3L41.93,6.514l2.3,2.3a1,1,0,0,0,1.224.149,6.736,6.736,0,0,1,1.8-.748A1,1,0,0,0,48,7.25V4h2V7.25a1,1,0,0,0,.748.968,6.736,6.736,0,0,1,1.8.748,1,1,0,0,0,1.224-.149l2.3-2.3L57.486,7.93l-2.3,2.3a1,1,0,0,0-.149,1.224,6.736,6.736,0,0,1,.748,1.8A1,1,0,0,0,56.75,14H60Z"/><path d="M41,43H40V40a1,1,0,0,0-2,0v3H37a1,1,0,0,0-1,1v1H32a1,1,0,0,0,0,2h4v1a1,1,0,0,0,1,1h4a1,1,0,0,0,1-1V44A1,1,0,0,0,41,43Zm-1,4H38V45h2Z"/><path d="M32,38H26a1,1,0,0,1-1-1V31a1,1,0,0,1,1-1h6a1,1,0,0,1,1,1v6A1,1,0,0,1,32,38Zm-5-2h4V32H27Z"/></g></svg>
