<svg height="512" viewBox="0 0 64 64" width="512" xmlns="http://www.w3.org/2000/svg"><path d="m35 42h-6a1 1 0 0 1 -1-1v-3.753c-.144-.057-.283-.115-.419-.174l-2.654 2.654a1 1 0 0 1 -.707.293 1 1 0 0 1 -.707-.293l-4.24-4.24a1 1 0 0 1 0-1.414l2.654-2.655c-.06-.135-.117-.274-.174-.418h-3.753a1 1 0 0 1 -1-1v-6a1 1 0 0 1 1-1h3.753c.057-.144.114-.283.174-.419l-2.654-2.654a1 1 0 0 1 0-1.414l4.24-4.24a1.029 1.029 0 0 1 1.414 0l2.654 2.654c.136-.059.275-.117.419-.174v-3.753a1 1 0 0 1 1-1h6a1 1 0 0 1 1 1v3.753c.144.057.283.115.419.174l2.654-2.654a1 1 0 0 1 .707-.293 1 1 0 0 1 .707.293l4.24 4.24a1 1 0 0 1 0 1.414l-2.654 2.654c.06.136.117.275.174.419h3.753a1 1 0 0 1 1 1v6a1 1 0 0 1 -1 1h-3.753c-.057.144-.114.283-.174.418l2.654 2.655a1 1 0 0 1 0 1.414l-4.24 4.24a1.029 1.029 0 0 1 -1.414 0l-2.654-2.654c-.136.059-.275.117-.419.174v3.753a1 1 0 0 1 -1 1zm-5-2h4v-3.46a1 1 0 0 1 .693-.952 8.112 8.112 0 0 0 1.446-.605 1 1 0 0 1 1.188.17l2.453 2.453 2.825-2.826-2.452-2.453a1 1 0 0 1 -.17-1.187 8.225 8.225 0 0 0 .605-1.446 1 1 0 0 1 .952-.694h3.46v-4h-3.46a1 1 0 0 1 -.952-.694 8.225 8.225 0 0 0 -.605-1.446 1 1 0 0 1 .17-1.187l2.452-2.453-2.825-2.826-2.453 2.453a1 1 0 0 1 -1.188.17 8.112 8.112 0 0 0 -1.446-.605 1 1 0 0 1 -.693-.952v-3.46h-4v3.46a1 1 0 0 1 -.693.952 8.112 8.112 0 0 0 -1.446.605 1 1 0 0 1 -1.188-.17l-2.453-2.453-2.82 2.826 2.452 2.453a1 1 0 0 1 .17 1.187 8.225 8.225 0 0 0 -.605 1.446 1 1 0 0 1 -.957.694h-3.46v4h3.46a1 1 0 0 1 .952.694 8.225 8.225 0 0 0 .605 1.446 1 1 0 0 1 -.17 1.187l-2.447 2.453 2.825 2.826 2.453-2.453a1 1 0 0 1 1.188-.17 8.112 8.112 0 0 0 1.446.605 1 1 0 0 1 .688.952z"/><path d="m32 33a6 6 0 1 1 6-6 6.006 6.006 0 0 1 -6 6zm0-10a4 4 0 1 0 4 4 4 4 0 0 0 -4-4z"/><path d="m19.5 5.081h2v4h-2z" transform="matrix(.866 -.5 .5 .866 -.794 11.198)"/><path d="m31 2h2v4h-2z"/><path d="m11.081 13.5h2v4h-2z" transform="matrix(.5 -.866 .866 .5 -7.383 18.212)"/><path d="m7 26h4v2h-4z"/><path d="m10.082 37.5h4v2h-4z" transform="matrix(.866 -.5 .5 .866 -17.629 11.196)"/><path d="m18.5 45.919h4v2h-4z" transform="matrix(.5 -.866 .866 .5 -30.383 41.218)"/><path d="m42.5 44.919h2v4h-2z" transform="matrix(.866 -.5 .5 .866 -17.631 28.034)"/><path d="m50.918 36.5h2v4h-2z" transform="matrix(.5 -.866 .866 .5 -7.384 64.211)"/><path d="m53 26h4v2h-4z"/><path d="m49.919 14.5h4v2h-4z" transform="matrix(.866 -.5 .5 .866 -.795 28.031)"/><path d="m41.5 6.081h4v2h-4z" transform="matrix(.5 -.866 .866 .5 15.621 41.215)"/><path d="m38 50h-12v-1.676a5.026 5.026 0 0 0 -2.747-4.457 19 19 0 0 1 10.883-35.75 19.166 19.166 0 0 1 16.814 17.49 18.992 18.992 0 0 1 -10.35 18.334 4.918 4.918 0 0 0 -2.6 4.386zm-10.008-2h8.015a6.828 6.828 0 0 1 3.693-5.842 17 17 0 0 0 9.26-16.408 17.145 17.145 0 0 0 -15.041-15.645 17 17 0 0 0 -9.744 31.987 7.021 7.021 0 0 1 3.817 5.908z"/><path d="m38 56h-12v-5h12zm-10-2h8v-1h-8z"/><path d="m35 62h-6a3 3 0 0 1 -3-3v-2h12v2a3 3 0 0 1 -3 3zm-7-3a1 1 0 0 0 1 1h6a1 1 0 0 0 1-1z"/><path d="m31 15h2v2h-2z"/><path d="m23.222 18.222h2v2h-2z" transform="matrix(.707 -.707 .707 .707 -6.497 22.757)"/><path d="m20 26h2v2h-2z"/><path d="m23.222 33.778h2v2h-2z" transform="matrix(.707 -.707 .707 .707 -17.498 27.314)"/><path d="m31 37h2v2h-2z"/><path d="m38.778 33.778h2v2h-2z" transform="matrix(.707 -.707 .707 .707 -12.941 38.314)"/><path d="m42 26h2v2h-2z"/><path d="m38.778 18.222h2v2h-2z" transform="matrix(.707 -.707 .707 .707 -1.941 33.757)"/></svg>