<svg height="512" viewBox="0 0 64 64" width="512" xmlns="http://www.w3.org/2000/svg"><path d="m14 13h2v2h-2z"/><path d="m18 13h2v2h-2z"/><path d="m22 13h2v2h-2z"/><path d="m57 2h-50a5.006 5.006 0 0 0 -5 5v36a5.006 5.006 0 0 0 5 5h17v6h-10a4 4 0 0 0 0 8h36a4 4 0 0 0 0-8h-10v-6h17a5.006 5.006 0 0 0 5-5v-36a5.006 5.006 0 0 0 -5-5zm-5 56a2 2 0 0 1 -2 2h-36a2 2 0 0 1 0-4h36a2 2 0 0 1 2 2zm-14-4h-12v-6h12zm22-11a3 3 0 0 1 -3 3h-50a3 3 0 0 1 -3-3v-36a3 3 0 0 1 3-3h50a3 3 0 0 1 3 3z"/><path d="m57 6h-50a1 1 0 0 0 -1 1v34a1 1 0 0 0 1 1h50a1 1 0 0 0 1-1v-34a1 1 0 0 0 -1-1zm-33.353 26.063-2.253-2.253 1.416-1.416 2.253 2.253a1 1 0 0 0 1.278.114 9.684 9.684 0 0 1 3.837-1.6 1 1 0 0 0 .822-.981v-3.18h2v3.18a1 1 0 0 0 .822.984 9.684 9.684 0 0 1 3.837 1.6 1 1 0 0 0 1.278-.114l2.253-2.25 1.415 1.415-2.252 2.253a1 1 0 0 0 -.114 1.278 9.7 9.7 0 0 1 1.6 3.837 1 1 0 0 0 .981.817h3.18v2h-6.072a8 8 0 1 0 -15.856 0h-6.072v-2h3.18a1 1 0 0 0 .984-.822 9.684 9.684 0 0 1 1.6-3.837 1 1 0 0 0 -.117-1.278zm2.443 7.937a6.126 6.126 0 0 1 -.09-1 6 6 0 1 1 11.91 1zm21.91 0v-3a1 1 0 0 0 -1-1h-3.375a11.591 11.591 0 0 0 -1.288-3.093l2.39-2.39a1 1 0 0 0 0-1.414l-2.83-2.83a1 1 0 0 0 -1.414 0l-2.389 2.389a11.627 11.627 0 0 0 -3.094-1.287v-3.375a1 1 0 0 0 -1-1h-4a1 1 0 0 0 -1 1v3.375a11.588 11.588 0 0 0 -3.093 1.287l-2.39-2.389a1 1 0 0 0 -1.414 0l-2.83 2.83a1 1 0 0 0 0 1.414l2.389 2.39a11.588 11.588 0 0 0 -1.287 3.093h-3.375a1 1 0 0 0 -1 1v3h-4v-22h40v22zm4-24h-40v-4h40zm4 24h-2v-30h-44v30h-2v-32h48z"/><path d="m46 24h2v2h-2z"/><path d="m46 20h2v2h-2z"/><path d="m48 22h2v2h-2z"/><path d="m44 22h2v2h-2z"/><path d="m16 24h2v2h-2z"/><path d="m16 20h2v2h-2z"/><path d="m14 22h2v2h-2z"/><path d="m18 22h2v2h-2z"/></svg>