<svg height="512" viewBox="0 0 64 64" width="512" xmlns="http://www.w3.org/2000/svg"><path d="m61 27h-5.926l4.193-4.193a1 1 0 0 0 0-1.414l-5.66-5.66a1.029 1.029 0 0 0 -1.414 0l-4.193 4.193v-5.926a1 1 0 0 0 -1-1h-7v-6a5.006 5.006 0 0 0 -5-5h-28a5.006 5.006 0 0 0 -5 5v50a5.006 5.006 0 0 0 5 5h28a5.006 5.006 0 0 0 5-5v-6h7a1 1 0 0 0 1-1v-5.926l4.193 4.193a1 1 0 0 0 1.414 0l5.66-5.66a1 1 0 0 0 0-1.414l-4.193-4.193h5.926a1 1 0 0 0 1-1v-8a1 1 0 0 0 -1-1zm-21 2.391a4 4 0 1 1 0 5.218zm-9-25.391v1a1 1 0 0 1 -1 1h-18a1 1 0 0 1 -1-1v-1zm-24.224 20.2a8.071 8.071 0 0 1 2.48 1.031 1 1 0 0 0 1.241-.139l2.283-2.292 1.42 1.42-2.287 2.28a1 1 0 0 0 -.139 1.241 8.071 8.071 0 0 1 1.031 2.48 1 1 0 0 0 .975.779h3.22v2h-3.22a1 1 0 0 0 -.975.776 8.071 8.071 0 0 1 -1.031 2.48 1 1 0 0 0 .139 1.241l2.287 2.283-1.42 1.42-2.28-2.287a1 1 0 0 0 -1.241-.139 8.071 8.071 0 0 1 -2.48 1.031 1 1 0 0 0 -.779.975v3.22h-2v-7.114a4.874 4.874 0 0 0 1 .114 5 5 0 0 0 0-10 4.874 4.874 0 0 0 -1 .114v-7.114h2v3.22a1 1 0 0 0 .776.98zm-2.776 5a2.926 2.926 0 0 1 1-.2 3 3 0 0 1 0 6 2.926 2.926 0 0 1 -1-.2zm34 27.8a3 3 0 0 1 -3 3h-28a3 3 0 0 1 -3-3v-11h3a1 1 0 0 0 1-1v-3.457a9.991 9.991 0 0 0 1.625-.674l2.448 2.448a1 1 0 0 0 1.414 0l2.83-2.83a1 1 0 0 0 0-1.414l-2.448-2.448a9.991 9.991 0 0 0 .674-1.625h3.457a1 1 0 0 0 1-1v-4a1 1 0 0 0 -1-1h-3.457a9.991 9.991 0 0 0 -.674-1.625l2.448-2.448a1 1 0 0 0 0-1.414l-2.83-2.83a1 1 0 0 0 -1.414 0l-2.448 2.448a9.991 9.991 0 0 0 -1.625-.674v-3.457a1 1 0 0 0 -1-1h-3v-11a3 3 0 0 1 3-3h2v1a3 3 0 0 0 3 3h18a3 3 0 0 0 3-3v-1h2a3 3 0 0 1 3 3zm22-22h-5.69a1 1 0 0 0 -.951.691 8.944 8.944 0 0 1 -.423 1.061 1 1 0 0 0 .2 1.135l4.01 4.013-4.246 4.246-4.013-4.013a1 1 0 0 0 -1.135-.2 8.944 8.944 0 0 1 -1.061.423 1 1 0 0 0 -.691.954v5.69h-6v-11.82a6 6 0 1 0 0-10.36v-11.82h6v5.69a1 1 0 0 0 .691.951 8.944 8.944 0 0 1 1.061.423 1 1 0 0 0 1.135-.2l4.013-4.01 4.246 4.246-4.013 4.013a1 1 0 0 0 -.2 1.135 8.944 8.944 0 0 1 .423 1.061 1 1 0 0 0 .954.691h5.69z"/><path d="m24 31h2v2h-2z"/><path d="m32 31h2v2h-2z"/><path d="m21 52a3 3 0 1 0 3 3 3 3 0 0 0 -3-3zm0 4a1 1 0 1 1 1-1 1 1 0 0 1 -1 1z"/><path d="m26 54h6v2h-6z"/><path d="m10 54h6v2h-6z"/><path d="m56 31h2v2h-2z"/><path d="m51.9 21.101h2v2h-2z" transform="matrix(.707 -.707 .707 .707 -.134 43.879)"/><path d="m42 17h2v2h-2z"/><path d="m28 31h2v2h-2z"/><path d="m42 45h2v2h-2z"/><path d="m52.6 41.672h1.999v2h-1.999z" transform="matrix(.672 -.741 .741 .672 -14.013 53.728)"/></svg>