<?xml version="1.0"?>
<svg xmlns="http://www.w3.org/2000/svg" viewBox="0 0 64 64" width="512" height="512"><g id="Floder"><path d="M47,62H39a1,1,0,0,1-1-1V56.079c-.235-.09-.472-.187-.711-.294l-3.482,3.482a1,1,0,0,1-1.414,0l-5.66-5.66a1,1,0,0,1,0-1.414l3.482-3.482c-.107-.239-.2-.476-.294-.711H25a1,1,0,0,1-1-1V39a1,1,0,0,1,1-1h4.921c.09-.235.187-.472.294-.711l-3.482-3.482a1,1,0,0,1,0-1.414l5.66-5.66a1,1,0,0,1,1.414,0l3.482,3.482c.239-.107.476-.2.711-.294V25a1,1,0,0,1,1-1h8a1,1,0,0,1,1,1v4.921c.235.09.472.187.711.294l3.482-3.482a1,1,0,0,1,1.414,0l5.66,5.66a1,1,0,0,1,0,1.414l-3.482,3.482c.107.239.2.476.294.711H61a1,1,0,0,1,1,1v8a1,1,0,0,1-1,1H56.079c-.09.235-.187.472-.294.711l3.482,3.482a1,1,0,0,1,0,1.414l-5.66,5.66a1,1,0,0,1-1.414,0l-3.482-3.482c-.239.107-.476.2-.711.294V61A1,1,0,0,1,47,62Zm-7-2h6V55.37a1,1,0,0,1,.7-.953,12.323,12.323,0,0,0,1.776-.731,1,1,0,0,1,1.154.187L52.9,57.146,57.146,52.9l-3.273-3.273a1,1,0,0,1-.187-1.154,12.323,12.323,0,0,0,.731-1.776,1,1,0,0,1,.953-.7H60V40H55.37a1,1,0,0,1-.953-.7,12.323,12.323,0,0,0-.731-1.776,1,1,0,0,1,.187-1.154L57.146,33.1,52.9,28.854l-3.273,3.273a1,1,0,0,1-1.154.187,12.323,12.323,0,0,0-1.776-.731,1,1,0,0,1-.7-.953V26H40v4.63a1,1,0,0,1-.7.953,12.323,12.323,0,0,0-1.776.731,1,1,0,0,1-1.154-.187L33.1,28.854,28.854,33.1l3.273,3.273a1,1,0,0,1,.187,1.154,12.323,12.323,0,0,0-.731,1.776,1,1,0,0,1-.953.7H26v6h4.63a1,1,0,0,1,.953.7,12.323,12.323,0,0,0,.731,1.776,1,1,0,0,1-.187,1.154L28.854,52.9,33.1,57.146l3.273-3.273a1,1,0,0,1,1.154-.187,12.323,12.323,0,0,0,1.776.731,1,1,0,0,1,.7.953Z"/><path d="M43,51a8,8,0,1,1,8-8A8.009,8.009,0,0,1,43,51Zm0-14a6,6,0,1,0,6,6A6.006,6.006,0,0,0,43,37Z"/><path d="M57,20H54V3a1,1,0,0,0-1-1H7A1,1,0,0,0,6,3V13H3a1,1,0,0,0-1,1V57a1,1,0,0,0,1,1H27a1,1,0,0,0,0-2H4V15H17.42l3.712,6.5A1,1,0,0,0,22,22H56v4a1,1,0,0,0,2,0V21A1,1,0,0,0,57,20ZM8,4h8v9H8ZM22.58,20l-3.712-6.5A1,1,0,0,0,18,13V4h8V20H22.58ZM28,20V4H52V20Z"/><path d="M49,10H31a1,1,0,0,0-1,1v6a1,1,0,0,0,1,1H49a1,1,0,0,0,1-1V11A1,1,0,0,0,49,10Zm-1,6H32V12H48Z"/><path d="M12,5a3,3,0,1,0,3,3A3,3,0,0,0,12,5Zm0,4a1,1,0,1,1,1-1A1,1,0,0,1,12,9Z"/><path d="M22,5a3,3,0,1,0,3,3A3,3,0,0,0,22,5Zm0,4a1,1,0,1,1,1-1A1,1,0,0,1,22,9Z"/></g></svg>
