<svg height="512" viewBox="0 0 64 64" width="512" xmlns="http://www.w3.org/2000/svg"><path d="m38 62h-12a1 1 0 0 1 -1-1v-7.087a22.473 22.473 0 0 1 -3.54-1.469l-5.013 5.013a1 1 0 0 1 -1.414 0l-8.49-8.49a1 1 0 0 1 0-1.414l5.013-5.013a22.473 22.473 0 0 1 -1.469-3.54h-7.087a1 1 0 0 1 -1-1v-12a1 1 0 0 1 1-1h7.087a22.523 22.523 0 0 1 1.469-3.541l-5.013-5.012a1 1 0 0 1 0-1.414l8.49-8.49a1 1 0 0 1 1.414 0l5.013 5.013a22.473 22.473 0 0 1 3.54-1.469v-7.087a1 1 0 0 1 1-1h12a1 1 0 0 1 1 1v7.087a22.473 22.473 0 0 1 3.54 1.469l5.013-5.013a1 1 0 0 1 1.414 0l8.49 8.49a1 1 0 0 1 0 1.414l-5.013 5.012a22.523 22.523 0 0 1 1.469 3.541h7.087a1 1 0 0 1 1 1v12a1 1 0 0 1 -1 1h-7.087a22.473 22.473 0 0 1 -1.469 3.54l5.013 5.013a1 1 0 0 1 0 1.414l-8.49 8.49a1 1 0 0 1 -1.414 0l-5.013-5.013a22.473 22.473 0 0 1 -3.54 1.469v7.087a1 1 0 0 1 -1 1zm-11-2h10v-6.83a1 1 0 0 1 .728-.962 20.525 20.525 0 0 0 4.5-1.869 1 1 0 0 1 1.2.164l4.833 4.833 7.076-7.076-4.837-4.833a1 1 0 0 1 -.164-1.2 20.525 20.525 0 0 0 1.869-4.5 1 1 0 0 1 .965-.727h6.83v-10h-6.83a1 1 0 0 1 -.962-.728 20.553 20.553 0 0 0 -1.869-4.5 1 1 0 0 1 .164-1.2l4.833-4.833-7.076-7.075-4.833 4.836a1 1 0 0 1 -1.2.164 20.525 20.525 0 0 0 -4.5-1.869 1 1 0 0 1 -.727-.965v-6.83h-10v6.83a1 1 0 0 1 -.728.962 20.5 20.5 0 0 0 -4.5 1.869 1 1 0 0 1 -1.2-.164l-4.832-4.833-7.076 7.076 4.836 4.833a1 1 0 0 1 .164 1.2 20.553 20.553 0 0 0 -1.869 4.5 1 1 0 0 1 -.965.727h-6.83v10h6.83a1 1 0 0 1 .962.728 20.525 20.525 0 0 0 1.869 4.5 1 1 0 0 1 -.164 1.2l-4.833 4.832 7.076 7.076 4.833-4.836a1 1 0 0 1 1.2-.164 20.5 20.5 0 0 0 4.5 1.869 1 1 0 0 1 .727.965z"/><path d="m47 31a1 1 0 0 0 0-2h-3v-2h3a1 1 0 0 0 0-2h-3v-2a3 3 0 0 0 -3-3h-2v-3a1 1 0 0 0 -2 0v3h-2v-3a1 1 0 0 0 -2 0v3h-2v-3a1 1 0 0 0 -2 0v3h-2v-3a1 1 0 0 0 -2 0v3h-2a3 3 0 0 0 -3 3v2h-3a1 1 0 0 0 0 2h3v2h-3a1 1 0 0 0 0 2h3v2h-3a1 1 0 0 0 0 2h3v2h-3a1 1 0 0 0 0 2h3v2a3 3 0 0 0 3 3h2v3a1 1 0 0 0 2 0v-3h2v3a1 1 0 0 0 2 0v-3h2v3a1 1 0 0 0 2 0v-3h2v3a1 1 0 0 0 2 0v-3h2a3 3 0 0 0 3-3v-2h3a1 1 0 0 0 0-2h-3v-2h3a1 1 0 0 0 0-2h-3v-2zm-5 10a1 1 0 0 1 -1 1h-18a1 1 0 0 1 -1-1v-18a1 1 0 0 1 1-1h18a1 1 0 0 1 1 1z"/><path d="m39 24h-14a1 1 0 0 0 -1 1v14a1 1 0 0 0 1 1h14a1 1 0 0 0 1-1v-14a1 1 0 0 0 -1-1zm-1 14h-12v-12h12z"/><path d="m32 37a1 1 0 0 0 1-1v-4a1 1 0 0 0 -2 0v4a1 1 0 0 0 1 1z"/><path d="m32 30a1 1 0 0 0 1-1v-1a1 1 0 0 0 -2 0v1a1 1 0 0 0 1 1z"/><path d="m31 6h2v2h-2z"/><path d="m13.322 13.322h2v2h-2z" transform="matrix(.707 -.707 .707 .707 -5.932 14.322)"/><path d="m6 31h2v2h-2z"/><path d="m13.322 48.678h2v2h-2z" transform="matrix(.707 -.707 .707 .707 -30.933 24.678)"/><path d="m31 56h2v2h-2z"/><path d="m48.678 48.678h2v2h-2z" transform="matrix(.707 -.707 .707 .707 -20.577 49.678)"/><path d="m56 31h2v2h-2z"/><path d="m48.678 13.322h2v2h-2z" transform="matrix(.707 -.707 .707 .707 4.423 39.322)"/></svg>