<svg height="512" viewBox="0 0 64 64" width="512" xmlns="http://www.w3.org/2000/svg"><g id="Source_code-2" data-name="Source code"><path d="m12 17h2v2h-2z"/><path d="m16 17h2v2h-2z"/><path d="m20 17h2v2h-2z"/><path d="m61 52h-1v-37a5.006 5.006 0 0 0 -5-5h-46a5.006 5.006 0 0 0 -5 5v37h-1a1 1 0 0 0 -1 1v4a5.006 5.006 0 0 0 5 5h50a5.006 5.006 0 0 0 5-5v-4a1 1 0 0 0 -1-1zm-55-37a3 3 0 0 1 3-3h46a3 3 0 0 1 3 3v37h-52zm21 39h10v1a1 1 0 0 1 -1 1h-8a1 1 0 0 1 -1-1zm33 3a3 3 0 0 1 -3 3h-50a3 3 0 0 1 -3-3v-3h21v1a3 3 0 0 0 3 3h8a3 3 0 0 0 3-3v-1h21z"/><path d="m55 14h-46a1 1 0 0 0 -1 1v34a1 1 0 0 0 1 1h46a1 1 0 0 0 1-1v-34a1 1 0 0 0 -1-1zm-1 2v4h-44v-4zm-44 32v-26h44v26z"/><path d="m15 44a1 1 0 0 1 -1-1v-16a1 1 0 0 1 2 0v16a1 1 0 0 1 -1 1z"/><path d="m22 31a1 1 0 0 1 -.554-.168l-3-2a1 1 0 0 1 0-1.664l3-2a1 1 0 1 1 1.11 1.664l-1.756 1.168 1.752 1.168a1 1 0 0 1 -.552 1.832z"/><path d="m30 31a1 1 0 0 1 -.556-1.832l1.756-1.168-1.752-1.168a1 1 0 1 1 1.11-1.664l3 2a1 1 0 0 1 0 1.664l-3 2a1 1 0 0 1 -.558.168z"/><path d="m25 32a1 1 0 0 1 -.948-1.316l2-6a1 1 0 1 1 1.9.632l-2 6a1 1 0 0 1 -.952.684z"/><path d="m19 33h6v2h-6z"/><path d="m27 33h2v2h-2z"/><path d="m23 36h12v2h-12z"/><path d="m41 36h9v2h-9z"/><path d="m23 39h2v2h-2z"/><path d="m27 39h12v2h-12z"/><path d="m41 39h4v2h-4z"/><path d="m19 42h6v2h-6z"/><path d="m27 42h2v2h-2z"/><path d="m37 36h2v2h-2z"/></g></svg>