<svg height="512" viewBox="0 0 64 64" width="512" xmlns="http://www.w3.org/2000/svg"><g id="Source_code-3" data-name="Source code"><path d="m61.848 42.47-5-8a1 1 0 0 0 -.848-.47h-20a1 1 0 0 0 -.848.47l-5 8a1 1 0 0 0 .079 1.17l15 18a1 1 0 0 0 1.538 0l15-18a1 1 0 0 0 .079-1.17zm-20.048-.47 3.7-5.914 3.7 5.914zm7.88 2-3.68 13.263-3.684-13.263zm-1.88-8h6.4l-3.2 5.114zm-7.3 4.314-2.7-4.314h5.4zm-1.3 1.686h-6.4l3.2-5.113zm1.044 2 3.552 12.788-10.661-12.788zm11.52 0h7.105l-10.661 12.788zm1.036-2 3.2-5.113 3.2 5.113z"/><path d="m55 2h-48a5.006 5.006 0 0 0 -5 5v48a5.006 5.006 0 0 0 5 5h31a1 1 0 0 0 0-2h-31a3 3 0 0 1 -3-3v-43h54v21a1 1 0 0 0 2 0v-26a5.006 5.006 0 0 0 -5-5zm-51 8v-3a3 3 0 0 1 3-3h48a3 3 0 0 1 3 3v3z"/><path d="m6 6h2v2h-2z"/><path d="m10 6h2v2h-2z"/><path d="m14 6h2v2h-2z"/><path d="m9 54a1 1 0 0 1 -1-1v-36a1 1 0 0 1 2 0v36a1 1 0 0 1 -1 1z"/><path d="m16 24a1 1 0 0 1 -.707-.293l-3-3a1 1 0 0 1 0-1.414l3-3a1 1 0 0 1 1.414 1.414l-2.293 2.293 2.293 2.293a1 1 0 0 1 -.707 1.707z"/><path d="m24 24a1 1 0 0 1 -.707-1.707l2.293-2.293-2.293-2.293a1 1 0 0 1 1.414-1.414l3 3a1 1 0 0 1 0 1.414l-3 3a1 1 0 0 1 -.707.293z"/><path d="m19 25a.968.968 0 0 1 -.243-.03 1 1 0 0 1 -.728-1.213l2-8a1 1 0 0 1 1.94.486l-2 8a1 1 0 0 1 -.969.757z"/><path d="m12 27h4v2h-4z"/><path d="m18 27h6v2h-6z"/><path d="m16 31h11v2h-11z"/><path d="m29 31h2v2h-2z"/><path d="m16 35h2v2h-2z"/><path d="m20 35h4v2h-4z"/><path d="m26 35h5v2h-5z"/><path d="m12 39h4v2h-4z"/><path d="m18 39h6v2h-6z"/><path d="m16 43h8v2h-8z"/><path d="m26 43h2v2h-2z"/><path d="m16 47h11v2h-11z"/><path d="m29 47h2v2h-2z"/><path d="m12 52h4v2h-4z"/><path d="m18 52h6v2h-6z"/></g></svg>