<svg height="512" viewBox="0 0 64 64" width="512" xmlns="http://www.w3.org/2000/svg"><path d="m60 52v-31a3 3 0 0 0 -3-3h-1v-7a3 3 0 0 0 -3-3h-42a3 3 0 0 0 -3 3v7h-1a3 3 0 0 0 -3 3v31h-2v5a5.006 5.006 0 0 0 5 5h50a5.006 5.006 0 0 0 5-5v-5zm-50-41a1 1 0 0 1 1-1h42a1 1 0 0 1 1 1v3h-44zm44 5v30h-2v-7a1 1 0 0 0 -1-1h-4.856a15.2 15.2 0 0 0 -.606-1.465l3.43-3.439a1 1 0 0 0 0-1.413l-5.65-5.65a1 1 0 0 0 -1.413 0l-3.439 3.43a15.2 15.2 0 0 0 -1.466-.607v-4.856a1 1 0 0 0 -1-1h-8a1 1 0 0 0 -1 1v4.856a15.2 15.2 0 0 0 -1.465.606l-3.435-3.43a1 1 0 0 0 -1.413 0l-5.65 5.65a1 1 0 0 0 0 1.413l3.43 3.439a15.2 15.2 0 0 0 -.611 1.466h-4.856a1 1 0 0 0 -1 1v7h-2v-30zm-13.535 30a9 9 0 1 0 -16.93 0h-9.535v-6h4.58a1 1 0 0 0 .958-.712 13.459 13.459 0 0 1 1.024-2.476 1 1 0 0 0 -.174-1.178l-3.234-3.243 4.237-4.237 3.243 3.234a1 1 0 0 0 1.178.174 13.459 13.459 0 0 1 2.476-1.024 1 1 0 0 0 .712-.958v-4.58h6v4.58a1 1 0 0 0 .712.958 13.459 13.459 0 0 1 2.476 1.024 1 1 0 0 0 1.178-.174l3.243-3.234 4.237 4.237-3.234 3.243a1 1 0 0 0 -.174 1.178 13.459 13.459 0 0 1 1.024 2.476 1 1 0 0 0 .958.712h4.58v6zm-14.765 0a6.9 6.9 0 0 1 -.7-3 7 7 0 0 1 14 0 6.9 6.9 0 0 1 -.7 3zm-19.7-25a1 1 0 0 1 1-1h1v28h48v-28h1a1 1 0 0 1 1 1v31h-52zm21 33h10v1a1 1 0 0 1 -1 1h-8a1 1 0 0 1 -1-1zm33 3a3 3 0 0 1 -3 3h-50a3 3 0 0 1 -3-3v-3h21v1a3 3 0 0 0 3 3h8a3 3 0 0 0 3-3v-1h21z"/><path d="m12 11h2v2h-2z"/><path d="m16 11h2v2h-2z"/><path d="m20 11h2v2h-2z"/><path d="m31 27h2v2h-2z"/><path d="m20.394 31.394h2v2h-2z" transform="matrix(.707 -.707 .707 .707 -16.64 24.615)"/><path d="m16 42h2v2h-2z"/><path d="m46 42h2v2h-2z"/><path d="m41.607 31.394h2v2h-2z" transform="matrix(.707 -.707 .707 .707 -10.427 39.615)"/></svg>