<svg height="512" viewBox="0 0 64 64" width="512" xmlns="http://www.w3.org/2000/svg"><path d="m42 62h-20a1 1 0 0 1 -1-1v-7a1 1 0 0 0 -1-1h-7a3 3 0 0 1 -3-3v-7h-5a1 1 0 0 1 -.97-1.243l3.892-15.569a2.908 2.908 0 0 0 .078-.653 24 24 0 0 1 47.808-2.569 24.074 24.074 0 0 1 -9.885 22.577 7 7 0 0 0 -2.923 5.685v9.772a1 1 0 0 1 -1 1zm-19-2h18v-8.772a9 9 0 0 1 3.766-7.313 22.08 22.08 0 0 0 9.062-20.7 22.074 22.074 0 0 0 -19.315-19.075 22.009 22.009 0 0 0 -24.513 21.434 4.916 4.916 0 0 1 -.141 1.1l-3.578 14.326h4.719a1 1 0 0 1 1 1v8a1 1 0 0 0 1 1h7a3 3 0 0 1 3 3z"/><path d="m35 40h-6a1 1 0 0 1 -1-1v-3.753c-.144-.057-.283-.114-.419-.174l-2.654 2.654a1 1 0 0 1 -.707.293 1 1 0 0 1 -.707-.293l-4.24-4.24a1 1 0 0 1 0-1.414l2.654-2.654c-.06-.136-.117-.275-.174-.419h-3.753a1 1 0 0 1 -1-1v-6a1 1 0 0 1 1-1h3.753c.057-.144.114-.283.174-.419l-2.654-2.654a1 1 0 0 1 0-1.414l4.24-4.24a1 1 0 0 1 1.414 0l2.654 2.654c.136-.06.275-.117.419-.174v-3.753a1 1 0 0 1 1-1h6a1 1 0 0 1 1 1v3.753c.144.057.283.115.419.174l2.654-2.654a1 1 0 0 1 .707-.293 1 1 0 0 1 .707.293l4.24 4.24a1 1 0 0 1 0 1.414l-2.654 2.654c.06.136.117.275.174.419h3.753a1 1 0 0 1 1 1v6a1 1 0 0 1 -1 1h-3.753c-.057.144-.114.283-.174.418l2.654 2.655a1 1 0 0 1 0 1.414l-4.24 4.24a1.029 1.029 0 0 1 -1.414 0l-2.654-2.654c-.136.059-.275.117-.419.174v3.753a1 1 0 0 1 -1 1zm-5-2h4v-3.46a1 1 0 0 1 .693-.952 8.112 8.112 0 0 0 1.446-.605 1 1 0 0 1 1.188.17l2.453 2.453 2.825-2.826-2.452-2.453a1 1 0 0 1 -.17-1.187 8.225 8.225 0 0 0 .605-1.446 1 1 0 0 1 .952-.694h3.46v-4h-3.46a1 1 0 0 1 -.952-.694 8.225 8.225 0 0 0 -.605-1.446 1 1 0 0 1 .17-1.187l2.452-2.453-2.825-2.826-2.453 2.453a1 1 0 0 1 -1.188.17 8.112 8.112 0 0 0 -1.446-.605 1 1 0 0 1 -.693-.952v-3.46h-4v3.46a1 1 0 0 1 -.694.952 8.259 8.259 0 0 0 -1.445.605 1 1 0 0 1 -1.188-.17l-2.453-2.453-2.826 2.826 2.453 2.453a1 1 0 0 1 .17 1.188 8.259 8.259 0 0 0 -.605 1.445 1 1 0 0 1 -.952.694h-3.46v4h3.46a1 1 0 0 1 .952.694 8.259 8.259 0 0 0 .605 1.445 1 1 0 0 1 -.17 1.188l-2.453 2.453 2.826 2.826 2.453-2.453a1 1 0 0 1 1.188-.17 8.259 8.259 0 0 0 1.445.605 1 1 0 0 1 .694.952z"/><path d="m32 30a5 5 0 1 1 5-5 5.006 5.006 0 0 1 -5 5zm0-8a3 3 0 1 0 3 3 3 3 0 0 0 -3-3z"/><path d="m32 44a19.021 19.021 0 0 1 -19-19 1 1 0 0 1 2 0 17.019 17.019 0 0 0 17 17 1 1 0 0 1 0 2z"/><path d="m50 26a1 1 0 0 1 -1-1 17.019 17.019 0 0 0 -17-17 1 1 0 0 1 0-2 19.021 19.021 0 0 1 19 19 1 1 0 0 1 -1 1z"/><path d="m31 13h2v2h-2z"/><path d="m23.222 16.222h2v2h-2z" transform="matrix(.707 -.707 .707 .707 -5.083 22.171)"/><path d="m20 24h2v2h-2z"/><path d="m23.222 31.778h2v2h-2z" transform="matrix(.707 -.707 .707 .707 -16.083 26.728)"/><path d="m31 35h2v2h-2z"/><path d="m38.778 31.778h2v2h-2z" transform="matrix(.707 -.707 .707 .707 -11.527 37.728)"/><path d="m42 24h2v2h-2z"/><path d="m38.778 16.222h2v2h-2z" transform="matrix(.707 -.707 .707 .707 -.527 33.172)"/></svg>