<?xml version="1.0"?>
<svg xmlns="http://www.w3.org/2000/svg" viewBox="0 0 64 64" width="512" height="512"><g id="Thinking"><path d="M57.812,26.968A23.985,23.985,0,0,0,41.825,7.313a9.966,9.966,0,0,0-5.493-4.736A1,1,0,0,0,35,3.52V6.041A23.087,23.087,0,0,0,31,6.2V3.52a1,1,0,0,0-1.332-.943A9.981,9.981,0,0,0,23.7,8.337,24.113,24.113,0,0,0,10,29.55a2.731,2.731,0,0,1-.08.638L6.03,45.758A1,1,0,0,0,7,47h5v5a3,3,0,0,0,3,3h7a1,1,0,0,1,1,1v5a1,1,0,0,0,1,1H44a1,1,0,0,0,1-1V55.23a7,7,0,0,1,2.931-5.686A24.089,24.089,0,0,0,57.812,26.968ZM43.681,23.539a11.409,11.409,0,0,1,.736,1.764,1,1,0,0,0,.953.7H48v6H45.37a1,1,0,0,0-.953.7,11.409,11.409,0,0,1-.736,1.764,1,1,0,0,0,.182,1.166l1.863,1.863L41.49,41.726l-1.863-1.863a1,1,0,0,0-1.166-.182,11.409,11.409,0,0,1-1.764.736,1,1,0,0,0-.7.953V44H30V41.37a1,1,0,0,0-.7-.953,11.409,11.409,0,0,1-1.764-.736,1,1,0,0,0-1.166.182L24.51,41.726,20.274,37.49l1.863-1.863a1,1,0,0,0,.182-1.166,11.409,11.409,0,0,1-.736-1.764,1,1,0,0,0-.953-.7H18V26h2.63a1,1,0,0,0,.953-.7,11.409,11.409,0,0,1,.736-1.764,1,1,0,0,0-.182-1.166L20.274,20.51l3.879-3.879a10.108,10.108,0,0,0,3.614,3.876,9.974,9.974,0,0,0,.786,17.448c.016.008.033.013.05.021l.017.007a9.94,9.94,0,0,0,8.76,0l.018-.007c.015-.008.032-.013.047-.02a9.974,9.974,0,0,0,.788-17.449,10.1,10.1,0,0,0,3.614-3.875l3.879,3.878-1.863,1.863A1,1,0,0,0,43.681,23.539ZM25,29a7.931,7.931,0,0,1,3-6.222V35.222A7.931,7.931,0,0,1,25,29Zm13-6.222a7.951,7.951,0,0,1,0,12.443ZM35,8.043v3.543l-2,2-2-2V8.223A21.17,21.17,0,0,1,35,8.043ZM29,5.074V12a1,1,0,0,0,.293.707l3,3a1,1,0,0,0,1.414,0l3-3A1,1,0,0,0,37,12V5.074a8,8,0,0,1-.446,14.091A1,1,0,0,0,36,20.06V36.4a8.15,8.15,0,0,1-6,0V20.06a1,1,0,0,0-.554-.895,8.068,8.068,0,0,1-4.019-4.6A7.983,7.983,0,0,1,29,5.074ZM46.769,47.916A9.009,9.009,0,0,0,43,55.23V60H25V56a3,3,0,0,0-3-3H15a1,1,0,0,1-1-1V46a1,1,0,0,0-1-1H8.281l3.581-14.336a4.657,4.657,0,0,0,.138-1.1A22.109,22.109,0,0,1,23.065,10.926,10.069,10.069,0,0,0,23,12a9.949,9.949,0,0,0,.353,2.6l-5.2,5.2a1,1,0,0,0,0,1.414l2.068,2.068c-.108.237-.208.476-.3.715H17a1,1,0,0,0-1,1v8a1,1,0,0,0,1,1h2.921c.092.239.192.478.3.715l-2.068,2.068a1,1,0,0,0,0,1.414l5.65,5.65a1,1,0,0,0,1.414,0l2.068-2.068c.237.108.476.208.715.3V45a1,1,0,0,0,1,1h8a1,1,0,0,0,1-1V42.079c.239-.092.478-.192.715-.3l2.068,2.068a1,1,0,0,0,1.414,0l5.65-5.65a1,1,0,0,0,0-1.414l-2.068-2.068c.108-.237.208-.476.3-.715H49a1,1,0,0,0,1-1V25a1,1,0,0,0-1-1H46.079c-.092-.239-.192-.478-.3-.715l2.068-2.068a1,1,0,0,0,0-1.414l-5.2-5.2a9.8,9.8,0,0,0,.108-4.783,21.994,21.994,0,0,1,4.014,38.1Z"/></g></svg>
