<svg height="512" viewBox="0 0 64 64" width="512" xmlns="http://www.w3.org/2000/svg"><g id="View_code" data-name="View code"><path d="m32 11a3 3 0 1 1 3-3 3 3 0 0 1 -3 3zm0-4a1 1 0 1 0 1 1 1 1 0 0 0 -1-1z"/><path d="m32 14c-5.387 0-9.6-5.153-9.778-5.373a1 1 0 0 1 0-1.254c.178-.22 4.391-5.373 9.778-5.373s9.6 5.153 9.778 5.373a1 1 0 0 1 0 1.254c-.178.22-4.391 5.373-9.778 5.373zm-7.654-6c1.216 1.266 4.237 4 7.654 4s6.438-2.734 7.654-4c-1.216-1.266-4.237-4-7.654-4s-6.438 2.734-7.654 4z"/><path d="m14 19h2v2h-2z"/><path d="m18 19h2v2h-2z"/><path d="m22 19h2v2h-2z"/><path d="m11 49a1 1 0 0 0 1-1v-24h40v1a1 1 0 0 0 2 0v-6a3 3 0 0 0 -3-3h-38a3 3 0 0 0 -3 3v29a1 1 0 0 0 1 1zm2-31h38a1 1 0 0 1 1 1v3h-40v-3a1 1 0 0 1 1-1z"/><path d="m53 40a1 1 0 0 0 -1 1v18a1 1 0 0 1 -1 1h-36a1 1 0 0 0 0 2h36a3 3 0 0 0 3-3v-18a1 1 0 0 0 -1-1z"/><path d="m16 30v22a1 1 0 0 0 2 0v-22a1 1 0 0 0 -2 0z"/><path d="m24.832 27.445a1 1 0 0 0 -1.387-.277l-3 2a1 1 0 0 0 0 1.664l3 2a1 1 0 1 0 1.11-1.664l-1.755-1.168 1.752-1.168a1 1 0 0 0 .28-1.387z"/><path d="m31.168 32.555a1 1 0 0 0 1.387.277l3-2a1 1 0 0 0 0-1.664l-3-2a1 1 0 0 0 -1.11 1.664l1.755 1.168-1.752 1.168a1 1 0 0 0 -.28 1.387z"/><path d="m29.316 26.051a1 1 0 0 0 -1.264.633l-2 6a1 1 0 1 0 1.9.632l2-6a1 1 0 0 0 -.636-1.265z"/><path d="m21 36h6v2h-6z"/><path d="m29 36h2v2h-2z"/><path d="m24 40h12v2h-12z"/><path d="m42 40h4v2h-4z"/><path d="m24 44h2v2h-2z"/><path d="m28 44h12v2h-12z"/><path d="m42 44h4v2h-4z"/><path d="m21 48h6v2h-6z"/><path d="m29 48h2v2h-2z"/><path d="m38 40h2v2h-2z"/><path d="m56 27a6.006 6.006 0 0 0 -5.91 5h-4.09a3 3 0 0 0 -3 3v3h2v-3a1 1 0 0 1 1-1h4.09a6 6 0 1 0 5.91-7zm0 10a4 4 0 1 1 4-4 4 4 0 0 1 -4 4z"/><path d="m55 30h2v2h-2z"/><path d="m55 33h2v3h-2z"/><path d="m7 53h2v2h-2z"/><path d="m7 56h2v3h-2z"/><path d="m25 52h2v2h-2z"/><path d="m29 52h12v2h-12z"/><path d="m43 52h4v2h-4z"/><path d="m23 57v-2h-9.09a6 6 0 1 0 0 2zm-15 3a4 4 0 1 1 4-4 4 4 0 0 1 -4 4z"/><path d="m25 56h4v2h-4z"/><path d="m31 56h10v2h-10z"/></g></svg>