<?xml version="1.0"?>
<svg xmlns="http://www.w3.org/2000/svg" viewBox="0 0 64 64" width="512" height="512"><g id="World"><rect x="48.678" y="48.678" width="2" height="2" transform="translate(-20.577 49.678) rotate(-45)"/><rect x="56" y="31" width="2" height="2"/><rect x="48.678" y="13.322" width="2" height="2" transform="translate(4.423 39.322) rotate(-45)"/><path d="M61,25H53.913a22.523,22.523,0,0,0-1.469-3.541l5.013-5.012a1,1,0,0,0,0-1.414l-8.49-8.49a1,1,0,0,0-1.414,0L42.54,11.556A22.473,22.473,0,0,0,39,10.087V3a1,1,0,0,0-1-1H32a30,30,0,0,0,0,60h6a1,1,0,0,0,1-1V53.913a22.473,22.473,0,0,0,3.54-1.469l5.013,5.013a1,1,0,0,0,1.414,0l8.49-8.49a1,1,0,0,0,0-1.414L52.444,42.54A22.473,22.473,0,0,0,53.913,39H61a1,1,0,0,0,1-1V26A1,1,0,0,0,61,25ZM33,20.051a11.99,11.99,0,0,1,0,23.9v-2a10,10,0,0,0,0-19.9Zm0,4.011a8,8,0,0,1,0,15.876ZM4.167,35.033A27.965,27.965,0,0,1,23,5.492V9a1,1,0,0,0,.553.895L27,11.618v9.006L20.546,28H12a1,1,0,0,0-.98,1.2l1,5a1,1,0,0,0,.465.661L16.056,37l-3.125,1.875L4.406,35.086A1,1,0,0,0,4.167,35.033ZM31,59.975A27.94,27.94,0,0,1,11,50.485L15.351,47H21a1,1,0,0,0,.625-.219l4.3-3.441L27,44.414V48a1,1,0,0,0,.4.8L31,51.5ZM31,49l-2-1.5V44a1,1,0,0,0-.293-.707l-2-2a1,1,0,0,0-1.332-.074L20.649,45H15a1,1,0,0,0-.625.219L9.725,48.94A27.871,27.871,0,0,1,4.514,37.322l8.08,3.592a1,1,0,0,0,.921-.057l5-3a1,1,0,0,0,0-1.714L13.894,33.37,13.22,30H21a1,1,0,0,0,.752-.341l7-8A1,1,0,0,0,29,21V11a1,1,0,0,0-.553-.895L25,8.382V5a.984.984,0,0,0-.022-.108A27.986,27.986,0,0,1,31,4.025ZM60,37H53.17a1,1,0,0,0-.962.728,20.525,20.525,0,0,1-1.869,4.5,1,1,0,0,0,.164,1.2l4.833,4.833L48.26,55.336,43.427,50.5a1,1,0,0,0-1.2-.164,20.525,20.525,0,0,1-4.5,1.869A1,1,0,0,0,37,53.17V60H33V45.965a14,14,0,0,0,0-27.93V4h4v6.83a1,1,0,0,0,.728.962,20.525,20.525,0,0,1,4.5,1.869,1,1,0,0,0,1.2-.164L48.26,8.664l7.076,7.076L50.5,20.573a1,1,0,0,0-.164,1.2,20.553,20.553,0,0,1,1.869,4.5A1,1,0,0,0,53.17,27H60Z"/></g></svg>
