<?xml version="1.0"?>
<svg xmlns="http://www.w3.org/2000/svg" viewBox="0 0 64 64" width="512" height="512"><g id="Chart"><path d="M59,42.142V9.858A3.992,3.992,0,0,0,58,2H6A3.992,3.992,0,0,0,5,9.858V42.142A3.992,3.992,0,0,0,6,50H31v4.142a4,4,0,1,0,2,0V50H58a3.992,3.992,0,0,0,1-7.858ZM34,58a2,2,0,1,1-2-2A2,2,0,0,1,34,58ZM7,10H57V42H7ZM4,6A2,2,0,0,1,6,4H58a2,2,0,0,1,0,4H6A2,2,0,0,1,4,6ZM58,48H6a2,2,0,0,1,0-4H58a2,2,0,0,1,0,4Z"/><path d="M28,23H26.244l1.243-1.243a1,1,0,0,0,0-1.414l-2.83-2.83a1,1,0,0,0-1.414,0L22,18.756V17a1,1,0,0,0-1-1H17a1,1,0,0,0-1,1v1.756l-1.243-1.243a1,1,0,0,0-1.414,0l-2.83,2.83a1,1,0,0,0,0,1.414L11.756,23H10a1,1,0,0,0-1,1v4a1,1,0,0,0,1,1h1.756l-1.243,1.243a1,1,0,0,0,0,1.414l2.83,2.83a1,1,0,0,0,1.414,0L16,33.244V35a1,1,0,0,0,1,1h4a1,1,0,0,0,1-1V33.244l1.243,1.243a1,1,0,0,0,1.414,0l2.83-2.83a1,1,0,0,0,0-1.414L26.244,29H28a1,1,0,0,0,1-1V24A1,1,0,0,0,28,23Zm-1,4H24.65a1,1,0,0,0-.958.713,2.262,2.262,0,0,1-.168.4,1,1,0,0,0,.179,1.171l1.663,1.663L23.95,32.366,22.287,30.7a1,1,0,0,0-1.171-.179,2.262,2.262,0,0,1-.4.168A1,1,0,0,0,20,31.65V34H18V31.65a1,1,0,0,0-.713-.958,2.262,2.262,0,0,1-.4-.168,1,1,0,0,0-1.171.179L14.05,32.366,12.634,30.95,14.3,29.287a1,1,0,0,0,.179-1.171,2.262,2.262,0,0,1-.168-.4A1,1,0,0,0,13.35,27H11V25h2.35a1,1,0,0,0,.958-.713,2.262,2.262,0,0,1,.168-.4,1,1,0,0,0-.179-1.171L12.634,21.05l1.416-1.416L15.713,21.3a1,1,0,0,0,1.171.179,2.262,2.262,0,0,1,.4-.168A1,1,0,0,0,18,20.35V18h2v2.35a1,1,0,0,0,.713.958,2.262,2.262,0,0,1,.4.168,1,1,0,0,0,1.171-.179l1.663-1.663,1.416,1.416L23.7,22.713a1,1,0,0,0-.179,1.171,2.262,2.262,0,0,1,.168.4A1,1,0,0,0,24.65,25H27Z"/><path d="M19,22a4,4,0,1,0,4,4A4,4,0,0,0,19,22Zm0,6a2,2,0,1,1,2-2A2,2,0,0,1,19,28Z"/><path d="M54,12H40a1,1,0,0,0-1,1v4H36a1,1,0,0,0-1,1v7H32a1,1,0,0,0,0,2h3v7a1,1,0,0,0,1,1h3v4a1,1,0,0,0,1,1H54a1,1,0,0,0,1-1V29a1,1,0,0,0-1-1H40a1,1,0,0,0-1,1v4H37V19h2v4a1,1,0,0,0,1,1H54a1,1,0,0,0,1-1V13A1,1,0,0,0,54,12ZM41,30H53v8H41Zm12-8H41V14H53Z"/><path d="M43,35h1a1,1,0,0,0,0-2H43a1,1,0,0,0,0,2Z"/><path d="M47,35h4a1,1,0,0,0,0-2H47a1,1,0,0,0,0,2Z"/><path d="M43,19h1a1,1,0,0,0,0-2H43a1,1,0,0,0,0,2Z"/><path d="M47,19h4a1,1,0,0,0,0-2H47a1,1,0,0,0,0,2Z"/></g></svg>
