<?xml version="1.0"?>
<svg xmlns="http://www.w3.org/2000/svg" viewBox="0 0 64 64" width="512" height="512"><g id="Design"><path d="M55,2a7,7,0,0,0-6.92,6H39a1,1,0,0,0,0,2h9V49a1,1,0,0,0,2,0,5,5,0,0,1,10,0v.21A4.8,4.8,0,0,1,55.21,54H16V10h9a1,1,0,0,0,0-2H16V3a1,1,0,0,0-1-1H3A1,1,0,0,0,2,3V61a1,1,0,0,0,1,1H15a1,1,0,0,0,1-1V56H55.21A6.8,6.8,0,0,0,62,49.206V9A7.008,7.008,0,0,0,55,2ZM14,60H4V57H8V55H4V53H6V51H4V49H8V47H4V45H6V43H4V41H8V39H4V37H6V35H4V33H8V31H4V29H6V27H4V25H8V23H4V21H6V19H4V17H8V15H4V13H6V11H4V9H8V7H4V4H14Zm46-15.9a6.991,6.991,0,0,0-10,0V9A5,5,0,0,1,60,9Z"/><path d="M31.105,45.447a1,1,0,0,0,1.79,0l3-6A1,1,0,0,0,36,39V6a4,4,0,0,0-8,0V39a1,1,0,0,0,.105.447ZM33,36.465V14h1V37.132Zm-2,0-1,.667V14h1ZM34,12H30V10h4ZM32,42.764l-1.711-3.422L32,38.2l1.711,1.14ZM30,6a2,2,0,0,1,4,0V8H30Z"/><path d="M20,49a1,1,0,0,0,1,1H43a1,1,0,0,0,0-2H21A1,1,0,0,0,20,49Z"/></g></svg>
