<?xml version="1.0"?>
<svg xmlns="http://www.w3.org/2000/svg" viewBox="0 0 64 64" width="512" height="512"><g id="Engineering-2" data-name="Engineering"><path d="M47,59H41a1,1,0,0,1-1-1V54.247c-.144-.057-.283-.115-.419-.174l-2.654,2.654a1,1,0,0,1-.707.293h0a1,1,0,0,1-.707-.293l-4.24-4.24a1,1,0,0,1,0-1.414l2.654-2.655c-.06-.135-.117-.274-.174-.418H30a1,1,0,0,1-1-1V41a1,1,0,0,1,1-1h3.753c.057-.144.114-.283.174-.419l-2.654-2.654a1,1,0,0,1,0-1.414l4.24-4.24a1.029,1.029,0,0,1,1.414,0l2.654,2.654c.136-.059.275-.117.419-.174V30a1,1,0,0,1,1-1h6a1,1,0,0,1,1,1v3.753c.144.057.283.115.419.174l2.654-2.654a1,1,0,0,1,.707-.293h0a1,1,0,0,1,.707.293l4.24,4.24a1,1,0,0,1,0,1.414l-2.654,2.654c.06.136.117.275.174.419H58a1,1,0,0,1,1,1v6a1,1,0,0,1-1,1H54.247c-.057.144-.114.283-.174.418l2.654,2.655a1,1,0,0,1,0,1.414l-4.24,4.24a1.029,1.029,0,0,1-1.414,0l-2.654-2.654c-.136.059-.275.117-.419.174V58A1,1,0,0,1,47,59Zm-5-2h4V53.54a1,1,0,0,1,.693-.952,8.112,8.112,0,0,0,1.446-.605,1,1,0,0,1,1.188.17l2.453,2.453,2.825-2.826-2.452-2.453a1,1,0,0,1-.17-1.187,8.225,8.225,0,0,0,.605-1.446A1,1,0,0,1,53.54,46H57V42H53.54a1,1,0,0,1-.952-.694,8.225,8.225,0,0,0-.605-1.446,1,1,0,0,1,.17-1.187l2.452-2.453L51.78,33.394l-2.453,2.453a1,1,0,0,1-1.188.17,8.112,8.112,0,0,0-1.446-.605A1,1,0,0,1,46,34.46V31H42v3.46a1,1,0,0,1-.693.952,8.112,8.112,0,0,0-1.446.605,1,1,0,0,1-1.188-.17L36.22,33.394,33.4,36.22l2.452,2.453a1,1,0,0,1,.17,1.187,8.225,8.225,0,0,0-.605,1.446A1,1,0,0,1,34.46,42H31v4h3.46a1,1,0,0,1,.952.694,8.225,8.225,0,0,0,.605,1.446,1,1,0,0,1-.17,1.187L33.4,51.78l2.825,2.826,2.453-2.453a1,1,0,0,1,1.188-.17,8.112,8.112,0,0,0,1.446.605A1,1,0,0,1,42,53.54Z"/><path d="M44,51a7,7,0,1,1,7-7A7.008,7.008,0,0,1,44,51Zm0-12a5,5,0,1,0,5,5A5.006,5.006,0,0,0,44,39Z"/><path d="M17,25H13a1,1,0,0,1-1-1V22.244l-1.243,1.243a1,1,0,0,1-1.414,0l-2.83-2.83a1,1,0,0,1,0-1.414L7.756,18H6a1,1,0,0,1-1-1V13a1,1,0,0,1,1-1H7.756L6.513,10.757a1,1,0,0,1,0-1.414l2.83-2.83a1,1,0,0,1,1.414,0L12,7.756V6a1,1,0,0,1,1-1h4a1,1,0,0,1,1,1V7.756l1.243-1.243a1,1,0,0,1,1.414,0l2.83,2.83a1,1,0,0,1,0,1.414L22.244,12H24a1,1,0,0,1,1,1v4a1,1,0,0,1-1,1H22.244l1.243,1.243a1,1,0,0,1,0,1.414l-2.83,2.83a1,1,0,0,1-1.414,0L18,22.244V24A1,1,0,0,1,17,25Zm-3-2h2V20.65a1,1,0,0,1,.713-.958,2.306,2.306,0,0,0,.4-.168,1,1,0,0,1,1.171.179l1.663,1.663,1.416-1.416L19.7,18.287a1,1,0,0,1-.179-1.171,2.234,2.234,0,0,0,.169-.406A1,1,0,0,1,20.65,16H23V14H20.65a1,1,0,0,1-.957-.71,2.234,2.234,0,0,0-.169-.406,1,1,0,0,1,.179-1.171l1.663-1.663L19.95,8.634,18.287,10.3a1,1,0,0,1-1.171.179,2.306,2.306,0,0,0-.4-.168A1,1,0,0,1,16,9.35V7H14V9.35a1,1,0,0,1-.713.958,2.306,2.306,0,0,0-.4.168,1,1,0,0,1-1.171-.179L10.05,8.634,8.634,10.05,10.3,11.713a1,1,0,0,1,.179,1.171,2.234,2.234,0,0,0-.169.406A1,1,0,0,1,9.35,14H7v2H9.35a1,1,0,0,1,.957.71,2.234,2.234,0,0,0,.169.406,1,1,0,0,1-.179,1.171L8.634,19.95l1.416,1.416L11.713,19.7a1,1,0,0,1,1.171-.179,2.306,2.306,0,0,0,.4.168A1,1,0,0,1,14,20.65Z"/><path d="M15,19a4,4,0,1,1,4-4A4,4,0,0,1,15,19Zm0-6a2,2,0,1,0,2,2A2,2,0,0,0,15,13Z"/><path d="M48,20.857a1,1,0,0,1-.617-.214l-10-7.857a1,1,0,0,1,1.236-1.572l10,7.857A1,1,0,0,1,48,20.857Z"/><path d="M23.5,5.189A12.981,12.981,0,0,0,4.383,22.48c.229.325,25.975,33.261,26.054,33.317A17.986,17.986,0,1,0,54.488,29.379C54.307,29.25,23.675,5.341,23.5,5.189ZM4,15A11,11,0,1,1,15,26,11.013,11.013,0,0,1,4,15Zm6.549,12.2A12.971,12.971,0,0,0,27.32,10.88L46.886,26.253A17.953,17.953,0,0,0,26.332,47.4ZM44,60A16,16,0,1,1,60,44,16.019,16.019,0,0,1,44,60Z"/><path d="M16,43.8a1,1,0,0,1-.789-.384l-10-12.8a1,1,0,0,1,1.576-1.232l10,12.8A1,1,0,0,1,16,43.8Z"/></g></svg>
