<?xml version="1.0"?>
<svg xmlns="http://www.w3.org/2000/svg" viewBox="0 0 64 64" width="512" height="512"><g id="Engineering-3" data-name="Engineering"><path d="M9.4,51.249A9.012,9.012,0,0,1,4,43a1,1,0,0,0-2,0A11.013,11.013,0,0,0,8.6,53.081a1,1,0,1,0,.8-1.832Z"/><path d="M13,52a8.886,8.886,0,0,1-.9-.045,1,1,0,0,0-.2,1.99c.363.036.73.055,1.1.055a1,1,0,0,0,0-2Z"/><path d="M13,40a3,3,0,1,0,3,3A3,3,0,0,0,13,40Zm0,4a1,1,0,1,1,1-1A1,1,0,0,1,13,44Z"/><path d="M35.25,16a1,1,0,0,1-.808-1.588q.339-.465.706-.907a1,1,0,1,1,1.539,1.277c-.217.262-.427.531-.627.806A1,1,0,0,1,35.25,16Z"/><path d="M32.472,30a1,1,0,0,1-.971-.766A18.066,18.066,0,0,1,31,25a17.867,17.867,0,0,1,1.592-7.412,1,1,0,0,1,1.823.824A15.87,15.87,0,0,0,33,25a16.122,16.122,0,0,0,.445,3.766A1,1,0,0,1,32.472,30Z"/><path d="M61,10a1,1,0,0,0,1-1V3a1,1,0,0,0-1-1H3A1,1,0,0,0,2,3V9a1,1,0,0,0,1,1H6V43a6.995,6.995,0,0,0,11.831,5.059c.153-.147,14.811-12.6,22.92-19.483.043.1.078.2.125.3l-2.483,2.484a1,1,0,0,0,0,1.414l2.83,2.83a1,1,0,0,0,1.414,0l2.484-2.483a8.97,8.97,0,0,0,.879.365V37a1,1,0,0,0,1,1h1v5.184A3,3,0,0,0,46,46v1H44a1,1,0,0,0-.956.706l-4,13A1,1,0,0,0,40,62H58a1,1,0,0,0,.956-1.294l-4-13A1,1,0,0,0,54,47H52V46a3,3,0,0,0-2-2.816V38h1a1,1,0,0,0,1-1V33.489a8.97,8.97,0,0,0,.879-.365l2.484,2.483a1,1,0,0,0,1.414,0l2.83-2.83a1,1,0,0,0,0-1.414l-2.483-2.484A8.97,8.97,0,0,0,57.489,28H61a1,1,0,0,0,1-1V23a1,1,0,0,0-1-1H57.489a8.97,8.97,0,0,0-.365-.879l2.483-2.484a1,1,0,0,0,0-1.414l-2.83-2.83a1,1,0,0,0-1.414,0l-.745.744L54.939,10ZM4,8V4H60V8Zm9,40a5,5,0,1,1,5-5A5.006,5.006,0,0,1,13,48Zm0-12a6.977,6.977,0,0,0-5,2.11V10H52.936l-.421,6.725c-.171-.073-.338-.151-.515-.214V13a1,1,0,0,0-1-1H47a1,1,0,0,0-1,1v3.511a8.97,8.97,0,0,0-.879.365l-2.484-2.483a1,1,0,0,0-1.414,0l-2.83,2.83a1,1,0,0,0,0,1.414l2.483,2.484a8.97,8.97,0,0,0-.365.879H37a1,1,0,0,0-1,1v4a1,1,0,0,0,1,1h1.307L19.975,43.487c.012-.162.025-.323.025-.487A7.008,7.008,0,0,0,13,36ZM49,22a3,3,0,1,1-3,3A3,3,0,0,1,49,22Zm0-2a4.986,4.986,0,0,0-4.407,2.689L40.674,26H38V24h3.25a1,1,0,0,0,.968-.748,6.736,6.736,0,0,1,.748-1.795,1,1,0,0,0-.149-1.224l-2.3-2.3,1.416-1.416,2.3,2.3a1,1,0,0,0,1.224.149,6.736,6.736,0,0,1,1.8-.748A1,1,0,0,0,48,17.25V14h2v3.25a1,1,0,0,0,.748.968,6.755,6.755,0,0,1,1.632.666l-.146,2.335A4.954,4.954,0,0,0,49,20ZM48,46a1,1,0,0,1,2,0v1H48Zm5.261,3,3.385,11H41.354l3.385-11ZM56.07,16.514l1.416,1.416-2.3,2.3a1,1,0,0,0-.149,1.224,6.736,6.736,0,0,1,.748,1.795A1,1,0,0,0,56.75,24H60v2H56.75a1,1,0,0,0-.968.748,6.736,6.736,0,0,1-.748,1.795,1,1,0,0,0,.149,1.224l2.3,2.3L56.07,33.486l-2.3-2.3a1,1,0,0,0-1.224-.149,6.736,6.736,0,0,1-1.8.748A1,1,0,0,0,50,32.75V36H48V32.75a1,1,0,0,0-.748-.968,6.736,6.736,0,0,1-1.8-.748,1,1,0,0,0-1.224.149l-2.3,2.3L40.514,32.07l2.3-2.3a1,1,0,0,0,.149-1.224,6.71,6.71,0,0,1-.6-1.342l1.706-1.449a4.985,4.985,0,0,0,9.915-.662c0-.01.006-.018.007-.028l.432-6.908Z"/></g></svg>
