<?xml version="1.0"?>
<svg xmlns="http://www.w3.org/2000/svg" viewBox="0 0 64 64" width="512" height="512"><g id="Mobile"><path d="M48,2H16a5.006,5.006,0,0,0-5,5V57a5.006,5.006,0,0,0,5,5H48a5.006,5.006,0,0,0,5-5V7A5.006,5.006,0,0,0,48,2ZM42,4V5a1,1,0,0,1-1,1H23a1,1,0,0,1-1-1V4Zm9,53a3,3,0,0,1-3,3H16a3,3,0,0,1-3-3V7a3,3,0,0,1,3-3h4V5a3,3,0,0,0,3,3H41a3,3,0,0,0,3-3V4h4a3,3,0,0,1,3,3Z"/><path d="M32,58a3,3,0,1,1,3-3A3,3,0,0,1,32,58Zm0-4a1,1,0,1,0,1,1A1,1,0,0,0,32,54Z"/><rect x="37" y="54" width="8" height="2"/><rect x="19" y="54" width="8" height="2"/><path d="M34,45H30a1,1,0,0,1-1-1V40.489a8.97,8.97,0,0,1-.879-.365l-2.484,2.483a1,1,0,0,1-1.414,0l-2.83-2.83a1,1,0,0,1,0-1.414l2.483-2.484A8.97,8.97,0,0,1,23.511,35H20a1,1,0,0,1-1-1V30a1,1,0,0,1,1-1h3.511a8.97,8.97,0,0,1,.365-.879l-2.483-2.484a1,1,0,0,1,0-1.414l2.83-2.83a1,1,0,0,1,1.414,0l2.484,2.483A8.97,8.97,0,0,1,29,23.511V20a1,1,0,0,1,1-1h4a1,1,0,0,1,1,1v3.511a8.97,8.97,0,0,1,.879.365l2.484-2.483a1,1,0,0,1,1.414,0l2.83,2.83a1,1,0,0,1,0,1.414l-2.484,2.484a8.5,8.5,0,0,1,.365.879H44a1,1,0,0,1,1,1v4a1,1,0,0,1-1,1H40.488a8.5,8.5,0,0,1-.365.879l2.484,2.484a1,1,0,0,1,0,1.414l-2.83,2.83a1,1,0,0,1-1.414,0l-2.484-2.483a8.97,8.97,0,0,1-.879.365V44A1,1,0,0,1,34,45Zm-3-2h2V39.75a1,1,0,0,1,.748-.968,6.777,6.777,0,0,0,1.8-.748,1,1,0,0,1,1.224.149l2.3,2.3,1.416-1.416-2.3-2.3a1,1,0,0,1-.15-1.224,6.771,6.771,0,0,0,.749-1.8A1,1,0,0,1,39.75,33H43V31H39.75a1,1,0,0,1-.968-.748,6.771,6.771,0,0,0-.749-1.795,1,1,0,0,1,.15-1.224l2.3-2.3L39.07,23.514l-2.3,2.3a1,1,0,0,1-1.224.149,6.777,6.777,0,0,0-1.8-.748A1,1,0,0,1,33,24.25V21H31v3.25a1,1,0,0,1-.748.968,6.736,6.736,0,0,0-1.795.748,1,1,0,0,1-1.224-.149l-2.3-2.3L23.514,24.93l2.3,2.3a1,1,0,0,1,.149,1.224,6.736,6.736,0,0,0-.748,1.795A1,1,0,0,1,24.25,31H21v2h3.25a1,1,0,0,1,.968.748,6.736,6.736,0,0,0,.748,1.8,1,1,0,0,1-.149,1.224l-2.3,2.3,1.416,1.416,2.3-2.3a1,1,0,0,1,1.224-.149,6.736,6.736,0,0,0,1.795.748A1,1,0,0,1,31,39.75Z"/><path d="M27,48.2a1.01,1.01,0,0,1-.313-.051A16.967,16.967,0,0,1,15,32a1,1,0,0,1,2,0A14.97,14.97,0,0,0,27.312,46.253,1,1,0,0,1,27,48.2Z"/><path d="M32,49q-.535,0-1.062-.033a1,1,0,0,1,.124-2Q31.527,47,32,47a1,1,0,0,1,0,2Z"/><path d="M48,33a1,1,0,0,1-1-1A14.971,14.971,0,0,0,36.687,17.747a1,1,0,0,1,.625-1.9A16.967,16.967,0,0,1,49,32,1,1,0,0,1,48,33Z"/><path d="M33,17.031l-.063,0Q32.473,17,32,17a1,1,0,0,1,0-2q.535,0,1.062.033a1,1,0,0,1-.061,2Z"/><path d="M32,37a5,5,0,1,1,5-5A5.006,5.006,0,0,1,32,37Zm0-8a3,3,0,1,0,3,3A3,3,0,0,0,32,29Z"/></g></svg>
