<?xml version="1.0"?>
<svg xmlns="http://www.w3.org/2000/svg" viewBox="0 0 64 64" width="512" height="512"><g id="World"><path d="M44,29H40.488a8.5,8.5,0,0,0-.365-.879l2.484-2.484a1,1,0,0,0,0-1.414l-2.83-2.83a1,1,0,0,0-1.414,0l-2.484,2.483A8.97,8.97,0,0,0,35,23.511V20a1,1,0,0,0-1-1H30a1,1,0,0,0-1,1v3.511a8.97,8.97,0,0,0-.879.365l-2.484-2.483a1,1,0,0,0-1.414,0l-2.83,2.83a1,1,0,0,0,0,1.414l2.483,2.484a8.97,8.97,0,0,0-.365.879H20a1,1,0,0,0-1,1v4a1,1,0,0,0,1,1h3.511a8.97,8.97,0,0,0,.365.879l-2.483,2.484a1,1,0,0,0,0,1.414l2.83,2.83a1,1,0,0,0,1.414,0l2.484-2.483a8.97,8.97,0,0,0,.879.365V44a1,1,0,0,0,1,1h4a1,1,0,0,0,1-1V40.489a8.97,8.97,0,0,0,.879-.365l2.484,2.483a1,1,0,0,0,1.414,0l2.83-2.83a1,1,0,0,0,0-1.414l-2.484-2.484A8.5,8.5,0,0,0,40.488,35H44a1,1,0,0,0,1-1V30A1,1,0,0,0,44,29Zm-1,4H39.75a1,1,0,0,0-.968.748,6.771,6.771,0,0,1-.749,1.8,1,1,0,0,0,.15,1.224l2.3,2.3L39.07,40.486l-2.3-2.3a1,1,0,0,0-1.224-.149,6.777,6.777,0,0,1-1.8.748A1,1,0,0,0,33,39.75V43H31V39.75a1,1,0,0,0-.748-.968,6.736,6.736,0,0,1-1.795-.748,1,1,0,0,0-1.224.149l-2.3,2.3L23.514,39.07l2.3-2.3a1,1,0,0,0,.149-1.224,6.736,6.736,0,0,1-.748-1.8A1,1,0,0,0,24.25,33H21V31h3.25a1,1,0,0,0,.968-.748,6.736,6.736,0,0,1,.748-1.795,1,1,0,0,0-.149-1.224l-2.3-2.3,1.416-1.416,2.3,2.3a1,1,0,0,0,1.224.149,6.736,6.736,0,0,1,1.795-.748A1,1,0,0,0,31,24.25V21h2v3.25a1,1,0,0,0,.748.968,6.777,6.777,0,0,1,1.8.748,1,1,0,0,0,1.224-.149l2.3-2.3,1.416,1.416-2.3,2.3a1,1,0,0,0-.15,1.224,6.771,6.771,0,0,1,.749,1.795A1,1,0,0,0,39.75,31H43Z"/><path d="M32,27a5,5,0,1,0,5,5A5.006,5.006,0,0,0,32,27Zm0,8a3,3,0,1,1,3-3A3,3,0,0,1,32,35Z"/><path d="M32,2A30,30,0,1,0,62,32,30.034,30.034,0,0,0,32,2ZM31,59.955c-5.2-.446-9.827-4.347-12.933-10.251A41.933,41.933,0,0,0,31,51.983Zm2-7.972A41.933,41.933,0,0,0,45.933,49.7c-3.106,5.9-7.728,9.805-12.933,10.251Zm0-2V48a1,1,0,0,0-2,0v1.984a39.466,39.466,0,0,1-14.133-2.851A39.466,39.466,0,0,1,14.016,33H16a1,1,0,0,0,0-2H14.016a39.466,39.466,0,0,1,2.851-14.133A39.466,39.466,0,0,1,31,14.016V16a1,1,0,0,0,2,0V14.016a39.466,39.466,0,0,1,14.133,2.851A39.466,39.466,0,0,1,49.984,31H48a1,1,0,0,0,0,2h1.984a39.466,39.466,0,0,1-2.851,14.133A39.466,39.466,0,0,1,33,49.984ZM4.045,31c.446-5.2,4.347-9.827,10.251-12.933A41.933,41.933,0,0,0,12.017,31Zm7.972,2A41.933,41.933,0,0,0,14.3,45.933C8.392,42.827,4.491,38.205,4.045,33ZM33,4.045c5.2.446,9.827,4.347,12.933,10.251A41.933,41.933,0,0,0,33,12.017Zm-2,7.972A41.933,41.933,0,0,0,18.067,14.3C21.173,8.392,25.8,4.491,31,4.045ZM51.983,31A41.933,41.933,0,0,0,49.7,18.067C55.608,21.173,59.509,25.8,59.955,31Zm0,2h7.972c-.446,5.2-4.347,9.827-10.251,12.933A41.933,41.933,0,0,0,51.983,33ZM58.3,22.39a26.362,26.362,0,0,0-9.667-7.024A26.359,26.359,0,0,0,41.61,5.7,28.148,28.148,0,0,1,58.3,22.39ZM22.39,5.7a26.362,26.362,0,0,0-7.024,9.667A26.362,26.362,0,0,0,5.7,22.39,28.143,28.143,0,0,1,22.39,5.7ZM5.7,41.61a26.362,26.362,0,0,0,9.667,7.024A26.362,26.362,0,0,0,22.39,58.3,28.143,28.143,0,0,1,5.7,41.61ZM41.61,58.3a26.359,26.359,0,0,0,7.024-9.667A26.362,26.362,0,0,0,58.3,41.61,28.148,28.148,0,0,1,41.61,58.3Z"/></g></svg>
