<?xml version="1.0"?>
<svg xmlns="http://www.w3.org/2000/svg" viewBox="0 0 64 64" width="512" height="512"><g id="Engine"><path d="M32,22a4,4,0,1,1,4-4A4,4,0,0,1,32,22Zm0-6a2,2,0,1,0,2,2A2,2,0,0,0,32,16Z"/><path d="M61,5H45V3a1,1,0,0,0-1-1H20a1,1,0,0,0-1,1V5H3A1,1,0,0,0,2,6v4a1,1,0,0,0,1,1H19v2a1,1,0,0,0,.293.707L22,16.414V17H15.816A2.993,2.993,0,1,0,12,20.816v7.326A4,4,0,0,0,9,32a1,1,0,0,0,2,0,2,2,0,0,1,4,0,1,1,0,0,0,2,0,4,4,0,0,0-3-3.858V20.816A3,3,0,0,0,15.816,19H22v1a1,1,0,0,0,1,1h1.756l-1.243,1.243a1,1,0,0,0,0,1.414l2.83,2.83a1,1,0,0,0,1.414,0L29,25.244V27a1,1,0,0,0,1,1h4a1,1,0,0,0,1-1V25.244l1.243,1.243a1,1,0,0,0,1.414,0l2.83-2.83a1,1,0,0,0,0-1.414L39.244,21H41a1,1,0,0,0,1-1V19h6.184A3,3,0,0,0,50,20.816V33.142A4,4,0,0,0,47,37a1,1,0,0,0,2,0,2,2,0,0,1,4,0,1,1,0,0,0,2,0,4,4,0,0,0-3-3.858V20.816A2.993,2.993,0,1,0,48.184,17H42v-.586l2.707-2.707A1,1,0,0,0,45,13V11H61a1,1,0,0,0,1-1V6A1,1,0,0,0,61,5ZM4,7H6V9H4ZM19,9H8V7H19ZM13,19a1,1,0,1,1,1-1A1,1,0,0,1,13,19Zm38-2a1,1,0,1,1-1,1A1,1,0,0,1,51,17ZM40,19H37.65a1,1,0,0,0-.957.71,2.234,2.234,0,0,1-.169.406,1,1,0,0,0,.179,1.171l1.663,1.663L36.95,24.366,35.287,22.7a1,1,0,0,0-1.171-.179,2.306,2.306,0,0,1-.4.168A1,1,0,0,0,33,23.65V26H31V23.65a1,1,0,0,0-.713-.958,2.306,2.306,0,0,1-.4-.168,1,1,0,0,0-1.171.179L27.05,24.366,25.634,22.95,27.3,21.287a1,1,0,0,0,.179-1.171,2.234,2.234,0,0,1-.169-.406A1,1,0,0,0,26.35,19H24V17h2.35a1,1,0,0,0,.957-.71,2.234,2.234,0,0,1,.169-.406,1,1,0,0,0-.179-1.171L25.634,13.05l1.416-1.416L28.713,13.3a1,1,0,0,0,1.171.179,2.306,2.306,0,0,1,.4-.168A1,1,0,0,0,31,12.35V10h2v2.35a1,1,0,0,0,.713.958,2.306,2.306,0,0,1,.4.168,1,1,0,0,0,1.171-.179l1.663-1.663,1.416,1.416L36.7,14.713a1,1,0,0,0-.179,1.171,2.234,2.234,0,0,1,.169.406,1,1,0,0,0,.957.71H40Zm3-6.414L40.586,15H39.244l1.243-1.243a1,1,0,0,0,0-1.414l-2.83-2.83a1,1,0,0,0-1.414,0L35,10.756V9a1,1,0,0,0-1-1H30a1,1,0,0,0-1,1v1.756L27.757,9.513a1,1,0,0,0-1.414,0l-2.83,2.83a1,1,0,0,0,0,1.414L24.756,15H23.414L21,12.586V4H43ZM56,9H45V7H56Zm4,0H58V7h2Z"/><path d="M56,50H52V43a1,1,0,0,0-1-1H41V37a1,1,0,0,0-1-1H24a1,1,0,0,0-1,1v3H18a1,1,0,0,0-1,1v3H12a1,1,0,0,0-1,1v5H8A6,6,0,0,0,8,62H56a6,6,0,0,0,0-12Zm-6-6v6H41V44ZM31,38h2v4.382l-.553-.277a1,1,0,0,0-.894,0L31,42.382Zm-6,0h4v6a1,1,0,0,0,1.447.9L32,44.118l1.553.777A1,1,0,0,0,35,44V38h4V50H25Zm-6,4h4v8H19Zm-6,4h4v4H13ZM56,60H8a4,4,0,0,1,0-8H56a4,4,0,0,1,0,8Z"/><rect x="13" y="55" width="3" height="2"/><rect x="24" y="55" width="4" height="2"/><rect x="48" y="55" width="3" height="2"/><rect x="36" y="55" width="4" height="2"/><path d="M32,53a3,3,0,1,0,3,3A3,3,0,0,0,32,53Zm0,4a1,1,0,1,1,1-1A1,1,0,0,1,32,57Z"/><path d="M44,53a3,3,0,1,0,3,3A3,3,0,0,0,44,53Zm0,4a1,1,0,1,1,1-1A1,1,0,0,1,44,57Z"/><path d="M55,53a3,3,0,1,0,3,3A3,3,0,0,0,55,53Zm0,4a1,1,0,1,1,1-1A1,1,0,0,1,55,57Z"/><path d="M20,53a3,3,0,1,0,3,3A3,3,0,0,0,20,53Zm0,4a1,1,0,1,1,1-1A1,1,0,0,1,20,57Z"/><path d="M9,53a3,3,0,1,0,3,3A3,3,0,0,0,9,53Zm0,4a1,1,0,1,1,1-1A1,1,0,0,1,9,57Z"/></g></svg>
