<?xml version="1.0"?>
<svg xmlns="http://www.w3.org/2000/svg" viewBox="0 0 64 64" width="512" height="512"><g id="Blueprint"><path d="M62,19a7,7,0,0,0-13.92-1H12V62H55.21A6.8,6.8,0,0,0,62,55.206ZM50,19a5,5,0,0,1,10,0v31.1a6.991,6.991,0,0,0-10,0Zm5.21,41H14V20H48V55a1,1,0,0,0,2,0,5,5,0,0,1,10,0v.21A4.8,4.8,0,0,1,55.21,60Z"/><path d="M2,2V16H46V2ZM44,14H4V4H7V8H9V4h2V6h2V4h2V8h2V4h2V6h2V4h2V8h2V4h2V6h2V4h2V8h2V4h2V6h2V4h2V8h2V4h3Z"/><path d="M6,18a4,4,0,0,0-4,4V55a1,1,0,0,0,.1.447l3,6a1,1,0,0,0,1.79,0l3-6A1,1,0,0,0,10,55V22A4,4,0,0,0,6,18ZM7,52.465V30H8V53.132ZM8,28H4V26H8ZM4,30H5V52.465l-1,.667Zm0-8a2,2,0,0,1,4,0v2H4ZM6,58.764,4.289,55.342,6,54.2l1.711,1.14Z"/><path d="M30,26V36H24v2h6v8h8V44H32V28H42V52H25.92A7,7,0,0,0,20,46.08V28h4V26H18V54H44V26ZM20,52V48.1A5.016,5.016,0,0,1,23.9,52Z"/></g></svg>
