<?xml version="1.0"?>
<svg xmlns="http://www.w3.org/2000/svg" viewBox="0 0 64 64" width="512" height="512"><g id="CPU"><path d="M41,29H39.244l1.243-1.243a1,1,0,0,0,0-1.414l-2.83-2.83a1,1,0,0,0-1.414,0L35,24.756V23a1,1,0,0,0-1-1H30a1,1,0,0,0-1,1v1.756l-1.243-1.243a1,1,0,0,0-1.414,0l-2.83,2.83a1,1,0,0,0,0,1.414L24.756,29H23a1,1,0,0,0-1,1v4a1,1,0,0,0,1,1h1.756l-1.243,1.243a1,1,0,0,0,0,1.414l2.83,2.83a1,1,0,0,0,1.414,0L29,39.244V41a1,1,0,0,0,1,1h4a1,1,0,0,0,1-1V39.244l1.243,1.243a1,1,0,0,0,1.414,0l2.83-2.83a1,1,0,0,0,0-1.414L39.244,35H41a1,1,0,0,0,1-1V30A1,1,0,0,0,41,29Zm-1,4H37.65a1,1,0,0,0-.957.71,2.234,2.234,0,0,1-.169.406,1,1,0,0,0,.179,1.171l1.663,1.663L36.95,38.366,35.287,36.7a1,1,0,0,0-1.171-.179,2.306,2.306,0,0,1-.4.168A1,1,0,0,0,33,37.65V40H31V37.65a1,1,0,0,0-.713-.958,2.306,2.306,0,0,1-.4-.168,1,1,0,0,0-1.171.179L27.05,38.366,25.634,36.95,27.3,35.287a1,1,0,0,0,.179-1.171,2.234,2.234,0,0,1-.169-.406A1,1,0,0,0,26.35,33H24V31h2.35a1,1,0,0,0,.957-.71,2.234,2.234,0,0,1,.169-.406,1,1,0,0,0-.179-1.171L25.634,27.05l1.416-1.416L28.713,27.3a1,1,0,0,0,1.171.179,2.306,2.306,0,0,1,.4-.168A1,1,0,0,0,31,26.35V24h2v2.35a1,1,0,0,0,.713.958,2.306,2.306,0,0,1,.4.168,1,1,0,0,0,1.171-.179l1.663-1.663,1.416,1.416L36.7,28.713a1,1,0,0,0-.179,1.171,2.234,2.234,0,0,1,.169.406,1,1,0,0,0,.957.71H40Z"/><path d="M32,28a4,4,0,1,0,4,4A4,4,0,0,0,32,28Zm0,6a2,2,0,1,1,2-2A2,2,0,0,1,32,34Z"/><path d="M59,37a3,3,0,0,0-2.816,2H46V37h5a1,1,0,0,0,0-2H46V33h5a1,1,0,0,0,.447-.1l5.476-2.739A2.994,2.994,0,1,0,56,28a2.9,2.9,0,0,0,.037.363L50.764,31H46V29h3a1,1,0,0,0,0-2H46V25h4a1,1,0,0,0,.707-.293l3-3,.006-.009A2.957,2.957,0,0,0,55,22a3,3,0,1,0-3-3,2.957,2.957,0,0,0,.3,1.287l-.009.006L49.586,23H46a5.006,5.006,0,0,0-5-5V15.414l5.707-5.707.006-.009A2.957,2.957,0,0,0,48,10a3,3,0,1,0-3-3,2.957,2.957,0,0,0,.3,1.287l-.009.006-6,6A1,1,0,0,0,39,15v3H37V15a1,1,0,0,0-2,0v3H33V11.816a3,3,0,1,0-2,0V18H29V15a1,1,0,0,0-2,0v3H25V11a1,1,0,0,0-.293-.707l-4-4L20.7,6.287A2.957,2.957,0,0,0,21,5a3,3,0,1,0-3,3,2.96,2.96,0,0,0,1.287-.3l.006.009L23,11.414V18a5.006,5.006,0,0,0-5,5H14.414l-2.707-2.707-.009-.006A2.957,2.957,0,0,0,12,19a3,3,0,1,0-3,3,2.96,2.96,0,0,0,1.287-.3l.006.009,3,3A1,1,0,0,0,14,25h4v2H12a1,1,0,0,0-.625.219l-4.413,3.53A2.974,2.974,0,0,0,5,30a3,3,0,1,0,3,3,2.925,2.925,0,0,0-.049-.48l4.4-3.52H18v2H15a1,1,0,0,0,0,2h3v2H11a1,1,0,0,0,0,2h7v2H13a1,1,0,0,0-.832.445l-3.9,5.847A2.971,2.971,0,0,0,7,45a3,3,0,1,0,3,3,2.963,2.963,0,0,0-.3-1.29.957.957,0,0,0,.135-.155L13.535,41H18a5.006,5.006,0,0,0,5,5v6.586l-3.707,3.707-.006.009A2.957,2.957,0,0,0,18,56a3,3,0,1,0,3,3,2.957,2.957,0,0,0-.3-1.287l.009-.006,4-4A1,1,0,0,0,25,53V46h2v6a1,1,0,0,0,2,0V46h2v8a1,1,0,0,0,.47.848l5.6,3.505a3.044,3.044,0,1,0,1.069-1.691L33,53.446V46h2v3a1,1,0,0,0,2,0V46h2v7a1,1,0,0,0,1,1h6a.9.9,0,0,0,.173-.035,3,3,0,1,0,0-1.93A.9.9,0,0,0,46,52H41V46a5.006,5.006,0,0,0,5-5H56.184A2.995,2.995,0,1,0,59,37Zm0-10a1,1,0,1,1-1,1A1,1,0,0,1,59,27Zm-4-9a1,1,0,1,1-1,1A1,1,0,0,1,55,18ZM48,6a1,1,0,1,1-1,1A1,1,0,0,1,48,6ZM32,8a1,1,0,1,1-1,1A1,1,0,0,1,32,8ZM18,6a1,1,0,1,1,1-1A1,1,0,0,1,18,6ZM9,20a1,1,0,1,1,1-1A1,1,0,0,1,9,20ZM5,34a1,1,0,1,1,1-1A1,1,0,0,1,5,34ZM7,49a1,1,0,1,1,1-1A1,1,0,0,1,7,49ZM18,60a1,1,0,1,1,1-1A1,1,0,0,1,18,60Zm22-2a1,1,0,1,1-1,1A1,1,0,0,1,40,58Zm9-6a1,1,0,1,1-1,1A1,1,0,0,1,49,52ZM44,41a3,3,0,0,1-3,3H23a3,3,0,0,1-3-3V23a3,3,0,0,1,3-3H41a3,3,0,0,1,3,3Zm15,0a1,1,0,1,1,1-1A1,1,0,0,1,59,41Z"/></g></svg>
