<svg height="512" viewBox="0 0 64 64" width="512" xmlns="http://www.w3.org/2000/svg"><path d="m57 12h-1v-7a3 3 0 0 0 -3-3h-42a3 3 0 0 0 -3 3v7h-1a3 3 0 0 0 -3 3v30a3 3 0 0 0 3 3h18v6h-7a3 3 0 0 0 -3 3v4a1 1 0 0 0 1 1h32a1 1 0 0 0 1-1v-4a3 3 0 0 0 -3-3h-7v-6h18a3 3 0 0 0 3-3v-30a3 3 0 0 0 -3-3zm-47-7a1 1 0 0 1 1-1h42a1 1 0 0 1 1 1v3h-44zm44 5v30h-2v-7a1 1 0 0 0 -1-1h-4.856a15.307 15.307 0 0 0 -.606-1.465l3.43-3.439a1 1 0 0 0 0-1.413l-5.65-5.65a1 1 0 0 0 -1.413 0l-3.438 3.43a15.587 15.587 0 0 0 -1.467-.607v-4.856a1 1 0 0 0 -1-1h-8a1 1 0 0 0 -1 1v4.856a15.2 15.2 0 0 0 -1.465.606l-3.435-3.43a1 1 0 0 0 -1.413 0l-5.65 5.65a1 1 0 0 0 0 1.413l3.43 3.439a15.2 15.2 0 0 0 -.611 1.466h-4.856a1 1 0 0 0 -1 1v7h-2v-30zm-13.535 30a8.92 8.92 0 0 0 .535-3 9 9 0 1 0 -17.465 3h-9.535v-6h4.58a1 1 0 0 0 .958-.712 13.459 13.459 0 0 1 1.024-2.476 1 1 0 0 0 -.174-1.178l-3.234-3.243 4.237-4.237 3.243 3.234a1 1 0 0 0 1.178.174 13.459 13.459 0 0 1 2.476-1.024 1 1 0 0 0 .712-.958v-4.58h6v4.58a1 1 0 0 0 .712.958 13.376 13.376 0 0 1 2.475 1.024 1 1 0 0 0 1.179-.174l3.243-3.235 4.238 4.238-3.235 3.243a1 1 0 0 0 -.174 1.178 13.613 13.613 0 0 1 1.025 2.477 1 1 0 0 0 .957.711h4.58v6zm-14.765 0a6.9 6.9 0 0 1 -.7-3 7 7 0 0 1 14 0 6.88 6.88 0 0 1 -.7 3zm20.3 16a1 1 0 0 1 1 1v3h-30v-3a1 1 0 0 1 1-1zm-9-2h-10v-6h10zm21-9a1 1 0 0 1 -1 1h-50a1 1 0 0 1 -1-1v-30a1 1 0 0 1 1-1h1v28h48v-28h1a1 1 0 0 1 1 1z"/><path d="m12 5h2v2h-2z"/><path d="m16 5h2v2h-2z"/><path d="m20 5h2v2h-2z"/><path d="m31 21h2v2h-2z"/><path d="m20.394 25.394h2v2h-2z" transform="matrix(.707 -.707 .707 .707 -12.397 22.858)"/><path d="m16 36h2v2h-2z"/><path d="m46 36h2v2h-2z"/><path d="m41.607 25.394h2v2h-2z" transform="matrix(.707 -.707 .707 .707 -6.184 37.858)"/></svg>