<svg height="512" viewBox="0 0 64 64" width="512" xmlns="http://www.w3.org/2000/svg"><path d="m25 40h-8a1 1 0 0 1 -1-1v-4.921c-.235-.09-.472-.187-.711-.294l-3.482 3.482a1 1 0 0 1 -1.414 0l-5.66-5.66a1 1 0 0 1 0-1.414l3.482-3.482c-.107-.239-.2-.476-.294-.711h-4.921a1 1 0 0 1 -1-1v-8a1 1 0 0 1 1-1h4.921c.09-.235.187-.472.294-.711l-3.482-3.482a1 1 0 0 1 0-1.414l5.66-5.66a1 1 0 0 1 1.414 0l3.482 3.482c.239-.107.476-.2.711-.294v-4.921a1 1 0 0 1 1-1h8a1 1 0 0 1 1 1v4.921c.235.09.472.187.711.294l3.482-3.482a1.029 1.029 0 0 1 1.414 0l5.66 5.66a1 1 0 0 1 0 1.414l-3.482 3.482c.107.239.2.476.294.711h4.921a1 1 0 0 1 1 1v8a1 1 0 0 1 -1 1h-4.921c-.09.235-.187.472-.294.711l3.482 3.482a1 1 0 0 1 0 1.414l-5.66 5.66a1.029 1.029 0 0 1 -1.414 0l-3.482-3.482c-.239.107-.476.2-.711.294v4.921a1 1 0 0 1 -1 1zm-7-2h6v-4.63a1 1 0 0 1 .7-.953 12.323 12.323 0 0 0 1.776-.731 1 1 0 0 1 1.154.187l3.27 3.273 4.246-4.246-3.273-3.273a1 1 0 0 1 -.187-1.154 12.323 12.323 0 0 0 .731-1.776 1 1 0 0 1 .953-.7h4.63v-5.997h-4.63a1 1 0 0 1 -.953-.7 12.323 12.323 0 0 0 -.731-1.776 1 1 0 0 1 .187-1.154l3.273-3.27-4.246-4.246-3.273 3.273a1 1 0 0 1 -1.154.187 12.323 12.323 0 0 0 -1.773-.731 1 1 0 0 1 -.7-.953v-4.63h-6v4.63a1 1 0 0 1 -.7.953 12.323 12.323 0 0 0 -1.776.731 1 1 0 0 1 -1.154-.187l-3.27-3.273-4.246 4.246 3.273 3.273a1 1 0 0 1 .187 1.154 12.323 12.323 0 0 0 -.731 1.773 1 1 0 0 1 -.953.7h-4.63v6h4.63a1 1 0 0 1 .953.7 12.323 12.323 0 0 0 .731 1.776 1 1 0 0 1 -.187 1.154l-3.273 3.27 4.246 4.246 3.273-3.273a1 1 0 0 1 1.154-.187 12.323 12.323 0 0 0 1.776.731 1 1 0 0 1 .7.953z"/><path d="m21 28a7 7 0 1 1 7-7 7.008 7.008 0 0 1 -7 7zm0-12a5 5 0 1 0 5 5 5.006 5.006 0 0 0 -5-5z"/><path d="m18 62h-4a1 1 0 0 1 -1-1v-1.756l-1.243 1.243a1 1 0 0 1 -1.414 0l-2.83-2.83a1 1 0 0 1 0-1.414l1.243-1.243h-1.756a1 1 0 0 1 -1-1v-4a1 1 0 0 1 1-1h1.756l-1.243-1.243a1 1 0 0 1 0-1.414l2.83-2.83a1 1 0 0 1 1.414 0l1.243 1.243v-1.756a1 1 0 0 1 1-1h4a1 1 0 0 1 1 1v1.756l1.243-1.243a1 1 0 0 1 1.414 0l2.83 2.83a1 1 0 0 1 0 1.414l-1.243 1.243h1.756a1 1 0 0 1 1 1v4a1 1 0 0 1 -1 1h-1.756l1.243 1.243a1 1 0 0 1 0 1.414l-2.83 2.83a1 1 0 0 1 -1.414 0l-1.243-1.243v1.756a1 1 0 0 1 -1 1zm-3-2h2v-2.35a1 1 0 0 1 .713-.958 2.262 2.262 0 0 0 .4-.168 1 1 0 0 1 1.171.179l1.663 1.663 1.416-1.416-1.663-1.663a1 1 0 0 1 -.179-1.171 2.262 2.262 0 0 0 .168-.4 1 1 0 0 1 .961-.716h2.35v-2h-2.35a1 1 0 0 1 -.958-.713 2.262 2.262 0 0 0 -.168-.4 1 1 0 0 1 .179-1.171l1.663-1.663-1.416-1.419-1.663 1.666a1 1 0 0 1 -1.171.179 2.262 2.262 0 0 0 -.4-.168 1 1 0 0 1 -.716-.961v-2.35h-2v2.35a1 1 0 0 1 -.713.958 2.262 2.262 0 0 0 -.4.168 1 1 0 0 1 -1.171-.179l-1.666-1.663-1.416 1.416 1.666 1.663a1 1 0 0 1 .179 1.171 2.262 2.262 0 0 0 -.168.4 1 1 0 0 1 -.961.716h-2.35v2h2.35a1 1 0 0 1 .958.713 2.262 2.262 0 0 0 .168.4 1 1 0 0 1 -.179 1.171l-1.663 1.666 1.416 1.416 1.663-1.666a1 1 0 0 1 1.171-.179 2.262 2.262 0 0 0 .4.168 1 1 0 0 1 .716.961z"/><path d="m50 62h-6a1 1 0 0 1 -1-1v-3.753c-.144-.057-.283-.115-.419-.174l-2.654 2.654a1 1 0 0 1 -.707.293 1 1 0 0 1 -.707-.293l-4.24-4.24a1 1 0 0 1 0-1.414l2.654-2.655c-.06-.135-.117-.274-.174-.418h-3.753a1 1 0 0 1 -1-1v-6a1 1 0 0 1 1-1h3.753c.057-.144.114-.283.174-.419l-2.654-2.654a1 1 0 0 1 0-1.414l4.24-4.24a1.029 1.029 0 0 1 1.414 0l2.654 2.654c.136-.059.275-.117.419-.174v-3.753a1 1 0 0 1 1-1h6a1 1 0 0 1 1 1v3.753c.144.057.283.115.419.174l2.654-2.654a1 1 0 0 1 .707-.293 1 1 0 0 1 .707.293l4.24 4.24a1 1 0 0 1 0 1.414l-2.654 2.654c.06.136.117.275.174.419h3.753a1 1 0 0 1 1 1v6a1 1 0 0 1 -1 1h-3.753c-.057.144-.114.283-.174.418l2.654 2.655a1 1 0 0 1 0 1.414l-4.24 4.24a1.029 1.029 0 0 1 -1.414 0l-2.654-2.654c-.136.059-.275.117-.419.174v3.753a1 1 0 0 1 -1 1zm-5-2h4v-3.46a1 1 0 0 1 .693-.952 8.112 8.112 0 0 0 1.446-.605 1 1 0 0 1 1.188.17l2.453 2.453 2.825-2.826-2.452-2.453a1 1 0 0 1 -.17-1.187 8.225 8.225 0 0 0 .605-1.446 1 1 0 0 1 .952-.694h3.46v-4h-3.46a1 1 0 0 1 -.952-.694 8.225 8.225 0 0 0 -.605-1.446 1 1 0 0 1 .17-1.187l2.452-2.453-2.825-2.826-2.453 2.453a1 1 0 0 1 -1.188.17 8.112 8.112 0 0 0 -1.446-.605 1 1 0 0 1 -.693-.952v-3.46h-4v3.46a1 1 0 0 1 -.693.952 8.112 8.112 0 0 0 -1.446.605 1 1 0 0 1 -1.188-.17l-2.453-2.453-2.82 2.826 2.452 2.453a1 1 0 0 1 .17 1.187 8.225 8.225 0 0 0 -.605 1.446 1 1 0 0 1 -.957.694h-3.46v4h3.46a1 1 0 0 1 .952.694 8.225 8.225 0 0 0 .605 1.446 1 1 0 0 1 -.17 1.187l-2.447 2.453 2.825 2.826 2.453-2.453a1 1 0 0 1 1.188-.17 8.112 8.112 0 0 0 1.446.605 1 1 0 0 1 .688.952z"/><path d="m47 52a5 5 0 1 1 5-5 5.006 5.006 0 0 1 -5 5zm0-8a3 3 0 1 0 3 3 3 3 0 0 0 -3-3z"/><path d="m55 26h-4a1 1 0 0 1 -1-1v-.756l-.533.533a1 1 0 0 1 -1.414 0l-2.83-2.83a1 1 0 0 1 0-1.414l.533-.533h-.756a1 1 0 0 1 -1-1v-4a1 1 0 0 1 1-1h.756l-.533-.533a1 1 0 0 1 0-1.414l2.83-2.83a1 1 0 0 1 1.414 0l.533.533v-.756a1 1 0 0 1 1-1h4a1 1 0 0 1 1 1v.756l.533-.533a1 1 0 0 1 1.414 0l2.83 2.83a1 1 0 0 1 0 1.414l-.533.533h.756a1 1 0 0 1 1 1v4a1 1 0 0 1 -1 1h-.756l.533.533a1 1 0 0 1 0 1.414l-2.83 2.83a1 1 0 0 1 -1.414 0l-.533-.533v.756a1 1 0 0 1 -1 1zm-3-2h2v-2.17a1 1 0 0 1 1.707-.707l1.533 1.533 1.416-1.416-1.533-1.533a1 1 0 0 1 .707-1.707h2.17v-2h-2.17a1 1 0 0 1 -.707-1.707l1.533-1.533-1.416-1.416-1.533 1.533a1 1 0 0 1 -1.707-.707v-2.17h-2v2.17a1 1 0 0 1 -1.707.707l-1.533-1.533-1.416 1.416 1.533 1.533a1 1 0 0 1 -.707 1.707h-2.17v2h2.17a1 1 0 0 1 .707 1.707l-1.533 1.533 1.416 1.416 1.533-1.533a1 1 0 0 1 1.707.707z"/><path d="m53 20a3 3 0 1 1 3-3 3 3 0 0 1 -3 3zm0-4a1 1 0 1 0 1 1 1 1 0 0 0 -1-1z"/><path d="m16 56a4 4 0 1 1 4-4 4 4 0 0 1 -4 4zm0-6a2 2 0 1 0 2 2 2 2 0 0 0 -2-2z"/><path d="m10.101 10.101h2v2h-2z" transform="matrix(.707 -.707 .707 .707 -4.598 11.101)"/><path d="m6 20h2v2h-2z"/><path d="m10.101 29.9h2v2h-2z" transform="matrix(.707 -.707 .707 .707 -18.598 16.9)"/><path d="m20 34h2v2h-2z"/><path d="m29.9 29.9h2v2h-2z" transform="matrix(.707 -.707 .707 .707 -12.799 30.899)"/><path d="m34 20h2v2h-2z"/><path d="m29.9 10.101h2v2h-2z" transform="matrix(.707 -.707 .707 .707 1.201 25.1)"/><path d="m46 35h2v2h-2z"/><path d="m38.222 38.222h2v2h-2z" transform="matrix(.707 -.707 .707 .707 -16.246 39.222)"/><path d="m35 46h2v2h-2z"/><path d="m38.222 53.778h2v2h-2z" transform="matrix(.707 -.707 .707 .707 -27.246 43.778)"/><path d="m46 57h2v2h-2z"/><path d="m53.778 53.778h2v2h-2z" transform="matrix(.707 -.707 .707 .707 -22.69 54.778)"/><path d="m57 46h2v2h-2z"/><path d="m53.778 38.222h2v2h-2z" transform="matrix(.707 -.707 .707 .707 -11.69 50.222)"/><path d="m20 6h2v2h-2z"/></svg>