<svg height="512" viewBox="0 0 64 64" width="512" xmlns="http://www.w3.org/2000/svg"><g id="Setting_data" data-name="Setting data"><path d="m6 17h2v2h-2z"/><path d="m10 17h2v2h-2z"/><path d="m14 17h2v2h-2z"/><path d="m59 2h-46a3 3 0 0 0 -3 3v9h-5a3 3 0 0 0 -3 3v36a3 3 0 0 0 3 3h8v-2h-8a1 1 0 0 1 -1-1v-31h48v31a1 1 0 0 1 -1 1h-8v2h8a3 3 0 0 0 3-3v-9h5a3 3 0 0 0 3-3v-36a3 3 0 0 0 -3-3zm-55 18v-3a1 1 0 0 1 1-1h46a1 1 0 0 1 1 1v3zm56 21a1 1 0 0 1 -1 1h-5v-25a3 3 0 0 0 -3-3h-39v-4h48zm-48-33v-3a1 1 0 0 1 1-1h46a1 1 0 0 1 1 1v3z"/><path d="m14 5h2v2h-2z"/><path d="m18 5h2v2h-2z"/><path d="m22 5h2v2h-2z"/><path d="m43 44a1 1 0 0 0 -1-1h-3.753c-.057-.144-.114-.283-.174-.419l2.654-2.654a1 1 0 0 0 0-1.414l-4.24-4.24a1 1 0 0 0 -1.414 0l-2.654 2.654c-.136-.059-.275-.117-.419-.174v-3.753a1 1 0 0 0 -1-1h-6a1 1 0 0 0 -1 1v3.753c-.144.057-.283.115-.419.174l-2.654-2.654a1.029 1.029 0 0 0 -1.414 0l-4.24 4.24a1 1 0 0 0 0 1.414l2.654 2.654c-.06.136-.117.275-.174.419h-3.753a1 1 0 0 0 -1 1v6a1 1 0 0 0 1 1h3.753c.057.144.114.283.174.418l-2.654 2.655a1 1 0 0 0 0 1.414l4.24 4.24a1 1 0 0 0 1.414 0l2.654-2.654c.136.059.275.117.419.174v3.753a1 1 0 0 0 1 1h6a1 1 0 0 0 1-1v-3.753c.144-.057.283-.115.419-.174l2.654 2.654a1.029 1.029 0 0 0 1.414 0l4.24-4.24a1 1 0 0 0 0-1.414l-2.654-2.655c.06-.135.117-.274.174-.418h3.753a1 1 0 0 0 1-1zm-2 5h-3.46a1 1 0 0 0 -.952.694 8.225 8.225 0 0 1 -.605 1.446 1 1 0 0 0 .17 1.187l2.447 2.453-2.82 2.826-2.453-2.453a1 1 0 0 0 -1.188-.17 8.112 8.112 0 0 1 -1.446.605 1 1 0 0 0 -.693.952v3.46h-4v-3.46a1 1 0 0 0 -.693-.952 8.112 8.112 0 0 1 -1.446-.605 1 1 0 0 0 -1.188.17l-2.453 2.453-2.82-2.826 2.452-2.453a1 1 0 0 0 .17-1.187 8.225 8.225 0 0 1 -.605-1.446 1 1 0 0 0 -.957-.694h-3.46v-4h3.46a1 1 0 0 0 .952-.694 8.225 8.225 0 0 1 .605-1.446 1 1 0 0 0 -.17-1.187l-2.447-2.453 2.825-2.826 2.453 2.453a1 1 0 0 0 1.188.17 8.112 8.112 0 0 1 1.446-.605 1 1 0 0 0 .688-.952v-3.46h4v3.46a1 1 0 0 0 .693.952 8.112 8.112 0 0 1 1.446.605 1 1 0 0 0 1.188-.17l2.453-2.453 2.82 2.826-2.452 2.453a1 1 0 0 0 -.17 1.187 8.225 8.225 0 0 1 .605 1.446 1 1 0 0 0 .957.694h3.46z"/><path d="m28 42a5 5 0 1 0 5 5 5.006 5.006 0 0 0 -5-5zm0 8a3 3 0 1 1 3-3 3 3 0 0 1 -3 3z"/><path d="m16 24h24v2h-24z"/><path d="m42 24h2v2h-2z"/><path d="m16 28h24v2h-24z"/><path d="m42 28h2v2h-2z"/><path d="m12 24h2v2h-2z"/><path d="m12 28h2v2h-2z"/><path d="m14 36v-2h-8v18h5v-2h-3v-14z"/><path d="m42 36h6v14h-3v2h5v-18h-8z"/><path d="m27 35h2v2h-2z"/><path d="m19.222 38.222h2v2h-2z" transform="matrix(.707 -.707 .707 .707 -21.811 25.787)"/><path d="m16 46h2v2h-2z"/><path d="m19.222 53.778h2v2h-2z" transform="matrix(.707 -.707 .707 .707 -32.811 30.343)"/><path d="m27 57h2v2h-2z"/><path d="m34.778 53.778h2v2h-2z" transform="matrix(.707 -.707 .707 .707 -28.255 41.343)"/><path d="m38 46h2v2h-2z"/><path d="m34.778 38.222h2v2h-2z" transform="matrix(.707 -.707 .707 .707 -17.255 36.787)"/></g></svg>