<?xml version="1.0"?>
<svg xmlns="http://www.w3.org/2000/svg" viewBox="0 0 64 64" width="512" height="512"><g id="Brain"><path d="M23,23a1,1,0,0,0,1-1,3,3,0,0,0-3-3H20a1,1,0,0,0,0,2h1a1,1,0,0,1,1,1A1,1,0,0,0,23,23Z"/><path d="M14,28a4,4,0,0,0-4,4,1,1,0,0,0,2,0,2,2,0,0,1,4,0,1,1,0,0,0,2,0A4,4,0,0,0,14,28Z"/><path d="M15,13a5.006,5.006,0,0,0-5,5,1,1,0,0,0,2,0,3,3,0,0,1,3-3,1,1,0,0,0,0-2Z"/><path d="M25,12a2,2,0,0,1-2-2,1,1,0,0,0-2,0,4,4,0,0,0,4,4,1,1,0,0,0,0-2Z"/><path d="M62,32a10,10,0,0,0-5.563-8.948A8.978,8.978,0,0,0,46.955,9.243,8.284,8.284,0,0,0,39.116,2a7.915,7.915,0,0,0-6.374,3.014.993.993,0,0,1-1.484,0A7.953,7.953,0,0,0,24.885,2a8.285,8.285,0,0,0-7.84,7.242A8.985,8.985,0,0,0,7.563,23.052,10,10,0,0,0,2,32a9.868,9.868,0,0,0,3.24,7.336A5.986,5.986,0,0,0,11,47c.027,0,.049-.007.076-.007a6.974,6.974,0,0,0,6,5.94A8.355,8.355,0,0,0,17,53.91,8.019,8.019,0,0,0,23.693,61.9a7.879,7.879,0,0,0,8.287-4.051A7.932,7.932,0,0,0,38.989,62a8.44,8.44,0,0,0,1.318-.1A8.019,8.019,0,0,0,47,53.909a8.355,8.355,0,0,0-.078-.976,6.975,6.975,0,0,0,6-5.937c.026,0,.05,0,.076,0a5.986,5.986,0,0,0,5.76-7.664A9.868,9.868,0,0,0,62,32Zm-9,3a1,1,0,0,0,0,2,4,4,0,0,1,0,8c-.029,0-.051-.007-.079-.008A7.229,7.229,0,0,0,45.748,39H44a1,1,0,0,0,0,2h1.748A5.17,5.17,0,0,1,51,45.846,5,5,0,1,1,41,46a3,3,0,0,0-3.5-2.959A3.082,3.082,0,0,0,35,46.107V47a1,1,0,0,1-1,1H33a1,1,0,0,0,0,2h1a3,3,0,0,0,3-3v-.893a1.086,1.086,0,0,1,.824-1.093,1.009,1.009,0,0,1,.823.224A1,1,0,0,1,39,46a7,7,0,0,0,5.891,6.9,5.954,5.954,0,0,1-4.9,7.018,5.988,5.988,0,0,1-6.26-3.038,1.984,1.984,0,0,0-3.468,0,5.977,5.977,0,0,1-6.26,3.038,5.955,5.955,0,0,1-4.9-7.018A7,7,0,0,0,25,46a1,1,0,0,1,2,0v1a1,1,0,0,0,2,0V46a3,3,0,0,0-6,0,5,5,0,1,1-10-.155A5.17,5.17,0,0,1,18.252,41H20a1,1,0,0,0,0-2H18.252a7.229,7.229,0,0,0-7.173,5.992c-.028,0-.05.008-.079.008a4,4,0,0,1,0-8,1,1,0,0,0,0-2,5.988,5.988,0,0,0-4.83,2.456A7.9,7.9,0,0,1,4,32a8.009,8.009,0,0,1,5.492-7.591c.016-.006.032-.011.047-.018a7.982,7.982,0,0,1,7.913,1.755,1,1,0,1,0,1.363-1.463A9.917,9.917,0,0,0,9.5,22.328,7,7,0,0,1,15,11a6.848,6.848,0,0,1,2.116.332A7.991,7.991,0,0,0,25,18h2a3,3,0,0,0,3-3,1,1,0,0,0-2,0,1,1,0,0,1-1,1H25a6,6,0,0,1-6-6.086A6.274,6.274,0,0,1,24.913,4a5.956,5.956,0,0,1,4.78,2.261,2.966,2.966,0,0,0,4.614,0A5.958,5.958,0,0,1,39.088,4,6.274,6.274,0,0,1,45,9.915,6,6,0,0,1,39,16H38a3,3,0,0,0-3,3,1,1,0,0,0,2,0,1,1,0,0,1,1-1h1a7.991,7.991,0,0,0,7.884-6.668A6.848,6.848,0,0,1,49,11a7,7,0,0,1,5.5,11.328,9.917,9.917,0,0,0-9.313,2.355,1,1,0,1,0,1.363,1.463,7.98,7.98,0,0,1,7.912-1.755c.016.007.032.012.049.018A8.01,8.01,0,0,1,60,32a7.9,7.9,0,0,1-2.17,5.456A5.988,5.988,0,0,0,53,35Z"/><path d="M46,21a1,1,0,0,0-1-1H44a3,3,0,0,0-3,3,1,1,0,0,0,2,0,1,1,0,0,1,1-1h1A1,1,0,0,0,46,21Z"/><path d="M50,29a1,1,0,0,0,0-2,4,4,0,0,0,0,8,1,1,0,0,0,0-2,2,2,0,0,1,0-4Z"/><path d="M49,15a3,3,0,0,1,3,3,1,1,0,0,0,2,0,5.006,5.006,0,0,0-5-5,1,1,0,0,0,0,2Z"/><path d="M36,11a1,1,0,0,0,1-1,2,2,0,0,1,2-2,1,1,0,0,0,0-2,4,4,0,0,0-4,4A1,1,0,0,0,36,11Z"/><path d="M35,28H29a1,1,0,0,0-1,1v6a1,1,0,0,0,1,1h6a1,1,0,0,0,1-1V29A1,1,0,0,0,35,28Zm-1,6H30V30h4Z"/><path d="M41,29a1,1,0,0,0,0-2H39V26a1,1,0,0,0-1-1H37V23a1,1,0,0,0-2,0v2H33V23a1,1,0,0,0-2,0v2H29V23a1,1,0,0,0-2,0v2H26a1,1,0,0,0-1,1v1H23a1,1,0,0,0,0,2h2v2H23a1,1,0,0,0,0,2h2v2H23a1,1,0,0,0,0,2h2v1a1,1,0,0,0,1,1h1v2a1,1,0,0,0,2,0V39h2v2a1,1,0,0,0,2,0V39h2v2a1,1,0,0,0,2,0V39h1a1,1,0,0,0,1-1V37h2a1,1,0,0,0,0-2H39V33h2a1,1,0,0,0,0-2H39V29Zm-4,8H27V27H37Z"/><path d="M46,49a3,3,0,0,0,3-3,1,1,0,0,0-2,0,1,1,0,0,1-1,1,1,1,0,0,0,0,2Z"/><path d="M18,43a1,1,0,0,0,0,2,1,1,0,0,1,1,1,1,1,0,0,0,2,0A3,3,0,0,0,18,43Z"/><path d="M26,56a2,2,0,0,1-2-2,1,1,0,0,0-2,0,4,4,0,0,0,4,4,1,1,0,0,0,0-2Z"/><path d="M38,58a4,4,0,0,0,4-4,1,1,0,0,0-2,0,2,2,0,0,1-2,2,1,1,0,0,0,0,2Z"/></g></svg>
