<svg height="512" viewBox="0 0 64 64" width="512" xmlns="http://www.w3.org/2000/svg"><g id="Divice_security" data-name="Divice security"><path d="m47 62h-30a5.006 5.006 0 0 1 -5-5v-50a5.006 5.006 0 0 1 5-5h30a5.006 5.006 0 0 1 5 5v50a5.006 5.006 0 0 1 -5 5zm-30-58a3 3 0 0 0 -3 3v50a3 3 0 0 0 3 3h30a3 3 0 0 0 3-3v-50a3 3 0 0 0 -3-3z"/><path d="m46 58h-28a2 2 0 0 1 -2-2v-48a2 2 0 0 1 2-2h5.465a2 2 0 0 1 1.664.891l1.406 2.109h10.93l1.406-2.109a2 2 0 0 1 1.664-.891h5.465a2 2 0 0 1 2 2v48a2 2 0 0 1 -2 2zm-28-50v48h28v-48h-5.465l-1.406 2.109a2 2 0 0 1 -1.664.891h-10.93a2 2 0 0 1 -1.664-.891l-1.406-2.109z"/><path d="m39 28.1v-3.1a7 7 0 0 0 -14 0v3.1a5.009 5.009 0 0 0 -4 4.9v12a5.006 5.006 0 0 0 5 5h12a5.006 5.006 0 0 0 5-5v-12a5.009 5.009 0 0 0 -4-4.9zm-12-3.1a5 5 0 0 1 10 0v3h-10zm14 20a3 3 0 0 1 -3 3h-12a3 3 0 0 1 -3-3v-12a3 3 0 0 1 3-3h12a3 3 0 0 1 3 3z"/><path d="m33 42h2v-2h-2v-2.184a3 3 0 1 0 -2 0v8.184h2v-1h2v-2h-2zm-1-8a1 1 0 1 1 -1 1 1 1 0 0 1 1-1z"/><path d="m54 31h8v2h-8z"/><path d="m54 25h4v2h-4z"/><path d="m60 25h2v2h-2z"/><path d="m54 19h8v2h-8z"/><path d="m54 13h4v2h-4z"/><path d="m60 13h2v2h-2z"/><path d="m54 7h4v2h-4z"/><path d="m60 7h2v2h-2z"/><path d="m54 37h4v2h-4z"/><path d="m60 37h2v2h-2z"/><path d="m54 43h8v2h-8z"/><path d="m54 49h4v2h-4z"/><path d="m60 49h2v2h-2z"/><path d="m54 55h4v2h-4z"/><path d="m60 55h2v2h-2z"/><path d="m2 31h8v2h-8z"/><path d="m6 25h4v2h-4z"/><path d="m2 25h2v2h-2z"/><path d="m2 19h8v2h-8z"/><path d="m6 13h4v2h-4z"/><path d="m2 13h2v2h-2z"/><path d="m6 7h4v2h-4z"/><path d="m2 7h2v2h-2z"/><path d="m6 37h4v2h-4z"/><path d="m2 37h2v2h-2z"/><path d="m2 43h8v2h-8z"/><path d="m6 49h4v2h-4z"/><path d="m2 49h2v2h-2z"/><path d="m6 55h4v2h-4z"/><path d="m2 55h2v2h-2z"/></g></svg>