<svg height="512" viewBox="0 0 64 64" width="512" xmlns="http://www.w3.org/2000/svg"><path d="m30 46h2v-2h-2v-3.142a4 4 0 1 0 -2 0v11.142h2v-2h2v-2h-2zm-3-9a2 2 0 1 1 2 2 2 2 0 0 1 -2-2z"/><path d="m29 58.2-6.32-4.214a14.969 14.969 0 0 1 -6.68-12.479v-9.228l13-4.333 13 4.333v9.228a14.969 14.969 0 0 1 -6.68 12.481zm-11-24.479v7.786a12.973 12.973 0 0 0 5.789 10.817l5.211 3.476 5.211-3.474a12.973 12.973 0 0 0 5.789-10.819v-7.786l-11-3.667z"/><path d="m30 10a4 4 0 1 1 4-4 4 4 0 0 1 -4 4zm0-6a2 2 0 1 0 2 2 2 2 0 0 0 -2-2z"/><path d="m16 13h2v8h-2z"/><path d="m22 2h2v8h-2z"/><path d="m24.006 21c-.078 0-.157 0-.235-.006a4.024 4.024 0 1 1 .235.006zm-.006-6a2 2 0 1 0 2 2.114 2 2 0 0 0 -1.886-2.114q-.058 0-.114 0z"/><path d="m30 13h2v8h-2z"/><path d="m6 10a4 4 0 1 1 4-4 4 4 0 0 1 -4 4zm0-6a2 2 0 1 0 2 2 2 2 0 0 0 -2-2z"/><path d="m12 13h2v8h-2z"/><path d="m16 10a4 4 0 1 1 4-4 4 4 0 0 1 -4 4zm0-6a2 2 0 1 0 2 2 2 2 0 0 0 -2-2z"/><path d="m6 21a4 4 0 1 1 4-4 4 4 0 0 1 -4 4zm0-6a2 2 0 1 0 2 2 2 2 0 0 0 -2-2z"/><path d="m48 2a13.015 13.015 0 0 0 -13 13v9h-20a5.006 5.006 0 0 0 -5 5v28a5.006 5.006 0 0 0 5 5h28a5.006 5.006 0 0 0 5-5v-28a5.006 5.006 0 0 0 -5-5h-2v-9a7.01 7.01 0 0 1 7.481-6.984 7.168 7.168 0 0 1 6.519 7.267v7.717a3 3 0 0 0 6 0v-8a13.015 13.015 0 0 0 -13-13zm-2 27v28a3 3 0 0 1 -3 3h-28a3 3 0 0 1 -3-3v-28a3 3 0 0 1 3-3h28a3 3 0 0 1 3 3zm13-6a1 1 0 0 1 -2 0v-7.717a9.171 9.171 0 0 0 -8.385-9.262 8.918 8.918 0 0 0 -6.758 2.407 9.034 9.034 0 0 0 -2.857 6.572v9h-2v-9a11 11 0 0 1 22 0z"/></svg>