<svg height="512" viewBox="0 0 64 64" width="512" xmlns="http://www.w3.org/2000/svg"><g id="Eye_scanner" data-name="Eye scanner"><path d="m62 21h-2v-11h-11v-2h13z"/><path d="m4 21h-2v-13h13v2h-11z"/><path d="m62 56h-13v-2h11v-11h2z"/><path d="m15 56h-13v-13h2v11h11z"/><path d="m61.726 31.312c-.633-.666-15.652-16.312-29.726-16.312s-29.093 15.646-29.725 16.312l-.654.688.654.688c.632.666 15.65 16.312 29.725 16.312s29.093-15.646 29.726-16.312l.653-.688zm-29.726 15.688a15.007 15.007 0 0 1 -14.949-14h6.008a9 9 0 0 0 17.882 0h6.008a15.006 15.006 0 0 1 -14.949 14zm-1-23.941a8.956 8.956 0 0 0 -4.611 1.916l-4.25-4.25a14.912 14.912 0 0 1 8.861-3.674zm1 1.941a7 7 0 1 1 -7 7 7.008 7.008 0 0 1 7-7zm5.611-.025a8.956 8.956 0 0 0 -4.611-1.916v-6.008a14.912 14.912 0 0 1 8.861 3.674zm-16.886-2.836 4.25 4.25a8.956 8.956 0 0 0 -1.916 4.611h-6.008a14.912 14.912 0 0 1 3.674-8.861zm20.216 8.861a8.956 8.956 0 0 0 -1.916-4.611l4.25-4.25a14.912 14.912 0 0 1 3.674 8.861zm-21.715-10.181a16.9 16.9 0 0 0 0 22.362 71.178 71.178 0 0 1 -14.816-11.181 71.178 71.178 0 0 1 14.816-11.181zm25.543 22.368a16.9 16.9 0 0 0 .005-22.368 71.221 71.221 0 0 1 14.817 11.181 71.082 71.082 0 0 1 -14.822 11.187z"/><path d="m35 32h2a5.006 5.006 0 0 0 -5-5v2a3 3 0 0 1 3 3z"/><path d="m21.152 33.833-1.972.334a13.135 13.135 0 0 0 .43 1.779l1.907-.606a11.031 11.031 0 0 1 -.365-1.507z"/><path d="m26.587 43.822a12.89 12.89 0 0 0 2.037.735l.518-1.932a10.976 10.976 0 0 1 -1.721-.625z"/><path d="m23.02 41.4a13.008 13.008 0 0 0 1.682 1.36l1.124-1.654a11.02 11.02 0 0 1 -1.426-1.152z"/><path d="m30.942 42.95-.188 1.991q.615.059 1.246.059.46 0 .914-.032l-.14-2a11.223 11.223 0 0 1 -1.832-.018z"/><path d="m22.216 37.031-1.779.915a13.038 13.038 0 0 0 1.148 1.835l1.6-1.2a10.975 10.975 0 0 1 -.969-1.55z"/><path d="m40.643 38.806 1.568 1.24a12.852 12.852 0 0 0 1.2-1.8l-1.754-.96a11 11 0 0 1 -1.014 1.52z"/><path d="m42.848 33.835a10.923 10.923 0 0 1 -.452 1.771l1.888.658a12.794 12.794 0 0 0 .536-2.1z"/><path d="m37.937 41.261 1.081 1.682a13.023 13.023 0 0 0 1.717-1.316l-1.343-1.481a11.22 11.22 0 0 1 -1.455 1.115z"/><path d="m34.585 42.7.469 1.945a12.948 12.948 0 0 0 2.054-.682l-.787-1.839a10.8 10.8 0 0 1 -1.736.576z"/></g></svg>