<?xml version="1.0"?>
<svg xmlns="http://www.w3.org/2000/svg" viewBox="0 0 64 64" width="512" height="512"><g id="Fingerprint"><path d="M32,59c-.347,0-.691-.006-1.035-.019l.07-2c.641.023,1.289.023,1.93,0l.07,2C32.691,58.994,32.347,59,32,59Z"/><path d="M57.715,27.147c-.1-.64-.217-1.288-.362-1.925l1.951-.444c.155.687.287,1.385.389,2.075Z"/><path d="M56.835,23.3A26,26,0,0,0,34.89,5.159l.22-1.987A28,28,0,0,1,58.745,22.7Z"/><path d="M30.073,5.071l-.146-1.995a28.326,28.326,0,0,1,3.108-.057l-.07,2A26.635,26.635,0,0,0,30.073,5.071Z"/><path d="M6.646,25.222,4.7,24.778A28.178,28.178,0,0,1,27.853,3.306l.294,1.979A26.166,26.166,0,0,0,6.646,25.222Z"/><path d="M6.07,29.074l-1.994-.148c.051-.7.129-1.394.231-2.074l1.978.3C6.19,27.779,6.118,28.427,6.07,29.074Z"/><path d="M28.89,58.829c-.692-.077-1.389-.182-2.076-.31l.372-1.966c.635.12,1.283.217,1.924.287Z"/><path d="M17.392,50.044A24.008,24.008,0,0,1,9.826,21.812l1.848.767a22.005,22.005,0,0,0,6.934,25.878Z"/><path d="M32,54.986a24.008,24.008,0,0,1-12-3.2l1-1.733a22.07,22.07,0,0,0,17.591,1.927l.6,1.908A24.031,24.031,0,0,1,32,54.986Z"/><path d="M41.181,53.165l-.764-1.849a22.026,22.026,0,0,0,3.4-1.763l1.073,1.689A24.259,24.259,0,0,1,41.181,53.165Z"/><path d="M46.607,50.043l-1.214-1.589A21.813,21.813,0,0,0,51.053,42a22.05,22.05,0,0,0-5.661-28.457l1.216-1.587A24.054,24.054,0,0,1,52.785,43,23.8,23.8,0,0,1,46.607,50.043Z"/><path d="M14.544,17.607l-1.588-1.215A24.056,24.056,0,0,1,44,10.215l-1,1.733A22.048,22.048,0,0,0,14.544,17.607Z"/><path d="M12.485,20.841l-1.771-.928c.16-.307.327-.61.5-.912s.355-.6.54-.892l1.689,1.071q-.257.4-.5.821C12.787,20.277,12.634,20.559,12.485,20.841Z"/><path d="M12.027,32.053C12.009,31.705,12,31.353,12,31s.009-.7.027-1.053l2,.106c-.016.314-.025.629-.025.947s.009.633.025.947Z"/><path d="M32,51A20.154,20.154,0,0,1,12.249,34.157l1.975-.314a18,18,0,0,0,35.552,0l1.975.314A20.154,20.154,0,0,1,32,51Z"/><path d="M52,31H50a17.926,17.926,0,0,0-2.7-9.472L49,20.472A19.924,19.924,0,0,1,52,31Z"/><path d="M45.946,19.633a18.11,18.11,0,0,0-1.631-1.748l1.37-1.458a20.389,20.389,0,0,1,1.81,1.94Z"/><path d="M42.42,16.331a17.972,17.972,0,0,0-18-1.657l-.846-1.813a19.974,19.974,0,0,1,20,1.841Z"/><path d="M14.224,28.157l-1.975-.314A20.007,20.007,0,0,1,21.473,14l1.054,1.7A18.01,18.01,0,0,0,14.224,28.157Z"/><path d="M32.934,17.031a14.2,14.2,0,0,0-1.868,0l-.132-1.995a16.136,16.136,0,0,1,2.132,0Z"/><path d="M30.934,46.965A16,16,0,0,1,28.8,15.321l.4,1.96a14,14,0,0,0,1.867,27.688Z"/><path d="M33.066,46.965l-.132-2A14.012,14.012,0,0,0,45.5,34.733l1.928.534A16.018,16.018,0,0,1,33.066,46.965Z"/><path d="M47.858,33.133l-1.982-.266A14.119,14.119,0,0,0,46,31h2A16.088,16.088,0,0,1,47.858,33.133Z"/><path d="M45.876,29.133A14,14,0,0,0,34.8,17.281l.4-1.96A16,16,0,0,1,47.858,28.867Z"/><path d="M41.079,26.808c-.126-.273-.267-.543-.42-.809s-.315-.52-.489-.766l1.635-1.152q.31.441.587.918t.5.97Z"/><path d="M20.364,33.938a12,12,0,0,1,20-11.545L38.97,23.827A10,10,0,0,0,22.3,33.449Z"/><path d="M22.2,37.919q-.311-.441-.587-.918t-.5-.97l1.817-.839q.189.41.42.809t.489.766Z"/><path d="M32.018,42.989a12.019,12.019,0,0,1-8.38-3.382l1.392-1.434A10,10,0,0,0,41.7,28.551l1.94-.489A11.979,11.979,0,0,1,32.018,42.989Z"/><path d="M26.427,28.774l-1.856-.745A8.381,8.381,0,0,1,25.07,27a8.243,8.243,0,0,1,.644-.949l1.572,1.235A5.945,5.945,0,0,0,26.8,28,6.066,6.066,0,0,0,26.427,28.774Z"/><path d="M31.981,39A7.94,7.94,0,0,1,28,37.928a8.047,8.047,0,0,1-3.974-7.571l2,.158A6.036,6.036,0,0,0,29,36.2,6,6,0,0,0,35,25.8a6.039,6.039,0,0,0-6.41.259l-1.133-1.647A8.047,8.047,0,0,1,36,24.072a8,8,0,0,1-1.93,14.652A8.071,8.071,0,0,1,31.981,39Z"/><path d="M62,61.936l-2-31h0c0-.673-.025-1.349-.074-2.01l-1.994.148c.047.633.07,1.281.07,1.926A25.964,25.964,0,0,1,34.89,56.841l.22,1.987A27.952,27.952,0,0,0,58.57,39.862L60,62.064Z"/><path d="M6,31H5l-1-.064-2,31,2,.128L5.434,39.8A28.053,28.053,0,0,0,24.74,58.046l.52-1.932A26.046,26.046,0,0,1,6,31Z"/><path d="M32,35a4,4,0,0,1,0-8v2a2,2,0,1,0,1.886,1.333l1.886-.666A4,4,0,0,1,32,35Z"/></g></svg>
