<?xml version="1.0"?>
<svg xmlns="http://www.w3.org/2000/svg" viewBox="0 0 64 64" width="512" height="512"><g id="Data_encryption-2" data-name="Data encryption"><path d="M61,52H60V23a5.006,5.006,0,0,0-5-5H44V17a5.006,5.006,0,0,0-5-5V9A7,7,0,0,0,25,9v3a5.006,5.006,0,0,0-5,5v1H9a5.006,5.006,0,0,0-5,5V52H3a1,1,0,0,0-1,1v4a5.006,5.006,0,0,0,5,5H57a5.006,5.006,0,0,0,5-5V53A1,1,0,0,0,61,52ZM25,36H39a5.006,5.006,0,0,0,5-5V24H54V48H10V24H20v7A5.006,5.006,0,0,0,25,36ZM27,9A5,5,0,0,1,37,9v3H27Zm-5,8a3,3,0,0,1,3-3H39a3,3,0,0,1,3,3V31a3,3,0,0,1-3,3H25a3,3,0,0,1-3-3ZM6,23a3,3,0,0,1,3-3H20v2H9a1,1,0,0,0-1,1V49a1,1,0,0,0,1,1H55a1,1,0,0,0,1-1V23a1,1,0,0,0-1-1H44V20H55a3,3,0,0,1,3,3V52H40a1,1,0,0,0-1,1v2a1,1,0,0,1-1,1H26a1,1,0,0,1-1-1V53a1,1,0,0,0-1-1H6ZM60,57a3,3,0,0,1-3,3H7a3,3,0,0,1-3-3V54H23v1a3,3,0,0,0,3,3H38a3,3,0,0,0,3-3V54H60Z"/><rect x="31" y="52" width="2" height="2"/><rect x="35" y="52" width="2" height="2"/><rect x="27" y="52" width="2" height="2"/><path d="M31,23.858V32h2V31l2,0,0-2-2,0V28h2V26H33V23.858a4,4,0,1,0-2,0ZM32,18a2,2,0,1,1-2,2A2,2,0,0,1,32,18Z"/><path d="M47.414,6h8.77a3,3,0,1,0,0-2h-9.6L42.293,8.293l1.414,1.414ZM59,4a1,1,0,1,1-1,1A1,1,0,0,1,59,4Z"/><path d="M52.184,12H46v2h6.184a3,3,0,1,0,0-2ZM56,13a1,1,0,1,1-1-1A1,1,0,0,1,56,13Z"/><path d="M5,8A3,3,0,0,0,7.816,6h8.77l3.707,3.707,1.414-1.414L17.414,4h-9.6A2.995,2.995,0,1,0,5,8ZM5,4A1,1,0,1,1,4,5,1,1,0,0,1,5,4Z"/><path d="M9,10a3,3,0,1,0,2.816,4H18V12H11.816A3,3,0,0,0,9,10Zm0,4a1,1,0,1,1,1-1A1,1,0,0,1,9,14Z"/><path d="M48,38.184a3,3,0,1,0,2,0V30.465l-3.445-2.3-1.11,1.664L48,31.535ZM49,42a1,1,0,1,1,1-1A1,1,0,0,1,49,42Z"/><path d="M18.316,29.949l-.632-1.9L14,29.279v8.9a3,3,0,1,0,2,0V30.721ZM15,42a1,1,0,1,1,1-1A1,1,0,0,1,15,42Z"/><path d="M27,46a2.993,2.993,0,0,0,1-5.816V38H26v2.184A2.993,2.993,0,0,0,27,46Zm0-4a1,1,0,1,1-1,1A1,1,0,0,1,27,42Z"/><path d="M37,46a2.993,2.993,0,0,0,1-5.816V38H36v2.184A2.993,2.993,0,0,0,37,46Zm0-4a1,1,0,1,1-1,1A1,1,0,0,1,37,42Z"/></g></svg>
