<svg height="512" viewBox="0 0 64 64" width="512" xmlns="http://www.w3.org/2000/svg"><path d="m61 25a1 1 0 0 0 0-2h-5v-6h5a1 1 0 0 0 0-2h-5v-2a5.006 5.006 0 0 0 -5-5h-2v-5a1 1 0 0 0 -2 0v5h-6v-5a1 1 0 0 0 -2 0v5h-6v-5a1 1 0 0 0 -2 0v5h-6v-5a1 1 0 0 0 -2 0v5h-6v-5a1 1 0 0 0 -2 0v5h-2a5.006 5.006 0 0 0 -5 5v2h-5a1 1 0 0 0 0 2h5v6h-5a1 1 0 0 0 0 2h5v6h-5a1 1 0 0 0 0 2h5v6h-5a1 1 0 0 0 0 2h5v6h-5a1 1 0 0 0 0 2h5v2a5.006 5.006 0 0 0 5 5h2v5a1 1 0 0 0 2 0v-5h6v5a1 1 0 0 0 2 0v-5h6v5a1 1 0 0 0 2 0v-5h6v5a1 1 0 0 0 2 0v-5h6v5a1 1 0 0 0 2 0v-5h2a5.006 5.006 0 0 0 5-5v-2h5a1 1 0 0 0 0-2h-5v-6h5a1 1 0 0 0 0-2h-5v-6h5a1 1 0 0 0 0-2h-5v-6zm-7 26a3 3 0 0 1 -3 3h-38a3 3 0 0 1 -3-3v-38a3 3 0 0 1 3-3h38a3 3 0 0 1 3 3z"/><path d="m49 12a3 3 0 1 0 3 3 3 3 0 0 0 -3-3zm0 4a1 1 0 1 1 1-1 1 1 0 0 1 -1 1z"/><path d="m15 18a3 3 0 1 0 -3-3 3 3 0 0 0 3 3zm0-4a1 1 0 1 1 -1 1 1 1 0 0 1 1-1z"/><path d="m49 46a3 3 0 1 0 3 3 3 3 0 0 0 -3-3zm0 4a1 1 0 1 1 1-1 1 1 0 0 1 -1 1z"/><path d="m15 46a3 3 0 1 0 3 3 3 3 0 0 0 -3-3zm0 4a1 1 0 1 1 1-1 1 1 0 0 1 -1 1z"/><path d="m38 26.1v-2.1a6 6 0 0 0 -12 0v2.1a5.009 5.009 0 0 0 -4 4.9v10a5.006 5.006 0 0 0 5 5h10a5.006 5.006 0 0 0 5-5v-10a5.009 5.009 0 0 0 -4-4.9zm-10-2.1a4 4 0 0 1 8 0v2h-8zm12 17a3 3 0 0 1 -3 3h-10a3 3 0 0 1 -3-3v-10a3 3 0 0 1 3-3h10a3 3 0 0 1 3 3z"/><path d="m33 39h2v-2h-2v-2.184a3 3 0 1 0 -2 0v8.184h2v-1h2v-2l-2-.005zm-1-8a1 1 0 1 1 -1 1 1 1 0 0 1 1-1z"/><path d="m50 45a1 1 0 0 0 1-1v-24a1 1 0 0 0 -1-1h-2a3 3 0 0 1 -3-3v-1a1 1 0 0 0 -1-1h-24a1 1 0 0 0 -1 1v1a3 3 0 0 1 -3 3h-1a1 1 0 0 0 -1 1v24a1 1 0 0 0 1 1h1a3 3 0 0 1 3 3v1a1 1 0 0 0 1 1h24a1 1 0 0 0 1-1v-1a3 3 0 0 1 3-3zm-7 3h-22a5.006 5.006 0 0 0 -5-5v-22a5.006 5.006 0 0 0 5-5h22a5.006 5.006 0 0 0 5 5h1v22h-1a5.006 5.006 0 0 0 -5 5z"/></svg>