<?xml version="1.0"?>
<svg xmlns="http://www.w3.org/2000/svg" viewBox="0 0 64 64" width="512" height="512"><g id="Cloud_password_encryption" data-name="Cloud password encryption"><path d="M19.464,52a1,1,0,0,0-1.366-.366l-1.1.634V51a1,1,0,0,0-2,0v1.268l-1.1-.634a1,1,0,0,0-1,1.732L14,54l-1.1.634a1,1,0,1,0,1,1.732l1.1-.634V57a1,1,0,0,0,2,0V55.732l1.1.634a1,1,0,1,0,1-1.732L18,54l1.1-.634A1,1,0,0,0,19.464,52Z"/><path d="M27.464,52a1,1,0,0,0-1.366-.366l-1.1.634V51a1,1,0,0,0-2,0v1.268l-1.1-.634a1,1,0,0,0-1,1.732L22,54l-1.1.634a1,1,0,1,0,1,1.732l1.1-.634V57a1,1,0,0,0,2,0V55.732l1.1.634a1,1,0,1,0,1-1.732L26,54l1.1-.634A1,1,0,0,0,27.464,52Z"/><path d="M51.464,52a1,1,0,0,0-1.366-.366l-1.1.634V51a1,1,0,0,0-2,0v1.268l-1.1-.634a1,1,0,0,0-1,1.732L46,54l-1.1.634a1,1,0,1,0,1,1.732l1.1-.634V57a1,1,0,0,0,2,0V55.732l1.1.634a1,1,0,0,0,1-1.732L50,54l1.1-.634A1,1,0,0,0,51.464,52Z"/><path d="M35.464,52a1,1,0,0,0-1.366-.366l-1.1.634V51a1,1,0,0,0-2,0v1.268l-1.1-.634a1,1,0,0,0-1,1.732L30,54l-1.1.634a1,1,0,1,0,1,1.732l1.1-.634V57a1,1,0,0,0,2,0V55.732l1.1.634a1,1,0,1,0,1-1.732L34,54l1.1-.634A1,1,0,0,0,35.464,52Z"/><path d="M51,46H13a5.006,5.006,0,0,0-5,5v6a5.006,5.006,0,0,0,5,5H51a5.006,5.006,0,0,0,5-5V51A5.006,5.006,0,0,0,51,46Zm3,11a3,3,0,0,1-3,3H13a3,3,0,0,1-3-3V51a3,3,0,0,1,3-3H51a3,3,0,0,1,3,3Z"/><path d="M43.464,52a1,1,0,0,0-1.366-.366l-1.1.634V51a1,1,0,0,0-2,0v1.268l-1.1-.634a1,1,0,0,0-1,1.732L38,54l-1.1.634a1,1,0,1,0,1,1.732l1.1-.634V57a1,1,0,0,0,2,0V55.732l1.1.634a1,1,0,1,0,1-1.732L42,54l1.1-.634A1,1,0,0,0,43.464,52Z"/><path d="M49,14a12.916,12.916,0,0,0-4.183.684,15,15,0,0,0-29.774,3.381c0,.043.006.086.01.128A11,11,0,1,0,13,40h7.1A5.009,5.009,0,0,0,25,44H39a5.009,5.009,0,0,0,4.9-4H49a13,13,0,0,0,0-26ZM39,42H25a3,3,0,0,1-3-3V23a3,3,0,0,1,3-3H39a3,3,0,0,1,3,3V39A3,3,0,0,1,39,42ZM37,18H27V15a5,5,0,0,1,10,0ZM49,38H44V23a5.006,5.006,0,0,0-5-5V15a7,7,0,0,0-14,0v3a5.006,5.006,0,0,0-5,5V38H13a9,9,0,1,1,2.916-17.514,1,1,0,0,0,1.3-1.142,11.689,11.689,0,0,1-.183-1.425A13,13,0,0,1,42.96,16.01a1.663,1.663,0,0,0,.058.4,1,1,0,0,0,1.373.6A10.872,10.872,0,0,1,49,16a11,11,0,0,1,0,22Z"/><path d="M36,26a4,4,0,1,0-5,3.858V40h2V37.995L35,38,35,36l-2-.005V34h2V32H33V29.858A4,4,0,0,0,36,26Zm-6,0a2,2,0,1,1,2,2A2,2,0,0,1,30,26Z"/><rect x="46" y="30" width="5" height="2"/><rect x="53" y="30" width="2" height="2"/><rect x="13" y="30" width="5" height="2"/><rect x="9" y="30" width="2" height="2"/></g></svg>
