<svg height="512" viewBox="0 0 64 64" width="512" xmlns="http://www.w3.org/2000/svg"><g id="Crypto_currency" data-name="Crypto currency"><path d="m18 13a4 4 0 1 1 4-4 4 4 0 0 1 -4 4zm0-6a2 2 0 1 0 2 2 2 2 0 0 0 -2-2z"/><path d="m32 13a4 4 0 1 1 4-4 4 4 0 0 1 -4 4zm0-6a2 2 0 1 0 2 2 2 2 0 0 0 -2-2z"/><path d="m46 13a4 4 0 1 1 4-4 4 4 0 0 1 -4 4zm0-6a2 2 0 1 0 2 2 2 2 0 0 0 -2-2z"/><path d="m24 6h2v6h-2z"/><path d="m38 6h2v6h-2z"/><path d="m58 28a4 4 0 0 0 -3.858 3h-3.142v2h3.142a3.993 3.993 0 1 0 3.858-5zm0 6a2 2 0 1 1 2-2 2 2 0 0 1 -2 2z"/><path d="m55 24a4 4 0 1 0 -3.858-5h-4.142v2h4.142a4 4 0 0 0 3.858 3zm0-6a2 2 0 1 1 -2 2 2 2 0 0 1 2-2z"/><path d="m55 40a4 4 0 0 0 -3.858 3h-4.142v2h4.142a3.993 3.993 0 1 0 3.858-5zm0 6a2 2 0 1 1 2-2 2 2 0 0 1 -2 2z"/><path d="m18 59a4 4 0 1 1 4-4 4 4 0 0 1 -4 4zm0-6a2 2 0 1 0 2 2 2 2 0 0 0 -2-2z"/><path d="m32 59a4 4 0 1 1 4-4 4 4 0 0 1 -4 4zm0-6a2 2 0 1 0 2 2 2 2 0 0 0 -2-2z"/><path d="m46 59a4 4 0 1 1 4-4 4 4 0 0 1 -4 4zm0-6a2 2 0 1 0 2 2 2 2 0 0 0 -2-2z"/><path d="m24 52h2v6h-2z"/><path d="m38 52h2v6h-2z"/><path d="m9.858 33h3.142v-2h-3.142a4 4 0 1 0 0 2zm-5.858-1a2 2 0 1 1 2 2 2 2 0 0 1 -2-2z"/><path d="m9 24a4 4 0 0 0 3.858-3h4.142v-2h-4.142a3.993 3.993 0 1 0 -3.858 5zm0-6a2 2 0 1 1 -2 2 2 2 0 0 1 2-2z"/><path d="m9 40a4 4 0 1 0 3.858 5h4.142v-2h-4.142a4 4 0 0 0 -3.858-3zm0 6a2 2 0 1 1 2-2 2 2 0 0 1 -2 2z"/><path d="m32 15a17 17 0 1 0 17 17 17.019 17.019 0 0 0 -17-17zm0 32a15 15 0 1 1 15-15 15.017 15.017 0 0 1 -15 15z"/><path d="m32 45a13 13 0 1 1 13-13 13.015 13.015 0 0 1 -13 13zm0-24a11 11 0 1 0 11 11 11.013 11.013 0 0 0 -11-11z"/><path d="m36.312 31.239a3.983 3.983 0 0 0 -2.312-6.097v-2.142h-2v2h-1v-2h-2v2h-3v2h1v10h-1v2h3v2h2v-2h1v2h2v-2h1a3.99 3.99 0 0 0 1.312-7.761zm-7.312-4.239h4a2 2 0 0 1 0 4h-4zm6 10h-6v-4h6a2 2 0 0 1 0 4z"/></g></svg>