<svg height="512" viewBox="0 0 64 64" width="512" xmlns="http://www.w3.org/2000/svg"><g id="Fingerprint-2" data-name="Fingerprint"><path d="m50 62h-36a5.006 5.006 0 0 1 -5-5v-50a5.006 5.006 0 0 1 5-5h36a5.006 5.006 0 0 1 5 5v50a5.006 5.006 0 0 1 -5 5zm-36-58a3 3 0 0 0 -3 3v50a3 3 0 0 0 3 3h36a3 3 0 0 0 3-3v-50a3 3 0 0 0 -3-3z"/><path d="m49 58h-34a2 2 0 0 1 -2-2v-48a2 2 0 0 1 2-2h8.465a2 2 0 0 1 1.664.891l1.406 2.109h10.93l1.406-2.109a2 2 0 0 1 1.664-.891h8.465a2 2 0 0 1 2 2v48a2 2 0 0 1 -2 2zm-34-50v48h34v-48h-8.465l-1.406 2.109a2 2 0 0 1 -1.664.891h-10.93a2 2 0 0 1 -1.664-.891l-1.406-2.109z"/><path d="m40.931 33.121-1.985-.242a7.181 7.181 0 0 0 0-1.758l1.985-.242a9.141 9.141 0 0 1 0 2.242z"/><path d="m24.975 37.625a9 9 0 1 1 15.37-9l-1.854.75a7 7 0 1 0 -11.956 7z"/><path d="m32 41a9.02 9.02 0 0 1 -5.626-1.975l1.252-1.56a7 7 0 0 0 10.865-2.84l1.854.75a8.964 8.964 0 0 1 -8.345 5.625z"/><path d="m28.662 29.793-1.668-1.1a6.056 6.056 0 0 1 1.7-1.7l1.106 1.668a4.116 4.116 0 0 0 -.623.51 4.044 4.044 0 0 0 -.515.622z"/><path d="m32 38a6 6 0 0 1 -5.94-6.848l1.98.282a3.966 3.966 0 0 0 1.132 3.395 4.1 4.1 0 0 0 5.656 0 4 4 0 0 0 -3.394-6.789l-.282-1.98a6 6 0 1 1 .848 11.94z"/><path d="m32 35a3 3 0 1 1 1.5-5.6l-1 1.731a1 1 0 1 0 .5.869h2a3 3 0 0 1 -3 3z"/><path d="m22.165 30.181-1.965-.362a12.013 12.013 0 0 1 13.981-9.619l-.362 1.967a10.013 10.013 0 0 0 -11.654 8.016z"/><path d="m34.729 41.624a10.011 10.011 0 0 1 -12.729-9.624h-1l-1-.071-1 14 2 .142.582-8.145a11.993 11.993 0 0 0 13.692 5.622z"/><path d="m45 45.929-1-13.993a11.93 11.93 0 0 0 -7.635-11.118l-.726 1.864a10 10 0 0 1 .533 18.41l.836 1.817a12.006 12.006 0 0 0 5.415-4.982l.577 8.144z"/><path d="m46 24h-2v-4h-4v-2h6z"/><path d="m20 24h-2v-6h6v2h-4z"/><path d="m47 52h-6v-2h4v-4h2z"/><path d="m23 52h-6v-6h2v4h4z"/></g></svg>