<svg height="512" viewBox="0 0 64 64" width="512" xmlns="http://www.w3.org/2000/svg"><g id="Data_encryption" data-name="Data encryption"><path d="m29 26.1v-2.1a6 6 0 0 0 -12 0v2.1a5.009 5.009 0 0 0 -4 4.9v10a5.006 5.006 0 0 0 5 5h10a5.006 5.006 0 0 0 5-5v-10a5.009 5.009 0 0 0 -4-4.9zm-10-2.1a4 4 0 0 1 8 0v2h-8zm12 17a3 3 0 0 1 -3 3h-10a3 3 0 0 1 -3-3v-10a3 3 0 0 1 3-3h10a3 3 0 0 1 3 3z"/><path d="m24 39h2v-2h-2v-2.184a3 3 0 1 0 -2 0v8.184h2v-1h2v-2l-2-.005zm-1-8a1 1 0 1 1 -1 1 1 1 0 0 1 1-1z"/><path d="m47 24a2 2 0 0 1 -2 2v2a4 4 0 1 0 -2.981-6.667l1.49 1.334a2 2 0 0 1 3.491 1.333z"/><path d="m59 28v-2a2 2 0 0 1 0-4v-2a4 4 0 0 0 0 8z"/><path d="m51 21h2v6h-2z"/><path d="m50 11a4 4 0 1 0 4 4 4 4 0 0 0 -4-4zm0 6a2 2 0 1 1 2-2 2 2 0 0 1 -2 2z"/><path d="m42 12h2v6h-2z"/><path d="m56 15h2v3h-2z"/><path d="m46 30a3.967 3.967 0 0 0 -1.334.229l.668 1.884a2 2 0 1 1 0 3.774l-.668 1.884a4 4 0 1 0 1.334-7.771z"/><path d="m52 31h2v6h-2z"/><path d="m37.888 5.333a2 2 0 0 1 -3.775 1.334l-1.886.666a4 4 0 0 0 7.773-1.333 3.957 3.957 0 0 0 -.228-1.333z"/><path d="m50 10a3.983 3.983 0 0 0 2.668-1.018l-1.336-1.488a2 2 0 0 1 -3.332-1.494h-2a4 4 0 0 0 4 4z"/><path d="m42 5h2v4h-2z"/><path d="m57.728 35.655a20.981 20.981 0 1 0 -33.971-24.617c-.257-.009-.501-.038-.757-.038a20.99 20.99 0 0 0 -16.733 33.675l-4.234 16.07a1 1 0 0 0 1.474 1.117l15.663-9.217a20.938 20.938 0 0 0 21.062-8.676c.255.011.508.031.768.031a20.718 20.718 0 0 0 3.808-.369l15.685 9.231a1 1 0 0 0 1.474-1.117zm-34.728 15.345a18.786 18.786 0 0 1 -3.807-.389 1 1 0 0 0 -.71.117l-13.9 8.179 3.741-14.2a1 1 0 0 0 -.186-.88 18.725 18.725 0 0 1 -4.138-11.827 19 19 0 1 1 19 19zm14.207-34.42a21.155 21.155 0 0 0 -3.05-2.339 1.974 1.974 0 0 1 1.843-1.241 2 2 0 0 1 2 2 1.981 1.981 0 0 1 -.793 1.58zm8.31 25.148a.988.988 0 0 0 -.709-.109v-.008a18.57 18.57 0 0 1 -3.345.39 20.911 20.911 0 0 0 -2.848-23.994 3.993 3.993 0 1 0 -6.215-4.757 20.791 20.791 0 0 0 -6.32-2 18.988 18.988 0 0 1 33.92 11.75 18.725 18.725 0 0 1 -4.141 11.825l.014.011a.981.981 0 0 0 -.2.869l3.741 14.2z"/></g></svg>