<?xml version="1.0"?>
<svg xmlns="http://www.w3.org/2000/svg" viewBox="0 0 64 64" width="512" height="512"><g id="Camera_surveillence" data-name="Camera surveillence"><path d="M58,22a4,4,0,0,0-3.858,3H50v2h4.142A3.993,3.993,0,1,0,58,22Zm0,6a2,2,0,1,1,2-2A2,2,0,0,1,58,28Z"/><path d="M58,4a4,4,0,0,0-2.264,7.292L54.382,14H50v2h5.618l2.019-4.037c.121.011.239.037.363.037a4,4,0,0,0,0-8Zm0,6a2,2,0,1,1,2-2A2,2,0,0,1,58,10Z"/><path d="M58,40c-.124,0-.242.026-.363.037L55.618,36H50v2h4.382l1.354,2.708A3.994,3.994,0,1,0,58,40Zm0,6a2,2,0,1,1,2-2A2,2,0,0,1,58,46Z"/><path d="M6,22a4,4,0,1,0,3.858,5H14V25H9.858A4,4,0,0,0,6,22Zm0,6a2,2,0,1,1,2-2A2,2,0,0,1,6,28Z"/><path d="M9.618,14,8.264,11.292A3.994,3.994,0,1,0,6,12c.124,0,.242-.026.363-.037L8.382,16H14V14ZM4,8a2,2,0,1,1,2,2A2,2,0,0,1,4,8Z"/><path d="M6.363,40.037C6.242,40.026,6.124,40,6,40a4.012,4.012,0,1,0,2.264.708L9.618,38H14V36H8.382ZM6,46a2,2,0,1,1,2-2A2,2,0,0,1,6,46Z"/><path d="M32,32A12,12,0,1,1,44,20,12.013,12.013,0,0,1,32,32Zm0-22A10,10,0,1,0,42,20,10.011,10.011,0,0,0,32,10Z"/><path d="M32,26a6,6,0,1,1,6-6A6.006,6.006,0,0,1,32,26Zm0-10a4,4,0,1,0,4,4A4,4,0,0,0,32,16Z"/><path d="M32,23a3,3,0,1,1,3-3A3,3,0,0,1,32,23Zm0-4a1,1,0,1,0,1,1A1,1,0,0,0,32,19Z"/><path d="M32,46a5,5,0,0,1-2.5-9.331l1,1.732a3,3,0,1,0,3,0l1-1.732A5,5,0,0,1,32,46Z"/><rect x="31" y="35" width="2" height="6"/><path d="M35,50A13.015,13.015,0,0,0,48,37V15A13.015,13.015,0,0,0,35,2H29A13.015,13.015,0,0,0,16,15V37A13.015,13.015,0,0,0,29,50h2v3a7.008,7.008,0,0,1-7,7H18v2h6a9,9,0,0,0,8-4.9A9,9,0,0,0,40,62h6V60H40a7.008,7.008,0,0,1-7-7V50ZM18,37V15A11.013,11.013,0,0,1,29,4h6A11.013,11.013,0,0,1,46,15V37A11.013,11.013,0,0,1,35,48H29A11.013,11.013,0,0,1,18,37Z"/></g></svg>
