<svg height="512" viewBox="0 0 64 64" width="512" xmlns="http://www.w3.org/2000/svg"><g id="Folder_security" data-name="Folder security"><path d="m39 34.1v-3.1a7 7 0 0 0 -14 0v3.1a5.009 5.009 0 0 0 -4 4.9v12a5.006 5.006 0 0 0 5 5h12a5.006 5.006 0 0 0 5-5v-12a5.009 5.009 0 0 0 -4-4.9zm-12-3.1a5 5 0 0 1 10 0v3h-10zm14 20a3 3 0 0 1 -3 3h-12a3 3 0 0 1 -3-3v-12a3 3 0 0 1 3-3h12a3 3 0 0 1 3 3z"/><path d="m33 48h2v-2h-2v-2.184a3 3 0 1 0 -2 0v8.184h2v-1h2v-2h-2zm-1-8a1 1 0 1 1 -1 1 1 1 0 0 1 1-1z"/><path d="m59 18h-2v-5a3 3 0 0 0 -3-3h-26.092l-1.466-2.512a3.008 3.008 0 0 0 -2.59-1.488h-18.852a3 3 0 0 0 -3 3v50a3 3 0 0 0 3 3h54a3 3 0 0 0 3-3v-38a3 3 0 0 0 -3-3zm-5-6a1 1 0 0 1 1 1v5h-22.426l-3.5-6zm-50-3a1 1 0 0 1 1-1h18.852a1 1 0 0 1 .863.5l5.544 9.5h-11.259v-1a4 4 0 0 0 -8 0v1h-7zm13 9h-4v-1a2 2 0 0 1 4 0zm43 41a1 1 0 0 1 -1 1h-54a1 1 0 0 1 -1-1v-39h55a1 1 0 0 1 1 1z"/><path d="m45 43h9v2h-9z"/><path d="m56 43h2v2h-2z"/><path d="m45 37h7v2h-7z"/><path d="m54 37h2v2h-2z"/><path d="m45 49h7v2h-7z"/><path d="m54 49h2v2h-2z"/><path d="m10 43h9v2h-9z"/><path d="m6 43h2v2h-2z"/><path d="m12 37h7v2h-7z"/><path d="m8 37h2v2h-2z"/><path d="m12 49h7v2h-7z"/><path d="m8 49h2v2h-2z"/><path d="m33 14h16v2h-16z"/><path d="m51 14h2v2h-2z"/><path d="m14 9h2v3h-2z"/><path d="m10.75 9.871h2v3h-2z" transform="matrix(.866 -.5 .5 .866 -4.111 7.398)"/><path d="m8.371 12.25h2v3h-2z" transform="matrix(.5 -.866 .866 .5 -7.222 14.989)"/><path d="m16.75 10.371h3v2h-3z" transform="matrix(.5 -.866 .866 .5 -.722 21.492)"/><path d="m19.129 12.75h3v2h-3z" transform="matrix(.866 -.5 .5 .866 -4.111 12.158)"/></g></svg>