<svg height="512" viewBox="0 0 64 64" width="512" xmlns="http://www.w3.org/2000/svg"><g id="Password_encryption" data-name="Password encryption"><path d="m55 50h-46a1 1 0 0 1 -1-1v-30a1 1 0 0 1 1-1h46a1 1 0 0 1 1 1v30a1 1 0 0 1 -1 1zm-45-2h44v-28h-44z"/><path d="m23.464 32a1 1 0 0 0 -1.366-.366l-1.1.634v-1.268a1 1 0 0 0 -2 0v1.268l-1.1-.634a1 1 0 0 0 -1 1.732l1.102.634-1.1.634a1 1 0 1 0 1 1.732l1.1-.634v1.268a1 1 0 0 0 2 0v-1.268l1.1.634a1 1 0 1 0 1-1.732l-1.1-.634 1.1-.634a1 1 0 0 0 .364-1.366z"/><path d="m31.464 32a1 1 0 0 0 -1.366-.366l-1.1.634v-1.268a1 1 0 0 0 -2 0v1.268l-1.1-.634a1 1 0 0 0 -1 1.732l1.102.634-1.1.634a1 1 0 1 0 1 1.732l1.1-.634v1.268a1 1 0 0 0 2 0v-1.268l1.1.634a1 1 0 1 0 1-1.732l-1.1-.634 1.1-.634a1 1 0 0 0 .364-1.366z"/><path d="m47.1 34.634-1.1-.634 1.1-.634a1 1 0 0 0 -1-1.732l-1.1.634v-1.268a1 1 0 0 0 -2 0v1.268l-1.1-.634a1 1 0 0 0 -1 1.732l1.1.634-1.1.634a1 1 0 1 0 1 1.732l1.1-.634v1.268a1 1 0 0 0 2 0v-1.268l1.1.634a1 1 0 0 0 1-1.732z"/><path d="m39.464 32a1 1 0 0 0 -1.366-.366l-1.1.634v-1.268a1 1 0 0 0 -2 0v1.268l-1.1-.634a1 1 0 0 0 -1 1.732l1.102.634-1.1.634a1 1 0 1 0 1 1.732l1.1-.634v1.268a1 1 0 0 0 2 0v-1.268l1.1.634a1 1 0 1 0 1-1.732l-1.1-.634 1.1-.634a1 1 0 0 0 .364-1.366z"/><path d="m61 52h-1v-33a5.006 5.006 0 0 0 -5-5h-46a5.006 5.006 0 0 0 -5 5v33h-1a1 1 0 0 0 -1 1v4a5.006 5.006 0 0 0 5 5h50a5.006 5.006 0 0 0 5-5v-4a1 1 0 0 0 -1-1zm-55-33a3 3 0 0 1 3-3h46a3 3 0 0 1 3 3v33h-18a1 1 0 0 0 -1 1v2a1 1 0 0 1 -1 1h-12a1 1 0 0 1 -1-1v-2a1 1 0 0 0 -1-1h-18zm54 38a3 3 0 0 1 -3 3h-50a3 3 0 0 1 -3-3v-3h19v1a3 3 0 0 0 3 3h12a3 3 0 0 0 3-3v-1h19z"/><path d="m31 52h2v2h-2z"/><path d="m35 52h2v2h-2z"/><path d="m27 52h2v2h-2z"/><path d="m47 42h-30a5.006 5.006 0 0 1 -5-5v-6a5.006 5.006 0 0 1 5-5h30a5.006 5.006 0 0 1 5 5v6a5.006 5.006 0 0 1 -5 5zm-30-14a3 3 0 0 0 -3 3v6a3 3 0 0 0 3 3h30a3 3 0 0 0 3-3v-6a3 3 0 0 0 -3-3z"/><path d="m20 22h24v2h-24z"/><path d="m16 22h2v2h-2z"/><path d="m46 22h2v2h-2z"/><path d="m20 44h24v2h-24z"/><path d="m16 44h2v2h-2z"/><path d="m46 44h2v2h-2z"/></g></svg>