<svg height="512" viewBox="0 0 64 64" width="512" xmlns="http://www.w3.org/2000/svg"><g id="Personal_security" data-name="Personal security"><path d="m57 46h-50a1 1 0 0 1 -1-1v-28a1 1 0 0 1 1-1h50a1 1 0 0 1 1 1v28a1 1 0 0 1 -1 1zm-49-2h48v-26h-48z"/><path d="m32 20a11 11 0 1 0 7.7 18.855l-1.4-1.428a9 9 0 1 1 2.7-6.427v1a2 2 0 0 1 -4 0v-1a5.057 5.057 0 1 0 -1.268 3.293 3.994 3.994 0 0 0 7.268-2.293v-1a11.013 11.013 0 0 0 -11-11zm0 14a3 3 0 1 1 3-3 3 3 0 0 1 -3 3z"/><path d="m57 12h-50a5.006 5.006 0 0 0 -5 5v30a5.006 5.006 0 0 0 5 5h18v4h-5a3 3 0 0 0 -3 3v1h-3v2h36v-2h-3v-1a3 3 0 0 0 -3-3h-5v-4h18a5.006 5.006 0 0 0 5-5v-30a5.006 5.006 0 0 0 -5-5zm-13 46a1 1 0 0 1 1 1v1h-26v-1a1 1 0 0 1 1-1zm-7-2h-10v-4h10zm23-9a3 3 0 0 1 -3 3h-50a3 3 0 0 1 -3-3v-30a3 3 0 0 1 3-3h50a3 3 0 0 1 3 3z"/><path d="m31 47h2v2h-2z"/><path d="m35 47h2v2h-2z"/><path d="m27 47h2v2h-2z"/></g></svg>