<?xml version="1.0"?>
<svg xmlns="http://www.w3.org/2000/svg" viewBox="0 0 64 64" width="512" height="512"><g id="Password_encryption-2" data-name="Password encryption"><path d="M12.536,53a1,1,0,0,0,1.366.366l1.1-.634V54a1,1,0,0,0,2,0V52.732l1.1.634a1,1,0,1,0,1-1.732L18,51l1.1-.634a1,1,0,1,0-1-1.732l-1.1.634V48a1,1,0,0,0-2,0v1.268l-1.1-.634a1,1,0,0,0-1,1.732L14,51l-1.1.634A1,1,0,0,0,12.536,53Z"/><path d="M20.536,53a1,1,0,0,0,1.366.366l1.1-.634V54a1,1,0,0,0,2,0V52.732l1.1.634a1,1,0,1,0,1-1.732L26,51l1.1-.634a1,1,0,0,0-1-1.732l-1.1.634V48a1,1,0,0,0-2,0v1.268l-1.1-.634a1,1,0,0,0-1,1.732L22,51l-1.1.634A1,1,0,0,0,20.536,53Z"/><path d="M59,10H40.574a10.988,10.988,0,0,0-21.148,0H5a3,3,0,0,0-3,3V59a3,3,0,0,0,3,3H59a3,3,0,0,0,3-3V13A3,3,0,0,0,59,10Zm0,2a1,1,0,0,1,1,1v6.026A4.948,4.948,0,0,0,57,18H41V13c0-.338-.021-.67-.051-1ZM21,13a9,9,0,0,1,18,0v5H37V13.208a7.123,7.123,0,0,0-6.084-7.149A7.007,7.007,0,0,0,23,13v6a1,1,0,0,1-2,0Zm12.927-3H26.006a5.05,5.05,0,0,1,.7-.754,4.965,4.965,0,0,1,3.961-1.2A4.863,4.863,0,0,1,33.927,10ZM4,13a1,1,0,0,1,1-1H19.051c-.03.33-.051.662-.051,1v6a3,3,0,0,0,6,0V13a4.976,4.976,0,0,1,.1-1h9.745A5.414,5.414,0,0,1,35,13.208V18a5.009,5.009,0,0,0-4.9,4H4ZM59,60H5a1,1,0,0,1-1-1V24H30v4H11a3,3,0,0,0-3,3v8a3,3,0,0,0,3,3H30v1a5,5,0,0,0,.1,1H11a3,3,0,0,0-3,3v8a3,3,0,0,0,3,3H45a3,3,0,0,0,3-3V48h9a4.948,4.948,0,0,0,3-1.026V59A1,1,0,0,1,59,60ZM35,48H46v7a1,1,0,0,1-1,1H11a1,1,0,0,1-1-1V47a1,1,0,0,1,1-1H31.026A4.977,4.977,0,0,0,35,48Zm-5-8H11a1,1,0,0,1-1-1V31a1,1,0,0,1,1-1H30Zm30,3a3,3,0,0,1-3,3H35a3,3,0,0,1-3-3V23a3,3,0,0,1,3-3H57a3,3,0,0,1,3,3Z"/><path d="M8,14a3,3,0,1,0,3,3A3,3,0,0,0,8,14Zm0,4a1,1,0,1,1,1-1A1,1,0,0,1,8,18Z"/><path d="M15,14a3,3,0,1,0,3,3A3,3,0,0,0,15,14Zm0,4a1,1,0,1,1,1-1A1,1,0,0,1,15,18Z"/><path d="M50,28a4,4,0,1,0-5,3.858V43h2V41L49,41,49,39l-2-.005V37h2V35H47V31.858A4,4,0,0,0,50,28Zm-6,0a2,2,0,1,1,2,2A2,2,0,0,1,44,28Z"/><path d="M12.536,37a1,1,0,0,0,1.366.366l1.1-.634V38a1,1,0,0,0,2,0V36.732l1.1.634a1,1,0,1,0,1-1.732L18,35l1.1-.634a1,1,0,1,0-1-1.732l-1.1.634V32a1,1,0,0,0-2,0v1.268l-1.1-.634a1,1,0,0,0-1,1.732L14,35l-1.1.634A1,1,0,0,0,12.536,37Z"/><path d="M20.536,37a1,1,0,0,0,1.366.366l1.1-.634V38a1,1,0,0,0,2,0V36.732l1.1.634a1,1,0,1,0,1-1.732L26,35l1.1-.634a1,1,0,0,0-1-1.732l-1.1.634V32a1,1,0,0,0-2,0v1.268l-1.1-.634a1,1,0,0,0-1,1.732L22,35l-1.1.634A1,1,0,0,0,20.536,37Z"/><path d="M28.536,53a1,1,0,0,0,1.366.366l1.1-.634V54a1,1,0,0,0,2,0V52.732l1.1.634a1,1,0,1,0,1-1.732L34,51l1.1-.634a1,1,0,0,0-1-1.732L32,49.845l-2.1-1.211a1,1,0,0,0-1,1.732L30,51l-1.1.634A1,1,0,0,0,28.536,53Z"/><path d="M36.536,53a1,1,0,0,0,1.366.366l1.1-.634V54a1,1,0,0,0,2,0V52.732l1.1.634a1,1,0,1,0,1-1.732L42,51l1.1-.634a1,1,0,0,0-1-1.732L40,49.845l-2.1-1.211a1,1,0,0,0-1,1.732L38,51l-1.1.634A1,1,0,0,0,36.536,53Z"/><path d="M55,22H52v2h3a1,1,0,0,1,1,1v3h2V25A3,3,0,0,0,55,22Z"/><path d="M36,41V38H34v3a3,3,0,0,0,3,3h3V42H37A1,1,0,0,1,36,41Z"/></g></svg>
