<svg height="512" viewBox="0 0 64 64" width="512" xmlns="http://www.w3.org/2000/svg"><path d="m59 2h-54a3 3 0 0 0 -3 3v54a3 3 0 0 0 3 3h54a3 3 0 0 0 3-3v-54a3 3 0 0 0 -3-3zm1 14v43a1 1 0 0 1 -1 1h-54a1 1 0 0 1 -1-1v-43h41v-2h-41v-9a1 1 0 0 1 1-1h54a1 1 0 0 1 1 1v9h-3v2z"/><path d="m8 6a3 3 0 1 0 3 3 3 3 0 0 0 -3-3zm0 4a1 1 0 1 1 1-1 1 1 0 0 1 -1 1z"/><path d="m15 6a3 3 0 1 0 3 3 3 3 0 0 0 -3-3zm0 4a1 1 0 1 1 1-1 1 1 0 0 1 -1 1z"/><path d="m22 6a3 3 0 1 0 3 3 3 3 0 0 0 -3-3zm0 4a1 1 0 1 1 1-1 1 1 0 0 1 -1 1z"/><path d="m51 11a3.992 3.992 0 0 0 -1 7.858v27.142a3 3 0 0 1 -6 0v-1.586l1.293 1.293 1.414-1.414-4.707-4.707v6.414a5 5 0 0 0 10 0v-27.142a3.992 3.992 0 0 0 -1-7.858zm0 6a2 2 0 1 1 2-2 2 2 0 0 1 -2 2z"/><path d="m13.9 30.366 1.1-.634v1.268a1 1 0 0 0 2 0v-1.268l1.1.634a1 1 0 1 0 1-1.732l-1.1-.634 1.1-.634a1 1 0 1 0 -1-1.732l-1.1.634v-1.268a1 1 0 0 0 -2 0v1.268l-1.1-.634a1 1 0 0 0 -1 1.732l1.1.634-1.1.634a1 1 0 1 0 1 1.732z"/><path d="m20.536 30a1 1 0 0 0 1.366.366l1.1-.634v1.268a1 1 0 0 0 2 0v-1.268l1.1.634a1 1 0 1 0 1-1.732l-1.102-.634 1.1-.634a1 1 0 1 0 -1-1.732l-1.1.634v-1.268a1 1 0 0 0 -2 0v1.268l-1.1-.634a1 1 0 0 0 -1 1.732l1.1.634-1.1.634a1 1 0 0 0 -.364 1.366z"/><path d="m36.536 30a1 1 0 0 0 1.366.366l1.1-.634v1.268a1 1 0 0 0 2 0v-1.268l1.1.634a1 1 0 1 0 1-1.732l-1.102-.634 1.1-.634a1 1 0 0 0 -1-1.732l-1.1.634v-1.268a1 1 0 0 0 -2 0v1.268l-1.1-.634a1 1 0 0 0 -1 1.732l1.1.634-1.1.634a1 1 0 0 0 -.364 1.366z"/><path d="m28.536 30a1 1 0 0 0 1.366.366l1.1-.634v1.268a1 1 0 0 0 2 0v-1.268l1.1.634a1 1 0 1 0 1-1.732l-1.102-.634 1.1-.634a1 1 0 0 0 -1-1.732l-1.1.634v-1.268a1 1 0 0 0 -2 0v1.268l-1.1-.634a1 1 0 0 0 -1 1.732l1.1.634-1.1.634a1 1 0 0 0 -.364 1.366z"/><path d="m43 36a5.006 5.006 0 0 0 5-5v-6a5.006 5.006 0 0 0 -5-5h-30a5.006 5.006 0 0 0 -5 5v6a5.006 5.006 0 0 0 5 5zm-33-5v-6a3 3 0 0 1 3-3h30a3 3 0 0 1 3 3v6a3 3 0 0 1 -3 3h-30a3 3 0 0 1 -3-3z"/><path d="m12 40h2v2h-2z"/><path d="m16 40h21v2h-21z"/><path d="m12 46h2v2h-2z"/><path d="m16 46h21v2h-21z"/><path d="m12 52h2v2h-2z"/><path d="m16 52h21v2h-21z"/></svg>