<svg height="512" viewBox="0 0 64 64" width="512" xmlns="http://www.w3.org/2000/svg"><g id="QR_code" data-name="QR code"><path d="m19 2h-12a5.006 5.006 0 0 0 -5 5v12a5.006 5.006 0 0 0 5 5h12a5.006 5.006 0 0 0 5-5v-12a5.006 5.006 0 0 0 -5-5zm3 17a3 3 0 0 1 -3 3h-12a3 3 0 0 1 -3-3v-12a3 3 0 0 1 3-3h12a3 3 0 0 1 3 3z"/><path d="m17 8h-8a1 1 0 0 0 -1 1v8a1 1 0 0 0 1 1h8a1 1 0 0 0 1-1v-8a1 1 0 0 0 -1-1zm-1 8h-6v-6h6z"/><path d="m19 40h-12a5.006 5.006 0 0 0 -5 5v12a5.006 5.006 0 0 0 5 5h12a5.006 5.006 0 0 0 5-5v-12a5.006 5.006 0 0 0 -5-5zm3 17a3 3 0 0 1 -3 3h-12a3 3 0 0 1 -3-3v-12a3 3 0 0 1 3-3h12a3 3 0 0 1 3 3z"/><path d="m17 46h-8a1 1 0 0 0 -1 1v8a1 1 0 0 0 1 1h8a1 1 0 0 0 1-1v-8a1 1 0 0 0 -1-1zm-1 8h-6v-6h6z"/><path d="m57 2h-12a5.006 5.006 0 0 0 -5 5v12a5.006 5.006 0 0 0 5 5h12a5.006 5.006 0 0 0 5-5v-12a5.006 5.006 0 0 0 -5-5zm3 17a3 3 0 0 1 -3 3h-12a3 3 0 0 1 -3-3v-12a3 3 0 0 1 3-3h12a3 3 0 0 1 3 3z"/><path d="m55 8h-8a1 1 0 0 0 -1 1v8a1 1 0 0 0 1 1h8a1 1 0 0 0 1-1v-8a1 1 0 0 0 -1-1zm-1 8h-6v-6h6z"/><path d="m33 20h5v-2h-3v-3h3v-4h-2v2h-1v-2h-4v-2h7v-2h-12v2h3v2 4h2v-2h2v3h-7v2h7z"/><path d="m26 11h2v2h-2z"/><path d="m31 33h10v-2h-8v-8h4v-2h-11v2h5z"/><path d="m7 26h2v12h-2z"/><path d="m26 31h3v2h-3z"/><path d="m19 26h-2v1h-5v2h5v2h-7v4h2v-2h2v5h2v-5h5v2h-3v2h3v1h2v-7h-4v-2h5v-2h-5z"/><path d="m52 41h2v3h-9v8h-3v8h8v-8h-3v-6h9v-5h4v-8h-8zm-4 17h-4v-4h4zm6-23h4v4h-4z"/><path d="m48 35h2v7h-2z"/><path d="m58 48h-1v2h3v-7h-2z"/><path d="m53 50h2v-2h-4v6h7v6h2v-8h-7z"/><path d="m52 58h4v2h-4z"/><path d="m44 40h-5v6h4v-2h-2v-2h5v-7h-2z"/><path d="m38 47h5v2h-5z"/><path d="m29 44h2v4h-2z"/><path d="m40 37v1h2v-3h-10v7h5v-2h-3v-3z"/><path d="m37 46v-2h-5v5h4v-2h-2v-1z"/><path d="m36 52h3v6h-5v-2h3v-2h-5v6h9v-10h-5z"/><path d="m58 28h-2v2h2v1h2v-5h-2z"/><path d="m54 31v-5h-10v1 1 5h7v-2h-5v-3h6v3z"/><path d="m26 44h2v6h-2z"/><path d="m34 50h-6v3h-2v7h2v-5h2v-3h4z"/><path d="m36 27h6v2h-6z"/><path d="m29 39h2v-4h-5v2h3z"/><path d="m26 40h5v2h-5z"/><path d="m53 55h2v2h-2z"/></g></svg>