<?xml version="1.0"?>
<svg xmlns="http://www.w3.org/2000/svg" viewBox="0 0 64 64" width="512" height="512"><g id="Safe_crypto_currency" data-name="Safe crypto currency"><path d="M62,30A17.028,17.028,0,0,0,50,13.753V7a5.006,5.006,0,0,0-5-5H7A5.006,5.006,0,0,0,2,7V53a5.006,5.006,0,0,0,5,5H8v1a3,3,0,0,0,3,3h1a3,3,0,0,0,3-3V58H37v1a3,3,0,0,0,3,3h1a3,3,0,0,0,3-3V58h1a5.006,5.006,0,0,0,5-5V46.247A17.028,17.028,0,0,0,62,30ZM13,59a1,1,0,0,1-1,1H11a1,1,0,0,1-1-1V58h3Zm29,0a1,1,0,0,1-1,1H40a1,1,0,0,1-1-1V58h3Zm6-6a3,3,0,0,1-3,3H7a3,3,0,0,1-3-3V7A3,3,0,0,1,7,4H45a3,3,0,0,1,3,3v6.281a16.853,16.853,0,0,0-2-.23V7a1,1,0,0,0-1-1H9A1,1,0,0,0,8,7v7a3,3,0,0,0-3,3v6a3,3,0,0,0,3,3v8a3,3,0,0,0-3,3v6a3,3,0,0,0,3,3v7a1,1,0,0,0,1,1H45a1,1,0,0,0,1-1V46.949a16.853,16.853,0,0,0,2-.23ZM38,14.526V12a1,1,0,0,0-1-1H17a1,1,0,0,0-1,1V22a1,1,0,0,0,1,1H29.526A16.673,16.673,0,0,0,28.3,33.112,8.1,8.1,0,0,0,27,33a7.973,7.973,0,0,0-5.637,2.33c-.006.006-.014.007-.02.013s-.007.014-.013.02a7.984,7.984,0,0,0,0,11.274c.006.006.007.014.013.02s.014.007.02.013a7.958,7.958,0,0,0,11.209.043.959.959,0,0,0,.085-.056.835.835,0,0,0,.058-.088,7.982,7.982,0,0,0,1.9-3.142A16.883,16.883,0,0,0,44,46.949V52H10V46a3,3,0,0,0,3-3V37a3,3,0,0,0-3-3V26a3,3,0,0,0,3-3V17a3,3,0,0,0-3-3V8H44v5.051A16.837,16.837,0,0,0,38,14.526ZM30.6,21H18V13H36v2.6A17.1,17.1,0,0,0,30.6,21Zm1.273,23.462-.634-.633a1,1,0,0,0-1.414,1.414l.626.626A5.966,5.966,0,0,1,28,46.9V46a1,1,0,0,0-2,0v.91a5.964,5.964,0,0,1-2.471-1.025l.642-.642a1,1,0,0,0-1.414-1.414l-.642.642A5.964,5.964,0,0,1,21.09,42H22a1,1,0,0,0,0-2h-.91a5.964,5.964,0,0,1,1.025-2.471l.642.642a1,1,0,0,0,1.414-1.414l-.642-.642A5.964,5.964,0,0,1,26,35.09V36a1,1,0,0,0,2,0v-.9a5.714,5.714,0,0,1,.866.227,17.009,17.009,0,0,0,4.033,6.6A5.893,5.893,0,0,1,31.877,44.462ZM10,36a1,1,0,0,1,1,1v6a1,1,0,0,1-1,1H8a1,1,0,0,1-1-1V37a1,1,0,0,1,1-1Zm0-20a1,1,0,0,1,1,1v6a1,1,0,0,1-1,1H8a1,1,0,0,1-1-1V17a1,1,0,0,1,1-1ZM45,45A15,15,0,1,1,60,30,15.017,15.017,0,0,1,45,45Z"/><path d="M45,17A13,13,0,1,0,58,30,13.015,13.015,0,0,0,45,17Zm0,24A11,11,0,1,1,56,30,11.013,11.013,0,0,1,45,41Z"/><path d="M49.312,29.239A3.983,3.983,0,0,0,47,23.142V21H45v2H44V21H42v2H39v2h1V35H39v2h3v2h2V37h1v2h2V37h1a3.99,3.99,0,0,0,1.312-7.761ZM42,25h4a2,2,0,0,1,0,4H42Zm6,10H42V31h6a2,2,0,0,1,0,4Z"/><path d="M27,38a3,3,0,1,0,3,3A3,3,0,0,0,27,38Zm0,4a1,1,0,1,1,1-1A1,1,0,0,1,27,42Z"/></g></svg>
