<svg height="512" viewBox="0 0 64 64" width="512" xmlns="http://www.w3.org/2000/svg"><g id="Safe_online_shopping" data-name="Safe online shopping"><path d="m61 20h-16v-5a13 13 0 0 0 -26 0v5h-8a1 1 0 0 0 -1 1v34a7.008 7.008 0 0 0 7 7h40a5.006 5.006 0 0 0 5-5v-36a1 1 0 0 0 -1-1zm-21 0h-16v-5a8 8 0 0 1 16 0zm0 2v4h-16v-4zm5 6a3 3 0 0 1 3 3v20a3 3 0 0 1 -3 3h-26a3 3 0 0 1 -3-3v-20a3 3 0 0 1 3-3zm-24-13a11 11 0 0 1 22 0v11h-1v-11a10 10 0 0 0 -20 0v11h-1zm-4 45a5.006 5.006 0 0 1 -5-5v-33h7v4a5.006 5.006 0 0 0 -5 5v20a5.006 5.006 0 0 0 5 5h26a5.006 5.006 0 0 0 5-5v-20a5.006 5.006 0 0 0 -5-5v-4h7v33a5.006 5.006 0 0 1 -5 5zm43-3a3 3 0 0 1 -3 3h-5.111a6.973 6.973 0 0 0 2.111-5v-33h6z"/><path d="m31 39.858v11.142h2v-2h2v-2h-2v-2h2v-2h-2v-3.142a4 4 0 1 0 -2 0zm1-5.858a2 2 0 1 1 -2 2 2 2 0 0 1 2-2z"/><path d="m44 35h2v-3a2 2 0 0 0 -2-2h-3v2h3z"/><path d="m20 47h-2v3a2 2 0 0 0 2 2h3v-2h-3z"/><path d="m56 24h2v2h-2z"/><path d="m56 56h2v2h-2z"/><path d="m56 28h2v26h-2z"/></g></svg>