<?xml version="1.0"?>
<svg xmlns="http://www.w3.org/2000/svg" viewBox="0 0 64 64" width="512" height="512"><g id="Server_security" data-name="Server security"><path d="M9,10a3,3,0,1,0,3,3A3,3,0,0,0,9,10Zm0,4a1,1,0,1,1,1-1A1,1,0,0,1,9,14Z"/><path d="M17,10a3,3,0,1,0,3,3A3,3,0,0,0,17,10Zm0,4a1,1,0,1,1,1-1A1,1,0,0,1,17,14Z"/><path d="M43,10H27a3,3,0,0,0,0,6H43a3,3,0,0,0,0-6Zm0,4H27a1,1,0,0,1,0-2H43a1,1,0,0,1,0,2Z"/><path d="M9,26a3,3,0,1,0,3,3A3,3,0,0,0,9,26Zm0,4a1,1,0,1,1,1-1A1,1,0,0,1,9,30Z"/><path d="M17,26a3,3,0,1,0,3,3A3,3,0,0,0,17,26Zm0,4a1,1,0,1,1,1-1A1,1,0,0,1,17,30Z"/><path d="M46,29a3,3,0,0,0-3-3H27a3,3,0,0,0,0,6H43A3,3,0,0,0,46,29ZM26,29a1,1,0,0,1,1-1H43a1,1,0,0,1,0,2H27A1,1,0,0,1,26,29Z"/><path d="M9,42a3,3,0,1,0,3,3A3,3,0,0,0,9,42Zm0,4a1,1,0,1,1,1-1A1,1,0,0,1,9,46Z"/><path d="M17,42a3,3,0,1,0,3,3A3,3,0,0,0,17,42Zm0,4a1,1,0,1,1,1-1A1,1,0,0,1,17,46Z"/><path d="M58.209,34a11.038,11.038,0,0,1-6.871-2.41L50,30.519V25a3,3,0,0,0-3-3H46V20h1a3,3,0,0,0,3-3V9a3,3,0,0,0-3-3H5A3,3,0,0,0,2,9v8a3,3,0,0,0,3,3H6v2H5a3,3,0,0,0-3,3v8a3,3,0,0,0,3,3H6v2H5a3,3,0,0,0-3,3v8a3,3,0,0,0,3,3H6v2H5a3,3,0,0,0-3,3v3H45.31c.04.023.077.05.117.073L49,62.158l3.573-2.085A19.064,19.064,0,0,0,62,43.661V34ZM5,18a1,1,0,0,1-1-1V9A1,1,0,0,1,5,8H47a1,1,0,0,1,1,1v8a1,1,0,0,1-1,1Zm3,2H44v2H8ZM5,34a1,1,0,0,1-1-1V25a1,1,0,0,1,1-1H47a1,1,0,0,1,1,1v5.519L46.662,31.59A11.038,11.038,0,0,1,39.791,34H5ZM36.011,44a18.71,18.71,0,0,0,.14,2H27a1,1,0,0,1-1-1,.978.978,0,0,1,.306-.712A.957.957,0,0,1,27,44ZM8,36H36v2H8ZM5,50a1,1,0,0,1-1-1V41a1,1,0,0,1,1-1H36v2H27a3.017,3.017,0,0,0-3,3,3,3,0,0,0,3,3h9.517a19.1,19.1,0,0,0,.586,2Zm3,2H37.94a18.957,18.957,0,0,0,1.137,2H8ZM4,58V57a1,1,0,0,1,1-1H40.567a18.974,18.974,0,0,0,1.98,2ZM60,43.661a17.056,17.056,0,0,1-8.435,14.685L49,59.842l-2.565-1.5A17.056,17.056,0,0,1,38,43.661V36h1.791a13.05,13.05,0,0,0,8.121-2.849L49,32.281l1.088.87A13.05,13.05,0,0,0,58.209,36H60Z"/><path d="M50.988,36.223a9,9,0,1,0,6.79,10.765h0A9.009,9.009,0,0,0,50.988,36.223Zm4.839,10.323h0a7,7,0,1,1-5.28-8.373A7.006,7.006,0,0,1,55.827,46.546Z"/><polygon points="48 46.586 45.879 44.464 44.465 45.878 48 49.414 54.364 43.05 52.95 41.636 48 46.586"/></g></svg>
