<svg height="512" viewBox="0 0 64 64" width="512" xmlns="http://www.w3.org/2000/svg"><g id="Virtual_money" data-name="Virtual money"><path d="m32 20a11 11 0 1 0 7.7 18.855l-1.4-1.428a9 9 0 1 1 2.7-6.427v1a2 2 0 0 1 -4 0v-1a5.057 5.057 0 1 0 -1.268 3.293 3.994 3.994 0 0 0 7.268-2.293v-1a11.013 11.013 0 0 0 -11-11zm0 14a3 3 0 1 1 3-3 3 3 0 0 1 -3 3z"/><path d="m53 46h-42a1 1 0 0 1 -1-1 3 3 0 0 0 -3-3 1 1 0 0 1 -1-1v-20a1 1 0 0 1 1-1 3 3 0 0 0 3-3 1 1 0 0 1 1-1h42a1 1 0 0 1 1 1 3 3 0 0 0 3 3 1 1 0 0 1 1 1v20a1 1 0 0 1 -1 1 3 3 0 0 0 -3 3 1 1 0 0 1 -1 1zm-41.1-2h40.2a5.013 5.013 0 0 1 3.9-3.9v-18.2a5.013 5.013 0 0 1 -3.9-3.9h-40.2a5.013 5.013 0 0 1 -3.9 3.9v18.2a5.013 5.013 0 0 1 3.9 3.9z"/><path d="m59 12h-54a3 3 0 0 0 -3 3v44a3 3 0 0 0 3 3h32v-2h-32a1 1 0 0 1 -1-1v-1h13v-2h-13v-2h25v-2h-25v-2h45v-2h-45v-33a1 1 0 0 1 1-1h54a1 1 0 0 1 1 1v33h-5v2h5v2h-25v2h25v2h-37v2h37v1a1 1 0 0 1 -1 1h-16v2h16a3 3 0 0 0 3-3v-44a3 3 0 0 0 -3-3z"/><path d="m31 52h2v2h-2z"/><path d="m19 56h2v2h-2z"/><path d="m39 60h2v2h-2z"/><path d="m51 48h2v2h-2z"/></g></svg>